SplineFontDB: 1.0
FontName: Garuda
FullName: Garuda
FamilyName: Garuda
Weight: Book
Copyright: Generated by NECTEC for Public Domain\n\nModified under GNU General Public License by TLWG
Version: 2.53: 2007-04-25
ItalicAngle: 0
UnderlinePosition: -27
UnderlineWidth: 10
Ascent: 840
Descent: 160
NeedsXUIDChange: 1
FSType: 0
OS2Version: 0
OS2_WeightWidthSlopeOnly: 0
OS2_UseTypoMetrics: 0
CreationTime: 1153661488
ModificationTime: 1177485480
PfmFamily: 33
TTFWeight: 400
TTFWidth: 5
LineGap: 0
VLineGap: 0
Panose: 2 11 6 4 2 2 2 2 2 4
OS2TypoAscent: 0
OS2TypoAOffset: 1
OS2TypoDescent: 0
OS2TypoDOffset: 1
OS2TypoLinegap: 0
OS2WinAscent: 0
OS2WinAOffset: 1
OS2WinDescent: 0
OS2WinDOffset: 1
HheadAscent: 0
HheadAOffset: 1
HheadDescent: 0
HheadDOffset: 1
OS2Vendor: 'PfEd'
ScriptLang: 3
 1 latn 1 dflt 
 1 thai 4 KUY  PAL  THA  dflt 
 1 thai 1 PAL  
ContextSub: glyph 0 2 ' RQD' 0 0 0 1
 String: 15 uni0E0D uni0E10
 BString: 0 
 FString: 0 
 1
  SeqLookup: 0 'nds0'
EndFPST
ChainSub: coverage 0 1 'ccmp' 0 0 0 1
 1 0 1
  Coverage: 15 uni0E0D uni0E10
  FCoverage: 23 uni0E38 uni0E39 uni0E3A
 1
  SeqLookup: 0 'ndsc'
EndFPST
ChainSub: class 0 1 'ccmp' 7 7 1 5
  Class: 414 uni0E01 uni0E02 uni0E03 uni0E04 uni0E05 uni0E06 uni0E07 uni0E08 uni0E09 uni0E0A uni0E0B uni0E0C uni0E0D uni0E0E uni0E0F uni0E10 uni0E11 uni0E12 uni0E13 uni0E14 uni0E15 uni0E16 uni0E17 uni0E18 uni0E19 uni0E1A uni0E1B uni0E1C uni0E1D uni0E1E uni0E1F uni0E20 uni0E21 uni0E22 uni0E23 uni0E24 uni0E25 uni0E26 uni0E27 uni0E28 uni0E29 uni0E2A uni0E2B uni0E2C uni0E2D uni0E2E uni0E10.descless uni0E0D.descless dottedcircle
  Class: 7 uni0E33
  Class: 39 uni0E48 uni0E49 uni0E4A uni0E4B uni0E4C
  Class: 23 uni0E38 uni0E39 uni0E3A
  Class: 39 uni0E31 uni0E34 uni0E35 uni0E36 uni0E37
  Class: 7 uni0E4D

StartChar: .notdef
Encoding: 0 -1 0
Width: 766
VWidth: 2048
Flags: W
HStem: 0 95<192 671> 1193 95<95 575>
VStem: 95 97<0 1193> 575 96<95 1288>
Fore
95 0 m 1
 95 1288 l 1
 671 1288 l 1
 671 0 l 1
 95 0 l 1
192 95 m 1
 575 95 l 1
 575 1193 l 1
 192 1193 l 1
 192 95 l 1
EndSplineSet
EndChar
StartChar: exclam
Encoding: 33 33 2
Width: 277
VWidth: 2048
Flags: W
HStem: 0 100<90 192>
VStem: 86 109<557 716>
Fore
113 178 m 1
 86 558 l 1
 86 716 l 1
 195 716 l 1
 195 558 l 1
 170 178 l 1
 113 178 l 1
90 0 m 1
 90 100 l 1
 192 100 l 1
 192 0 l 1
 90 0 l 1
EndSplineSet
EndChar
StartChar: quotedbl
Encoding: 34 34 3
Width: 354
VWidth: 2048
Flags: W
VStem: 46 100<598 716> 208 100<598 716>
Fore
71 463 m 1
 46 599 l 1
 46 716 l 1
 146 716 l 1
 146 599 l 1
 124 463 l 1
 71 463 l 1
231 463 m 1
 208 599 l 1
 208 716 l 1
 308 716 l 1
 308 599 l 1
 285 463 l 1
 231 463 l 1
EndSplineSet
EndChar
StartChar: numbersign
Encoding: 35 35 4
Width: 556
VWidth: 2048
Flags: W
HStem: -12 21G<51 124 277 351> 196 72<11 94 181 319 408 544> 446 72<11 144 231 371 460 544> 446 282<201 371 428 544>
Fore
51 -12 m 1xd0
 94 196 l 1
 11 196 l 1
 11 268 l 1
 107 268 l 1
 144 446 l 1
 11 446 l 1
 11 518 l 1
 159 518 l 1xe0
 201 728 l 1
 274 728 l 1xd0
 231 518 l 1
 385 518 l 1xe0
 428 728 l 1
 501 728 l 1xd0
 460 518 l 1
 544 518 l 1
 544 446 l 1xe0
 445 446 l 1
 408 268 l 1
 544 268 l 1
 544 196 l 1
 394 196 l 1
 351 -12 l 1
 277 -12 l 1
 319 196 l 1
 166 196 l 1
 124 -12 l 1
 51 -12 l 1xd0
181 268 m 1
 334 268 l 1
 371 446 l 1xe0
 218 446 l 1xd0
 181 268 l 1
EndSplineSet
EndChar
StartChar: dollar
Encoding: 36 36 5
Width: 556
VWidth: 2048
Flags: HW
VStem: 35 89<137.109 209.565> 51 87<469 606.8> 250 50<-103 -15 60 326 423 667 740 782> 402 90<550 636.957> 418 92<96.6 277.3>
Fore
510 204 m 0x28
 510 73 419 -8 300 -14 c 1
 300 -103 l 1
 250 -103 l 1
 250 -15 l 1
 115 2 44 74 35 199 c 1
 124 216 l 1xa8
 136 121 178 69 250 60 c 1
 250 339 l 1
 116 368 51 435 51 541 c 0
 51 662 130 728 250 740 c 1
 250 782 l 1
 300 782 l 1
 300 740 l 1
 414 730 477 670 492 564 c 1
 402 550 l 1x70
 391 616 357 655 300 667 c 1
 300 412 l 1
 440 383 510 314 510 204 c 0x28
250 667 m 1
 169 656 138 593 138 547 c 0x60
 138 487 175 446 250 423 c 1
 250 667 l 1
300 60 m 1
 370 68 418 120 418 198 c 0x28
 418 259 380 302 300 326 c 1
 300 60 l 1
EndSplineSet
EndChar
StartChar: percent
Encoding: 37 37 6
Width: 889
VWidth: 2048
Flags: HW
HStem: -26 60<609 740.3> 291 62<609 742.9> 349 62<143.1 276.3> 668 60<143.1 277>
VStem: 58 77<427.1 650.7> 288 77<469.8 649.6> 521 77<52.4 274.7> 751 77<51.6 275.2>
Fore
210 349 m 0xbf
 109 349 58 431 58 544 c 0
 58 659 118 728 208 728 c 0
 304 728 365 658 365 540 c 0
 365 486 353 443 326 408 c 0
 299 369 261 349 210 349 c 0xbf
212 668 m 0
 159 668 135 624 135 535 c 0
 135 452 159 411 212 411 c 0
 262 411 288 454 288 543 c 0
 288 625 262 668 212 668 c 0
212 -26 m 1
 604 728 l 1
 674 728 l 1
 285 -26 l 1
 212 -26 l 1
673 -26 m 0
 577 -26 521 49 521 169 c 0
 521 288 589 353 671 353 c 0xdf
 773 353 828 272 828 162 c 0
 828 53 772 -26 673 -26 c 0
674 291 m 0
 624 291 598 248 598 159 c 0
 598 77 624 34 674 34 c 0
 725 34 751 78 751 166 c 0
 751 250 727 291 674 291 c 0
EndSplineSet
EndChar
StartChar: ampersand
Encoding: 38 38 7
Width: 666
VWidth: 2048
Flags: HW
HStem: -12 76<180 351.6> 656 72<266.7 364.2>
VStem: 43 95<98 272.2> 133 91<546.1 659.2> 388 90<519.7 640.6>
Fore
311 728 m 0xd8
 422 728 478 652 478 575 c 0
 478 507 432 449 342 402 c 1
 471 238 l 1
 486 267 497 299 504 337 c 1
 596 317 l 1
 581 254 559 204 533 162 c 1
 566 120 602 83 644 54 c 1
 586 -17 l 1
 550 6 513 40 475 84 c 1
 417 20 349 -12 270 -12 c 0
 111 -12 43 109 43 198 c 0xe8
 43 287 100 357 213 412 c 1
 159 474 133 526 133 569 c 0
 133 661 210 728 311 728 c 0xd8
307 656 m 0
 276 656 224 640 224 576 c 0xd8
 224 553 235 529 258 503 c 2
 296 458 l 1
 357 494 388 532 388 573 c 0
 388 625 351 656 307 656 c 0
138 202 m 0xe8
 138 122 201 64 271 64 c 0
 333 64 382 95 420 155 c 1
 259 354 l 1
 178 305 138 256 138 202 c 0xe8
EndSplineSet
EndChar
StartChar: quotesingle
Encoding: 39 39 8
Width: 190
VWidth: 2048
Flags: W
VStem: 44 100<595 716>
Fore
66 463 m 1
 44 596 l 1
 44 716 l 1
 144 716 l 1
 144 596 l 1
 121 463 l 1
 66 463 l 1
EndSplineSet
EndChar
StartChar: parenleft
Encoding: 40 40 9
Width: 332
VWidth: 2048
Flags: W
HStem: 708 20G<235 297>
VStem: 61 91<56.2 457.9>
Fore
235 -210 m 1
 118 -64 61 92 61 259 c 0
 61 418 118 575 235 728 c 1
 297 728 l 1
 199 569 152 412 152 259 c 0
 152 103 199 -54 297 -210 c 1
 235 -210 l 1
EndSplineSet
EndChar
StartChar: parenright
Encoding: 41 41 10
Width: 332
VWidth: 2048
Flags: HW
HStem: 708 20G<61 124>
VStem: 207 90<56.2 465.7>
Fore
207 259 m 0
 207 461 147 580 61 728 c 1
 124 728 l 1
 239 575 297 418 297 259 c 0
 297 94 239 -64 124 -210 c 1
 61 -210 l 1
 158 -54 207 103 207 259 c 0
EndSplineSet
EndChar
StartChar: asterisk
Encoding: 42 42 11
Width: 387
VWidth: 2048
Flags: W
HStem: 423 305<158 258>
VStem: 158 69<662.511 728>
Fore
32 584 m 1
 54 655 l 1
 106 636 144 621 167 607 c 1
 161 665 158 707 158 728 c 1
 227 728 l 1
 227 696 222 656 216 607 c 1
 250 624 288 639 331 655 c 1
 354 584 l 1
 313 572 273 563 233 558 c 1
 253 540 281 509 317 464 c 1
 258 423 l 1
 239 449 216 484 192 529 c 1
 167 483 146 448 127 423 c 1
 69 464 l 1
 107 512 135 543 152 558 c 1
 109 566 69 575 32 584 c 1
EndSplineSet
EndChar
StartChar: plus
Encoding: 43 43 12
Width: 583
VWidth: 2048
Flags: W
HStem: 313 81<55 251 334 529> 569 20G<251 334>
VStem: 251 83<116 313 394 589>
Fore
251 116 m 1
 251 313 l 1
 55 313 l 1
 55 394 l 1
 251 394 l 1
 251 589 l 1
 334 589 l 1
 334 394 l 1
 529 394 l 1
 529 313 l 1
 334 313 l 1
 334 116 l 1
 251 116 l 1
EndSplineSet
EndChar
StartChar: comma
Encoding: 44 44 13
Width: 277
VWidth: 2048
Flags: W
HStem: -20 20G<89 138>
VStem: 89 101<0 100> 138 52<-70.2 0>
Fore
89 0 m 1xc0
 89 100 l 1
 190 100 l 1
 190 0 l 2xc0
 190 -71 162 -118 107 -141 c 1
 83 -104 l 1
 118 -89 136 -54 138 0 c 1xa0
 89 0 l 1xc0
EndSplineSet
EndChar
StartChar: hyphen
Encoding: 45 45 14
AltUni: 8208
Width: 332
VWidth: 2048
Flags: W
HStem: 215 88<32 302>
Fore
32 215 m 1
 32 303 l 1
 302 303 l 1
 302 215 l 1
 32 215 l 1
EndSplineSet
EndChar
StartChar: period
Encoding: 46 46 15
Width: 277
VWidth: 2048
Flags: W
HStem: 0 100<90 192>
Fore
90 0 m 1
 90 100 l 1
 192 100 l 1
 192 0 l 1
 90 0 l 1
EndSplineSet
EndChar
StartChar: slash
Encoding: 47 47 16
Width: 277
VWidth: 2048
Flags: W
HStem: -12 21G<0 71> 708 20G<207 277>
VStem: 0 277<-12 728>
Fore
0 -12 m 1
 207 728 l 1
 277 728 l 1
 71 -12 l 1
 0 -12 l 1
EndSplineSet
EndChar
StartChar: zero
Encoding: 48 48 17
Width: 556
VWidth: 2048
Flags: W
HStem: -12 72<149.9 399.5> 647 72<150.5 400.1>
VStem: 41 91<99.5 607.8> 418 91<99.5 607.8>
Fore
41 353 m 0
 41 598 120 719 276 719 c 0
 431 719 509 598 509 353 c 0
 509 110 431 -12 276 -12 c 0
 120 -12 41 110 41 353 c 0
132 353 m 0
 132 158 179 60 276 60 c 0
 371 60 418 158 418 353 c 0
 418 549 371 647 274 647 c 0
 179 647 132 549 132 353 c 0
EndSplineSet
EndChar
StartChar: one
Encoding: 49 49 18
Width: 556
VWidth: 2048
Flags: W
HStem: 0 21G<285 372> 699 20G<316 372>
VStem: 285 87<0 561>
Fore
372 0 m 1
 285 0 l 1
 285 561 l 1
 238 515 179 480 109 454 c 1
 109 540 l 1
 212 587 281 647 316 719 c 1
 372 719 l 1
 372 0 l 1
EndSplineSet
EndChar
StartChar: two
Encoding: 50 50 19
Width: 556
VWidth: 2048
Flags: HW
HStem: 0 84<150 501> 647 72<162.902 373.114>
VStem: 411 90<447.252 620.268>
Fore
501 520 m 0
 501 330.327 228.402 212.803 150 84 c 1
 501 84 l 1
 501 0 l 1
 28 0 l 1
 28 145.278 247.063 284.537 307 348 c 0
 360.617 400.085 411 464.733 411 523 c 0
 411 597.822 350.703 647 276 647 c 0
 189.001 647 135 592.889 135 503 c 1
 44 512 l 1
 57 650 135 719 277 719 c 0
 407.718 719 501 642.635 501 520 c 0
EndSplineSet
EndChar
StartChar: three
Encoding: 51 51 20
Width: 556
VWidth: 2048
Flags: HW
HStem: -12 72<173.8 385.7> 349 66<240.499 345.8> 647 72<173.1 352.5>
VStem: 41 89<141.199 190.257> 385 92<445.9 627.3> 417 93<100.8 317.9>
Fore
510 212 m 0xf4
 510 68 399 -12 270 -12 c 0
 130 -12 55 74 41 190 c 1
 130 201 l 1
 149 107 196 60 270 60 c 0
 359 60 417 126 417 210 c 0xf4
 417 293 361 349 277 349 c 0
 261 349 241 345 216 339 c 1
 225 415 l 1
 247 415 l 2
 323 415 385 461 385 535 c 0
 385 606 333 647 268 647 c 0
 195 647 152 604 138 518 c 1
 51 533 l 1
 74 658 146 719 267 719 c 0
 394 719 477 641 477 533 c 0xf8
 477 466 443 418 377 388 c 1
 466 368 510 308 510 212 c 0xf4
EndSplineSet
EndChar
StartChar: four
Encoding: 52 52 21
Width: 556
VWidth: 2048
Flags: W
HStem: 0 21G<323 412> 172 81<100 323 412 509> 696 20G<340 412>
VStem: 323 89<0 172 253 575>
Fore
323 0 m 1
 323 172 l 1
 12 172 l 1
 12 253 l 1
 340 716 l 1
 412 716 l 1
 412 253 l 1
 509 253 l 1
 509 172 l 1
 412 172 l 1
 412 0 l 1
 323 0 l 1
323 253 m 1
 323 575 l 1
 100 253 l 1
 323 253 l 1
EndSplineSet
EndChar
StartChar: five
Encoding: 53 53 22
Width: 556
VWidth: 2048
Flags: HW
HStem: -12 72<169.6 380.2> 397 78<233.2 428.6> 622 85<196 483>
VStem: 423 94<93.3 323.4>
Fore
423 235 m 0
 423 303 392 397 270 397 c 0
 213 397 170 374 139 328 c 1
 57 339 l 1
 127 707 l 1
 483 707 l 1
 483 622 l 1
 196 622 l 1
 159 429 l 1
 202 460 247 475 293 475 c 0
 434 475 517 374 517 242 c 0
 517 100 423 -12 271 -12 c 0
 143 -12 55 62 41 189 c 1
 133 195 l 1
 147 106 193 60 271 60 c 0
 355 60 423 126 423 235 c 0
EndSplineSet
EndChar
StartChar: six
Encoding: 54 54 23
Width: 556
VWidth: 2048
Flags: W
HStem: -12 72<170.6 394.2> 386 78<202.8 360> 647 72<133.3 373.8>
VStem: 37 89<336 564> 420 90<103.5 390.8>
Fore
510 233 m 0
 510 88 422 -12 287 -12 c 0
 121 -12 37 104 37 336 c 0
 37 592 123 719 294 719 c 0
 457 719 489 598 498 541 c 1
 411 535 l 1
 394 609 354 647 288 647 c 0
 169 647 126 519 126 369 c 1
 167 434 225 464 299 464 c 0
 426 464 510 364 510 233 c 0
282 386 m 0
 167 386 138 286 138 231 c 0
 138 134 197 60 285 60 c 0
 369 60 420 132 420 227 c 0
 420 353 342 386 282 386 c 0
EndSplineSet
EndChar
StartChar: seven
Encoding: 55 55 24
Width: 556
VWidth: 2048
Flags: W
HStem: 0 21G<147 238> 622 85<48 399>
VStem: 147 91<0 114.243>
Fore
48 622 m 1
 48 707 l 1
 510 707 l 1
 510 639 l 1
 435 558 372 458 322 343 c 0
 273 227 245 112 238 0 c 1
 147 0 l 1
 150 106 175 216 222 331 c 0
 268 443 326 541 399 622 c 1
 48 622 l 1
EndSplineSet
EndChar
StartChar: eight
Encoding: 56 56 25
Width: 556
VWidth: 2048
Flags: HW
HStem: -12 72<178.2 390.1> 351 71<186 366.7> 647 72<209.7 357.9>
VStem: 40 90<82.2 304.5> 69 90<447 636.8> 392 91<445.9 584> 423 89<94.8 318.4>
Fore
276 -12 m 0xe2
 138 -12 40 76 40 207 c 0xf2
 40 303 86 365 176 388 c 1
 106 415 69 463 69 535 c 0
 69 627 136 719 276 719 c 0
 356 719 415 691 454 633 c 0
 474 605 483 572 483 532 c 0xec
 483 463 448 415 379 388 c 1
 468 359 512 297 512 205 c 0
 512 69 407 -12 276 -12 c 0xe2
276 647 m 0
 225 647 159 614 159 538 c 0
 159 468 207 422 277 422 c 0
 346 422 392 466 392 533 c 0xec
 392 605 339 647 276 647 c 0
274 351 m 0
 187 351 130 282 130 207 c 0
 130 111 201 60 277 60 c 0
 364 60 423 120 423 204 c 0xf2
 423 292 358 351 274 351 c 0
EndSplineSet
EndChar
StartChar: nine
Encoding: 57 57 26
Width: 556
VWidth: 2048
Flags: HW
HStem: -12 72<172.2 438.7> 242 78<177.2 350.2> 647 72<166.5 388.8>
VStem: 41 91<345 601.1> 425 87<214.6 337>
Fore
254 242 m 0
 129 242 41 341 41 478 c 0
 41 614 123 719 267 719 c 0
 416 719 512 628 512 372 c 0
 512 116 428 -12 256 -12 c 0
 144 -12 69 53 55 166 c 1
 139 173 l 1
 153 98 192 60 258 60 c 0
 397 60 425 232 425 290 c 2
 425 337 l 1
 385 274 328 242 254 242 c 0
276 320 m 0
 365 320 415 392 415 481 c 0
 415 572 363 647 277 647 c 0
 192 647 132 572 132 475 c 0
 132 375 200 320 276 320 c 0
EndSplineSet
EndChar
StartChar: colon
Encoding: 58 58 27
Width: 277
VWidth: 2048
Flags: W
HStem: 0 100<90 192> 418 100<90 192>
VStem: 90 102<0 100 418 518>
Fore
90 418 m 1
 90 518 l 1
 192 518 l 1
 192 418 l 1
 90 418 l 1
90 0 m 1
 90 100 l 1
 192 100 l 1
 192 0 l 1
 90 0 l 1
EndSplineSet
EndChar
StartChar: semicolon
Encoding: 59 59 28
Width: 277
VWidth: 2048
Flags: W
HStem: -20 20G<89 138> 418 100<89 190>
VStem: 89 101<0 100 418 518> 138 52<-70.2 0>
Fore
89 418 m 1xe0
 89 518 l 1
 190 518 l 1
 190 418 l 1
 89 418 l 1xe0
89 0 m 1
 89 100 l 1
 190 100 l 1
 190 0 l 2xe0
 190 -71 162 -118 107 -141 c 1
 83 -104 l 1
 118 -89 136 -54 138 0 c 1xd0
 89 0 l 1
EndSplineSet
EndChar
StartChar: less
Encoding: 60 60 29
Width: 583
VWidth: 2048
Flags: W
HStem: 110 486<529 529>
VStem: 55 474<313 596>
Fore
55 313 m 1
 55 395 l 1
 529 596 l 1
 529 509 l 1
 153 354 l 1
 529 198 l 1
 529 110 l 1
 55 313 l 1
EndSplineSet
EndChar
StartChar: equal
Encoding: 61 61 30
Width: 583
VWidth: 2048
Flags: W
HStem: 204 83<55 529> 422 81<55 529>
Fore
529 422 m 1
 55 422 l 1
 55 503 l 1
 529 503 l 1
 529 422 l 1
529 204 m 1
 55 204 l 1
 55 287 l 1
 529 287 l 1
 529 204 l 1
EndSplineSet
EndChar
StartChar: greater
Encoding: 62 62 31
Width: 583
VWidth: 2048
Flags: W
HStem: 110 486<55 55>
VStem: 55 474<110 313>
Fore
529 313 m 1
 55 110 l 1
 55 198 l 1
 431 354 l 1
 55 509 l 1
 55 596 l 1
 529 395 l 1
 529 313 l 1
EndSplineSet
EndChar
StartChar: question
Encoding: 63 63 32
Width: 556
VWidth: 2048
Flags: W
HStem: 0 100<225 325> 656 72<174.3 376.317>
VStem: 225 100<0 100> 230 86<176 254> 415 91<437.3 628.66>
Fore
415 527 m 0xd8
 415 605.2 353.398 656 277 656 c 0
 198 656 150 609 135 510 c 1
 44 521 l 1
 61 659 138 728 276 728 c 0
 402 728 506 660 506 533 c 0
 506 436.37 395.484 369.306 353 308 c 0
 330 279 317 236 316 176 c 1
 230 176 l 1
 230 207 l 2
 226.402 269.962 259.496 327.715 279 349 c 0
 311.888 384.891 415 458 415 527 c 0xd8
225 0 m 1xe8
 225 100 l 1
 325 100 l 1
 325 0 l 1
 225 0 l 1xe8
EndSplineSet
EndChar
StartChar: at
Encoding: 64 64 33
Width: 1014
VWidth: 2048
Flags: W
HStem: -210 72<441.7 756.3> -2 73<354.4 487.2> -2 82<662 740.8> 457 73<433.7 574.6> 658 72<346.9 691.4>
VStem: 54 73<103.2 415.2> 241 90<143.9 283.5> 613 48<112 317> 883 73<247.6 498.8>
Fore
979 9 m 1xbf80
 917 -128 741 -210 549 -210 c 0
 346 -210 204 -146 120 -15 c 0
 75 51 54 132 54 228 c 0
 54 372 101 495 193 595 c 0
 277 685 391 730 538 730 c 0
 656 730 754 696 832 628 c 0
 915 558 956 464 956 348 c 0
 956 264 927 187 872 115 c 0
 814 37 743 -2 662 -2 c 0
 601 -2 569 25 567 80 c 1xbf80
 521 26 471 -2 417 -2 c 0xdf80
 362 -2 317 21 285 69 c 0
 254 110 241 161 241 218 c 0
 241 381 367 530 494 530 c 0
 556 530 605 500 641 440 c 1
 658 515 l 1
 745 515 l 1
 674 189 l 2
 665 144 661 118 661 112 c 0
 661 90 671 80 694 80 c 0
 730 80 769 104 814 155 c 0
 860 205 883 271 883 349 c 0
 883 537 737 658 535 658 c 0
 287 658 127 471 127 238 c 0
 127 72 193 -38 326 -95 c 0
 392 -124 466 -138 547 -138 c 0
 708 -138 823 -89 892 9 c 1
 979 9 l 1xbf80
613 317 m 0
 613 402 568 457 500 457 c 0
 449 457 406 428 374 369 c 0
 345 319 331 267 331 212 c 0
 331 132 373 71 435 71 c 0xdf80
 542 71 613 200 613 317 c 0
EndSplineSet
EndChar
StartChar: A
Encoding: 65 65 34
Width: 666
VWidth: 2048
Flags: W
HStem: 0 21G<-2 100 561 670> 218 76<205 448> 696 20G<274 376>
Fore
-2 0 m 1
 274 716 l 1
 376 716 l 1
 670 0 l 1
 561 0 l 1
 478 218 l 1
 178 218 l 1
 100 0 l 1
 -2 0 l 1
205 294 m 1
 448 294 l 1
 374 492 l 2
 349 558 333 607 322 641 c 1
 314 596 300 550 284 504 c 2
 205 294 l 1
EndSplineSet
EndChar
StartChar: B
Encoding: 66 66 35
Width: 666
VWidth: 2048
Flags: HW
HStem: 0 84<169 513.765> 331 84<169 487.352> 632 84<169 449.937>
VStem: 74 95<84 331 415 632> 486 93<443.3 648.881> 515 100<111.06 303.72>
Fore
342 716 m 2xf4
 444.806 716 579 679.4 579 533 c 0xf8
 579 464 546 414 478 382 c 1
 569 354 615 297 615 207 c 0
 615 69 526 0 346 0 c 2
 74 0 l 1
 74 716 l 1
 342 716 l 2xf4
323 415 m 2
 449.425 415 486 457.4 486 521 c 0
 486 619.37 417.874 632.876 311 632 c 2
 169 632 l 1
 169 415 l 1
 323 415 l 2
515 207 m 0xf4
 515 281.4 479.866 331 334 331 c 2
 169 331 l 1
 169 84 l 1
 346 84 l 2
 475.05 84 515 133.2 515 207 c 0xf4
EndSplineSet
EndChar
StartChar: C
Encoding: 67 67 36
Width: 721
VWidth: 2048
Flags: W
HStem: -12 81<170.962 525.9> 647 81<177.937 509.5>
VStem: 51 96<139.124 588.413>
Fore
147 363 m 0
 147 190.788 218.971 69 379 69 c 0
 492 69 563 130 589 251 c 1
 684 227 l 1
 642 67 543 -12 386 -12 c 0
 169.557 -12 51 130.627 51 363 c 0
 51 589.963 176.234 728 388 728 c 0
 536 728 630 659 671 520 c 1
 578 498 l 1
 546 598 481 647 386 647 c 0
 225.952 647 147 536.394 147 363 c 0
EndSplineSet
EndChar
StartChar: D
Encoding: 68 68 37
Width: 721
VWidth: 2048
Flags: HW
HStem: 0 84<172 572> 632 84<172 563.8>
VStem: 77 95<84 632> 572 98<130.3 598.3>
Fore
77 0 m 1
 77 716 l 1
 323 716 l 2
 570 716 670 594 670 362 c 0
 670 121 558 0 336 0 c 2
 77 0 l 1
172 84 m 1
 325 84 l 2
 515 84 572 184 572 363 c 0
 572 544 508 632 322 632 c 2
 172 632 l 1
 172 84 l 1
EndSplineSet
EndChar
StartChar: E
Encoding: 69 69 38
Width: 666
VWidth: 2048
Flags: W
HStem: 0 84<173 613> 328 84<173 570> 632 84<173 598>
VStem: 80 93<84 328 412 632>
Fore
80 0 m 1
 80 716 l 1
 598 716 l 1
 598 632 l 1
 173 632 l 1
 173 412 l 1
 570 412 l 1
 570 328 l 1
 173 328 l 1
 173 84 l 1
 613 84 l 1
 613 0 l 1
 80 0 l 1
EndSplineSet
EndChar
StartChar: F
Encoding: 70 70 39
Width: 610
VWidth: 2048
Flags: W
HStem: 0 21G<83 176> 325 86<176 512> 632 84<176 566>
VStem: 83 93<0 325 411 632>
Fore
83 0 m 1
 83 716 l 1
 566 716 l 1
 566 632 l 1
 176 632 l 1
 176 411 l 1
 512 411 l 1
 512 325 l 1
 176 325 l 1
 176 0 l 1
 83 0 l 1
EndSplineSet
EndChar
StartChar: G
Encoding: 71 71 40
Width: 777
VWidth: 2048
Flags: HW
HStem: -12 86<268.5 521.9> 281 84<412 622> 647 81<265.1 553.7>
VStem: 54 98<212.3 502.2> 622 94<147 281>
Fore
152 360 m 0
 152 180 243 74 414 74 c 0
 497 74 567 98 622 147 c 1
 622 281 l 1
 412 281 l 1
 412 365 l 1
 716 365 l 1
 716 100 l 1
 622 25 523 -12 418 -12 c 0
 303 -12 215 20 153 86 c 0
 86 155 54 245 54 354 c 0
 54 468 84 558 147 625 c 0
 212 694 299 728 412 728 c 0
 573 728 671 658 705 515 c 1
 619 492 l 1
 590 596 521 647 412 647 c 0
 290 647 152 590 152 360 c 0
EndSplineSet
EndChar
StartChar: H
Encoding: 72 72 41
Width: 721
VWidth: 2048
Flags: W
HStem: 0 21G<80 175 547 642> 337 85<175 547> 696 20G<80 175 547 642>
VStem: 80 95<0 337 422 716> 547 95<0 337 422 716>
Fore
80 0 m 1
 80 716 l 1
 175 716 l 1
 175 422 l 1
 547 422 l 1
 547 716 l 1
 642 716 l 1
 642 0 l 1
 547 0 l 1
 547 337 l 1
 175 337 l 1
 175 0 l 1
 80 0 l 1
EndSplineSet
EndChar
StartChar: I
Encoding: 73 73 42
Width: 277
VWidth: 2048
Flags: W
HStem: 0 21G<94 189> 696 20G<94 189>
VStem: 94 95<0 716>
Fore
94 0 m 1
 94 716 l 1
 189 716 l 1
 189 0 l 1
 94 0 l 1
EndSplineSet
EndChar
StartChar: J
Encoding: 74 74 43
Width: 499
VWidth: 2048
Flags: HW
HStem: -12 84<131.9 347.7> 696 20G<325 420>
VStem: 28 84<122.375 215> 325 95<113.5 716>
Fore
219 72 m 0
 318 72 325 139 325 224 c 2
 325 716 l 1
 420 716 l 1
 420 228 l 2
 420 67 354 -12 219 -12 c 0
 87 -12 25 60 28 204 c 1
 112 215 l 1
 116 120 152 72 219 72 c 0
EndSplineSet
EndChar
StartChar: K
Encoding: 75 75 44
Width: 666
VWidth: 2048
Flags: MW
HStem: 0 21G<74 169 541 665> 696 20G<74 169 524 651>
VStem: 74 95<0 248 360 716>
Fore
74 0 m 1
 74 716 l 1
 169 716 l 1
 169 360 l 1
 524 716 l 1
 651 716 l 1
 351 426 l 1
 665 0 l 1
 541 0 l 1
 285 362 l 1
 169 248 l 1
 169 0 l 1
 74 0 l 1
EndSplineSet
EndChar
StartChar: L
Encoding: 76 76 45
Width: 556
VWidth: 2048
Flags: W
HStem: 0 84<169 521> 696 20G<74 169>
VStem: 74 95<84 716>
Fore
74 0 m 1
 74 716 l 1
 169 716 l 1
 169 84 l 1
 521 84 l 1
 521 0 l 1
 74 0 l 1
EndSplineSet
EndChar
StartChar: M
Encoding: 77 77 46
Width: 832
VWidth: 2048
Flags: HMW
HStem: 0 21G<74 166 372 458 667 757> 696 20G<74 218 630 757>
VStem: 74 92<0 610> 667 90<0 599>
Fore
74 0 m 1
 74 716 l 1
 218 716 l 1
 420 103 l 1
 630 716 l 1
 757 716 l 1
 757 0 l 1
 667 0 l 1
 667 599 l 1
 458 0 l 1
 372 0 l 1
 166 610 l 1
 166 0 l 1
 74 0 l 1
EndSplineSet
EndChar
StartChar: N
Encoding: 78 78 47
Width: 721
VWidth: 2048
Flags: MW
HStem: 0 21G<77 167 543 641> 696 20G<77 173 549 641>
VStem: 77 90<0 563> 549 92<155 716>
Fore
77 0 m 1
 77 716 l 1
 173 716 l 1
 549 155 l 1
 549 716 l 1
 641 716 l 1
 641 0 l 1
 543 0 l 1
 167 563 l 1
 167 0 l 1
 77 0 l 1
EndSplineSet
EndChar
StartChar: O
Encoding: 79 79 48
Width: 777
VWidth: 2048
Flags: W
HStem: -12 81<189.5 561.3> 647 83<135.9 528.5>
VStem: 49 97<142.6 531.3> 636 98<143.8 656>
Fore
391 -12 m 0
 182 -12 49 146 49 349 c 0
 49 570 167 730 391 730 c 0
 566 730 734 609 734 357 c 0
 734 62 522 -12 391 -12 c 0
392 647 m 0
 195 647 146 489 146 348 c 0
 146 190 236 69 391 69 c 0
 548 69 636 193 636 357 c 0
 636 587 497 647 392 647 c 0
EndSplineSet
EndChar
StartChar: P
Encoding: 80 80 49
Width: 666
VWidth: 2048
Flags: HW
HStem: 0 21G<77 172> 291 85<172 502.6> 632 84<172 497.7>
VStem: 77 95<0 291 376 632> 526 98<391.6 637.3>
Fore
77 0 m 1
 77 716 l 1
 348 716 l 2
 522 716 624 661 624 509 c 0
 624 363 535 291 356 291 c 2
 172 291 l 1
 172 0 l 1
 77 0 l 1
526 506 m 0
 526 607 465 632 356 632 c 2
 172 632 l 1
 172 376 l 1
 357 376 l 2
 469 376 526 418 526 506 c 0
EndSplineSet
EndChar
StartChar: Q
Encoding: 81 81 50
Width: 777
VWidth: 2048
Flags: HW
HStem: -12 81<180.6 436.529> 647 83<185.8 590.1>
VStem: 43 98<134.1 594.3> 630 98<225.1 580>
Fore
43 359 m 0
 43 583 174 730 386 730 c 0
 600 730 728 589 728 359 c 0
 728 241 691 146 619 77 c 1
 664 46 705 25 742 11 c 1
 714 -55 l 1
 662 -37 612 -8 559 32 c 1
 507 3 448 -12 383 -12 c 0
 180 -12 43 134 43 359 c 0
141 359 m 0
 141 186 228 69 386 69 c 0
 420 69 452 75 481 89 c 1
 452 107 422 121 388 129 c 1
 412 198 l 1
 466 182 510 159 546 129 c 1
 602 181 630 256 630 359 c 0
 630 529 543 647 386 647 c 0
 232 647 141 540 141 359 c 0
EndSplineSet
EndChar
StartChar: R
Encoding: 82 82 51
Width: 721
VWidth: 2048
Flags: HMW
HStem: 0 21G<78 173 590 710> 319 81<173 428.3> 638 78<173 533.9>
VStem: 78 95<0 319 400 638> 553 98<415.7 621.1>
Fore
78 0 m 1
 78 716 l 1
 395 716 l 2
 569 716 651 673 651 521 c 0
 651 409 584 343 449 325 c 1
 498 305 543 261 586 195 c 2
 710 0 l 1
 590 0 l 1
 497 149 l 2
 437 235 395 319 284 319 c 2
 173 319 l 1
 173 0 l 1
 78 0 l 1
173 400 m 1
 377 400 l 2
 495 400 553 440 553 521 c 0
 553 598 503 638 400 638 c 2
 173 638 l 1
 173 400 l 1
EndSplineSet
EndChar
StartChar: S
Encoding: 83 83 52
Width: 666
VWidth: 2048
Flags: W
HStem: -12 84<180.9 436.374> 645 83<186.3 467.1>
VStem: 44 91<172.87 232.514> 72 92<448.3 630.3> 524 91<67.08 301.572>
Fore
615 202 m 0xd8
 615 68.2611 500.758 -12 351 -12 c 0
 168.598 -12 53.7475 68.1908 44 230 c 1
 135 238 l 1xe8
 149 127 219 72 346 72 c 0
 415.518 72 524 96.6 524 195 c 0
 524 276.979 456.608 298.841 305 331 c 0
 150.686 369.196 72 422.568 72 532 c 0
 72 662.74 185.034 728 323 728 c 0
 479.564 728 587.143 657.46 593 513 c 1
 503 507 l 1
 494 599 435 645 328 645 c 0
 219 645 164 609 164 538 c 0
 164 469 221.625 445.986 334 423 c 0
 432.567 399.208 615 372.125 615 202 c 0xd8
EndSplineSet
EndChar
StartChar: T
Encoding: 84 84 53
Width: 610
VWidth: 2048
Flags: W
HStem: 0 21G<259 354> 632 84<23 259 354 592>
VStem: 259 95<0 632>
Fore
259 0 m 1
 259 632 l 1
 23 632 l 1
 23 716 l 1
 592 716 l 1
 592 632 l 1
 354 632 l 1
 354 0 l 1
 259 0 l 1
EndSplineSet
EndChar
StartChar: U
Encoding: 85 85 54
Width: 721
VWidth: 2048
Flags: W
HStem: -12 86<173.3 580.2> 696 20G<78 173 547 642>
VStem: 78 95<109.3 716> 547 95<137.9 716>
Fore
354 74 m 0
 528 74 547 176 547 303 c 2
 547 716 l 1
 642 716 l 1
 642 302 l 2
 642 85 558 -12 362 -12 c 0
 156 -12 78 85 78 302 c 2
 78 716 l 1
 173 716 l 1
 173 303 l 2
 173 154 215 74 354 74 c 0
EndSplineSet
EndChar
StartChar: V
Encoding: 86 86 55
Width: 666
VWidth: 2048
Flags: MW
HStem: 0 21G<282 380> 696 20G<5 107 563 659>
Fore
282 0 m 1
 5 716 l 1
 107 716 l 1
 331 96 l 1
 563 716 l 1
 659 716 l 1
 380 0 l 1
 282 0 l 1
EndSplineSet
EndChar
StartChar: W
Encoding: 87 87 56
Width: 944
VWidth: 2048
Flags: MW
HStem: 0 21G<202 299 645 736> 696 20G<12 109 417 532 838 933>
Fore
202 0 m 1
 12 716 l 1
 109 716 l 1
 250 132 l 1
 417 716 l 1
 532 716 l 1
 690 132 l 1
 838 716 l 1
 933 716 l 1
 736 0 l 1
 645 0 l 1
 472 630 l 1
 299 0 l 1
 202 0 l 1
EndSplineSet
EndChar
StartChar: X
Encoding: 88 88 57
Width: 666
VWidth: 2048
Flags: HMW
HStem: 0 21G<5 118 544 661> 696 20G<37 150 538 641>
Fore
5 0 m 1
 282 374 l 1
 37 716 l 1
 150 716 l 1
 337 449 l 1
 337 449 476 632 538 716 c 1
 641 716 l 1
 389 379 l 1
 661 0 l 1
 544 0 l 1
 333 298 l 1
 118 0 l 1
 5 0 l 1
EndSplineSet
EndChar
StartChar: Y
Encoding: 89 89 58
Width: 666
VWidth: 2048
Flags: HMW
HStem: 0 21G<279 374> 696 20G<3 118 549 659>
VStem: 279 95<0 303>
Fore
279 0 m 1
 279 303 l 1
 3 716 l 1
 118 716 l 1
 333 389 l 1
 549 716 l 1
 659 716 l 1
 374 303 l 1
 374 0 l 1
 279 0 l 1
EndSplineSet
EndChar
StartChar: Z
Encoding: 90 90 59
Width: 610
VWidth: 2048
Flags: HMW
HStem: 0 84<129 586> 632 84<61 461>
Fore
20 0 m 1
 20 89 l 1
 455 632 l 1
 61 632 l 1
 61 716 l 1
 575 716 l 1
 575 632 l 1
 129 84 l 1
 586 84 l 1
 586 0 l 1
 20 0 l 1
EndSplineSet
EndChar
StartChar: bracketleft
Encoding: 91 91 60
Width: 277
VWidth: 2048
Flags: W
HStem: -199 73<156 262> 644 72<156 262>
VStem: 67 89<-126 644> 67 195<-199 -126 644 716>
Fore
67 -199 m 1xd0
 67 716 l 1
 262 716 l 1
 262 644 l 1xd0
 156 644 l 1
 156 -126 l 1xe0
 262 -126 l 1
 262 -199 l 1
 67 -199 l 1xd0
EndSplineSet
EndChar
StartChar: backslash
Encoding: 92 92 61
Width: 277
VWidth: 2048
Flags: W
HStem: -12 21G<207 277> 708 20G<0 71>
VStem: 0 277<-12 728>
Fore
207 -12 m 1
 0 728 l 1
 71 728 l 1
 277 -12 l 1
 207 -12 l 1
EndSplineSet
EndChar
StartChar: bracketright
Encoding: 93 93 62
Width: 277
VWidth: 2048
Flags: W
HStem: -199 73<18 126> 644 72<18 126>
VStem: 18 195<-199 -126 644 716> 126 87<-126 644>
Fore
213 -199 m 1xe0
 18 -199 l 1
 18 -126 l 1xe0
 126 -126 l 1
 126 644 l 1xd0
 18 644 l 1
 18 716 l 1
 213 716 l 1
 213 -199 l 1xe0
EndSplineSet
EndChar
StartChar: asciicircum
Encoding: 94 94 63
Width: 469
VWidth: 2048
Flags: W
HStem: 337 391<116 199>
VStem: 26 417<337 337>
Fore
116 337 m 1
 26 337 l 1
 199 728 l 1
 270 728 l 1
 443 337 l 1
 354 337 l 1
 235 628 l 1
 116 337 l 1
EndSplineSet
EndChar
StartChar: underscore
Encoding: 95 95 64
Width: 556
VWidth: 2048
Flags: W
HStem: -199 64<-15 569>
Fore
-15 -199 m 1
 -15 -135 l 1
 569 -135 l 1
 569 -199 l 1
 -15 -199 l 1
EndSplineSet
EndChar
StartChar: grave
Encoding: 96 96 65
Width: 332
VWidth: 2048
Flags: W
HStem: 582 138<43 227>
Fore
227 582 m 1
 156 582 l 1
 43 720 l 1
 161 720 l 1
 227 582 l 1
EndSplineSet
EndChar
StartChar: a
Encoding: 97 97 66
Width: 556
VWidth: 2048
Flags: W
HStem: -12 69<145.3 301.4> 458 72<157.3 380.9>
VStem: 35 95<67.5 208.8> 397 89<116.2 261 330 423>
Fore
273 458 m 0
 184 458 156 427 136 359 c 1
 52 371 l 1
 74 477 152 530 285 530 c 0
 424 530 486 494 486 334 c 2
 486 106 l 2
 486 69 495 34 513 0 c 1
 422 0 l 1
 414 18 408 40 405 64 c 1
 345 14 281 -12 213 -12 c 0
 113 -12 35 41 35 136 c 0
 35 192 61 235 110 264 c 0
 169 302 299 296 397 330 c 1
 397 353 l 2
 397 423 356 458 273 458 c 0
235 57 m 0
 365 57 397 142 397 228 c 2
 397 261 l 1
 299 220 130 238 130 139 c 0
 130 84 166 57 235 57 c 0
EndSplineSet
EndChar
StartChar: b
Encoding: 98 98 67
Width: 556
VWidth: 2048
Flags: HW
HStem: -12 73<212.5 432.2> 458 72<220.6 421.9> 696 20G<64 153>
VStem: 64 89<461 716> 64 83<0 405.7> 426 89<164.1 392.9>
Fore
515 267 m 0xf4
 515 108 434 -12 291 -12 c 0
 230 -12 181 14 147 64 c 1
 147 0 l 1
 64 0 l 1xec
 64 716 l 1
 153 716 l 1
 153 461 l 1
 190 507 238 530 296 530 c 0
 431 530 515 427 515 267 c 0xf4
288 458 m 0
 196 458 146 373 146 264 c 0
 146 92 229 61 284 61 c 0
 398 61 426 186 426 259 c 0
 426 362 391 458 288 458 c 0
EndSplineSet
EndChar
StartChar: c
Encoding: 99 99 68
Width: 499
VWidth: 2048
Flags: HW
HStem: -12 73<149.2 371.5> 458 72<149 360.9>
VStem: 38 91<87.4 431.9>
Fore
38 258 m 0
 38 476 171 530 276 530 c 0
 392 530 461 477 483 366 c 1
 397 353 l 1
 382 423 342 458 279 458 c 0
 179 458 129 392 129 259 c 0
 129 127 178 61 274 61 c 0
 349 61 392 104 405 190 c 1
 490 179 l 1
 472 66 397 -12 276 -12 c 0
 122 -12 38 97 38 258 c 0
EndSplineSet
EndChar
StartChar: d
Encoding: 100 100 69
Width: 556
VWidth: 2048
Flags: HW
HStem: -12 73<190.9 341.2> 458 72<142.4 332> 696 20G<397 484>
VStem: 34 90<60.1 431.9> 397 87<460 716> 403 81<0 64 154.8 365.4>
Fore
258 -12 m 0xf4
 117 -12 34 106 34 259 c 0
 34 412 104 530 254 530 c 0
 314 530 362 507 397 460 c 1
 397 716 l 1
 484 716 l 1xf8
 484 0 l 1
 403 0 l 1
 403 64 l 1
 369 14 322 -12 258 -12 c 0xf4
405 251 m 0
 405 339 376 458 262 458 c 0
 170 458 124 392 124 259 c 0
 124 101 208 61 265 61 c 0
 377 61 405 177 405 251 c 0
EndSplineSet
EndChar
StartChar: e
Encoding: 101 101 70
Width: 556
VWidth: 2048
Flags: W
HStem: -12 73<156.3 370.8> 238 72<132 422> 458 72<165.3 391.5>
Fore
127 238 m 1
 133 134 186 61 285 61 c 0
 351 61 395 97 422 167 c 1
 512 156 l 1
 481 44 406 -12 284 -12 c 0
 128 -12 37 84 37 256 c 0
 37 420 123 530 279 530 c 0
 419 530 502 439 513 296 c 2
 513 238 l 1
 127 238 l 1
132 310 m 1
 422 310 l 1
 414 408 366 458 281 458 c 0
 192 458 138 393 132 310 c 1
EndSplineSet
EndChar
StartChar: f
Encoding: 102 102 71
Width: 277
VWidth: 2048
Flags: HW
HStem: 0 21G<87 175> 451 67<9 87 175 276> 648 80<172.08 292.684>
VStem: 87 88<0 451 518 643.229>
Fore
248 648 m 0
 189.6 648 175 625.638 175 567 c 2
 175 518 l 1
 276 518 l 1
 276 451 l 1
 175 451 l 1
 175 0 l 1
 87 0 l 1
 87 451 l 1
 9 451 l 1
 9 518 l 1
 87 518 l 1
 87 575 l 2
 87 663.225 115.6 728 230 728 c 0
 256 728 284 725 313 720 c 1
 299 642 l 1
 282 647 264 648 248 648 c 0
EndSplineSet
EndChar
StartChar: g
Encoding: 103 103 72
Width: 556
VWidth: 2048
Flags: HW
HStem: -210 72<160.4 324.2> 0 72<141.5 331.4> 458 72<140.5 337.9>
VStem: 32 91<99 404.5> 409 80<127.2 405.4 457 518>
Fore
489 71 m 2
 489 -106 442 -210 256 -210 c 0
 132 -210 47 -158 51 -43 c 1
 135 -55 l 1
 143 -110 182 -138 254 -138 c 0
 308 -138 346 -123 371 -94 c 0
 391 -67 400 -14 400 67 c 1
 362 23 314 0 256 0 c 0
 118 0 32 110 32 262 c 0
 32 418 113 530 256 530 c 0
 319 530 369 506 409 457 c 1
 409 518 l 1
 489 518 l 1
 489 71 l 2
264 458 m 0
 169 458 123 373 123 268 c 0
 123 138 170 72 265 72 c 0
 362 72 408 159 408 265 c 0
 408 373 358 458 264 458 c 0
EndSplineSet
EndChar
StartChar: h
Encoding: 104 104 73
Width: 556
VWidth: 2048
Flags: HW
HStem: 0 21G<66 155 400 489> 455 75<228.1 384.6> 696 20G<66 155>
VStem: 66 89<0 415.3 460 716> 400 89<0 437.2>
Fore
291 455 m 0
 182 455 155 385 155 284 c 2
 155 0 l 1
 66 0 l 1
 66 716 l 1
 155 716 l 1
 155 460 l 1
 195 507 247 530 310 530 c 0
 444 530 489 463 489 328 c 2
 489 0 l 1
 400 0 l 1
 400 328 l 2
 400 412 363 455 291 455 c 0
EndSplineSet
EndChar
StartChar: i
Encoding: 105 105 74
Width: 222
VWidth: 2048
Flags: W
HStem: 0 21G<66 155> 498 20G<66 155> 615 101<66 155>
VStem: 66 89<0 518 615 716>
Fore
66 615 m 1
 66 716 l 1
 155 716 l 1
 155 615 l 1
 66 615 l 1
66 0 m 1
 66 518 l 1
 155 518 l 1
 155 0 l 1
 66 0 l 1
EndSplineSet
EndChar
StartChar: j
Encoding: 106 106 75
Width: 222
VWidth: 2048
Flags: HW
HStem: -210 77<-19.0448 90> 498 20G<64 153> 615 101<64 153>
VStem: 64 89<-112.772 518 615 716>
Fore
64 615 m 1
 64 716 l 1
 153 716 l 1
 153 615 l 1
 64 615 l 1
153 -29 m 2
 153 -177 101 -210 23 -210 c 0
 0 -210 -23 -207 -46 -201 c 1
 -29 -127 l 1
 -12 -130 2 -133 12 -133 c 0
 72 -133 64 -72 64 -26 c 2
 64 518 l 1
 153 518 l 1
 153 -29 l 2
EndSplineSet
EndChar
StartChar: k
Encoding: 107 107 76
Width: 499
VWidth: 2048
Flags: MW
HStem: 0 21G<66 155 388 497> 498 20G<362 477> 696 20G<66 155>
VStem: 66 89<0 205 308 716>
Fore
66 0 m 1
 66 716 l 1
 155 716 l 1
 155 308 l 1
 362 518 l 1
 477 518 l 1
 277 326 l 1
 497 0 l 1
 388 0 l 1
 216 265 l 1
 155 205 l 1
 155 0 l 1
 66 0 l 1
EndSplineSet
EndChar
StartChar: l
Encoding: 108 108 77
Width: 222
VWidth: 2048
Flags: W
HStem: 0 21G<64 152> 696 20G<64 152>
VStem: 64 88<0 716>
Fore
64 0 m 1
 64 716 l 1
 152 716 l 1
 152 0 l 1
 64 0 l 1
EndSplineSet
EndChar
StartChar: m
Encoding: 109 109 78
Width: 832
VWidth: 2048
Flags: HW
HStem: 0 21G<66 155 374 463 682 769> 454 76<212.3 361.3 523.2 669.6>
VStem: 66 78<446 518> 66 89<0 401.3> 374 89<0 433.3> 682 87<0 437.8>
Fore
282 454 m 0xec
 175 454 155 371 155 270 c 2
 155 0 l 1
 66 0 l 1xdc
 66 518 l 1
 144 518 l 1
 144 446 l 1
 181 503 233 530 302 530 c 0
 379 530 426 500 448 440 c 1
 489 500 543 530 609 530 c 0
 716 530 769 472 769 356 c 2
 769 0 l 1
 682 0 l 1
 682 326 l 2
 682 412 651 454 589 454 c 0
 504 454 463 403 463 302 c 2
 463 0 l 1
 374 0 l 1
 374 337 l 2
 374 415 343 454 282 454 c 0xec
EndSplineSet
EndChar
StartChar: n
Encoding: 110 110 79
Width: 556
VWidth: 2048
Flags: W
HStem: 0 21G<66 155 400 487> 454 76<216.1 384.6>
VStem: 66 80<446 518> 66 89<0 397> 400 87<0 435.6>
Fore
66 0 m 1xd8
 66 518 l 1
 146 518 l 1
 146 446 l 1xe8
 182 503 238 530 311 530 c 0
 428 530 487 468 487 342 c 2
 487 0 l 1
 400 0 l 1
 400 316 l 2
 400 408 363 454 291 454 c 0
 201 454 155 397 155 284 c 2
 155 0 l 1
 66 0 l 1xd8
EndSplineSet
EndChar
StartChar: o
Encoding: 111 111 80
Width: 556
VWidth: 2048
Flags: W
HStem: -12 73<196.7 434.6> 458 72<143.4 409.9>
VStem: 32 92<114.7 409.8> 429 91<146.3 406.3>
Fore
276 -12 m 0
 81 -12 32 148 32 259 c 0
 32 419 120 530 276 530 c 0
 431 530 520 419 520 267 c 0
 520 99 434 -12 276 -12 c 0
276 458 m 0
 174 458 124 375 124 259 c 0
 124 93 215 61 276 61 c 0
 398 61 429 173 429 262 c 0
 429 373 379 458 276 458 c 0
EndSplineSet
EndChar
StartChar: p
Encoding: 112 112 81
Width: 556
VWidth: 2048
Flags: HW
HStem: -12 73<218.5 409.8> 461 69<216.7 408.9>
VStem: 66 80<126 414.6 451 518> 66 89<-199 54> 426 91<111.9 408.3>
Fore
517 264 m 0xe8
 517 110 433 -12 290 -12 c 0
 235 -12 189 11 155 54 c 1
 155 -199 l 1
 66 -199 l 1xd8
 66 518 l 1
 146 518 l 1
 146 451 l 1
 184 504 235 530 296 530 c 0
 439 530 517 419 517 264 c 0xe8
288 461 m 0
 203 461 146 378 146 256 c 0xe8
 146 156 181 61 285 61 c 0
 381 61 426 147 426 264 c 0
 426 375 381 461 288 461 c 0
EndSplineSet
EndChar
StartChar: q
Encoding: 113 113 82
Width: 556
VWidth: 2048
Flags: W
HStem: -12 73<193.9 336.4> 461 69<138.5 338.5>
VStem: 35 91<65.1 400.1> 397 87<-199 55> 406 78<152.9 397.3 449 518>
Fore
35 264 m 0xf0
 35 418 111 530 254 530 c 0
 319 530 369 504 406 449 c 1
 406 518 l 1
 484 518 l 1xe8
 484 -199 l 1
 397 -199 l 1
 397 55 l 1
 365 11 319 -12 261 -12 c 0
 120 -12 35 111 35 264 c 0xf0
262 461 m 0
 167 461 126 368 126 261 c 0
 126 98 211 61 268 61 c 0
 378 61 406 176 406 253 c 0
 406 364 359 461 262 461 c 0
EndSplineSet
EndChar
StartChar: r
Encoding: 114 114 83
Width: 332
VWidth: 2048
Flags: HW
HStem: 0 21G<64 153> 440 90<202.7 285.432>
VStem: 64 80<440 518> 64 89<0 319.013>
Fore
64 0 m 1xd0
 64 518 l 1
 144 518 l 1
 144 440 l 1xe0
 178 500 215 530 256 530 c 0
 287 530 316 521 346 503 c 1
 317 420 l 1
 296 434 274 440 253 440 c 0
 207 440 178 414 164 360 c 0
 156 331 153 302 153 271 c 2
 153 0 l 1
 64 0 l 1xd0
EndSplineSet
EndChar
StartChar: s
Encoding: 115 115 84
Width: 499
VWidth: 2048
Flags: W
HStem: -12 73<149 350.5> 458 72<144.5 330.4>
VStem: 46 84<314.3 448.2> 371 90<70.2 172.9>
Fore
461 153 m 0
 461 21 328 -12 253 -12 c 0
 124 -12 51 43 31 155 c 1
 118 169 l 1
 127 97 173 61 253 61 c 0
 331 61 371 87 371 143 c 0
 371 166 354 192 330 199 c 0
 183 243 46 250 46 382 c 0
 46 441 83 530 236 530 c 0
 393 530 430 460 443 385 c 1
 356 374 l 1
 348 429 310 458 242 458 c 0
 167 458 130 435 130 391 c 0
 130 332 199 332 346 288 c 0
 407 268 461 234 461 153 c 0
EndSplineSet
EndChar
StartChar: t
Encoding: 116 116 85
Width: 277
VWidth: 2048
Flags: HW
HStem: -6 81<193.137 266.888> 0 78<212.716 271> 451 67<18 83 170 258>
VStem: 83 87<98.9 451 518 647>
Fore
258 78 m 1x70
 271 0 l 1x70
 245 -5 224 -6 204 -6 c 0
 149 -6 113 9 95 43 c 0
 87 60 83 95 83 152 c 2
 83 451 l 1
 18 451 l 1
 18 518 l 1
 83 518 l 1
 83 647 l 1
 170 700 l 1
 170 518 l 1
 258 518 l 1
 258 451 l 1
 170 451 l 1
 170 147 l 2
 170 110 176 87 190 81 c 0
 198 78 207 75 219 75 c 0xb0
 230 75 242 77 258 78 c 1x70
EndSplineSet
EndChar
StartChar: u
Encoding: 117 117 86
Width: 556
VWidth: 2048
Flags: W
HStem: -12 76<148.5 332> 498 20G<64 152 397 484>
VStem: 64 88<75 518> 397 87<100.6 518> 406 78<0 77>
Fore
259 64 m 0xe8
 369 64 397 133 397 241 c 2
 397 518 l 1
 484 518 l 1xf0
 484 0 l 1
 406 0 l 1
 406 77 l 1
 366 17 311 -12 241 -12 c 0
 111 -12 64 54 64 198 c 2
 64 518 l 1
 152 518 l 1
 152 231 l 2
 152 111 174 64 259 64 c 0xe8
EndSplineSet
EndChar
StartChar: v
Encoding: 118 118 87
Width: 499
VWidth: 2048
Flags: MW
HStem: 0 21G<210 291> 498 20G<12 106 399 489>
VStem: 12 477<518 518>
Fore
210 0 m 1
 12 518 l 1
 106 518 l 1
 250 118 l 1
 399 518 l 1
 489 518 l 1
 291 0 l 1
 210 0 l 1
EndSplineSet
EndChar
StartChar: w
Encoding: 119 119 88
Width: 721
VWidth: 2048
Flags: HMW
HStem: 0 21G<161 254 461 552> 498 20G<3 94 317 408 630 714>
Fore
161 0 m 1
 3 518 l 1
 94 518 l 1
 207 107 l 1
 317 518 l 1
 408 518 l 1
 510 120 l 1
 630 518 l 1
 714 518 l 1
 552 0 l 1
 461 0 l 1
 359 399 l 1
 254 0 l 1
 161 0 l 1
EndSplineSet
EndChar
StartChar: x
Encoding: 120 120 89
Width: 499
VWidth: 2048
Flags: HMW
HStem: 0 21G<8 113 385 494> 498 20G<21 132 374 478>
VStem: 8 486<0 0>
Fore
8 0 m 1
 113 0 l 1
 249 193 l 1
 385 0 l 1
 494 0 l 1
 304 271 l 1
 478 518 l 1
 374 518 l 1
 252 346 l 1
 132 518 l 1
 21 518 l 1
 197 268 l 1
 8 0 l 1
EndSplineSet
EndChar
StartChar: y
Encoding: 121 121 90
Width: 499
VWidth: 2048
Flags: W
HStem: -210 84<82.0608 155> 498 20G<17 110 403 492>
VStem: 17 475<518 518>
Fore
63 -199 m 1
 52 -118 l 1
 72 -123 87 -126 103 -126 c 0
 143 -126 169 -110 182 -83 c 0
 209 -18 211 -7 213 0 c 1
 17 518 l 1
 110 518 l 1
 219 219 l 2
 235 175 247 135 256 98 c 1
 267 138 277 176 293 216 c 2
 403 518 l 1
 492 518 l 1
 294 -9 l 2
 259 -108 222 -210 120 -210 c 0
 103 -210 83 -207 63 -199 c 1
EndSplineSet
EndChar
StartChar: z
Encoding: 122 122 91
Width: 499
VWidth: 2048
Flags: MW
HStem: 0 75<112.72 478> 448 70<38 371.836> 451 67<223.312 349>
Fore
20 0 m 1
 20 71 l 1
 349 451 l 1
 313 449 279 448 251 448 c 2
 38 448 l 1
 38 518 l 1
 463 518 l 1
 463 461 l 1
 127 71 l 1
 167 74 204 75 239 75 c 2
 478 75 l 1
 478 0 l 1
 20 0 l 1
EndSplineSet
EndChar
StartChar: braceleft
Encoding: 123 123 92
Width: 334
VWidth: 2048
Flags: HW
HStem: -210 77<244 311> 219 80<28 113.8> 651 77<259 311>
VStem: 129 83<-6.66669 195.3 396.12 598.545>
CounterMasks: 1 00
Fore
212 432 m 2
 207 386 200 304 109 259 c 1
 178 231 212 159 212 38 c 0
 212 -44 215 -94 222 -107 c 0
 233 -126 256 -133 296 -133 c 2
 311 -133 l 1
 311 -210 l 1
 284 -210 l 2
 236 -210 202 -202 179 -184 c 0
 155 -164 139 -136 135 -103 c 2
 130 58 l 2
 127 164 94 218 28 219 c 1
 28 299 l 1
 135 301 129 397 129 521 c 0
 129 562 123 704 222 723 c 0
 236 727 256 728 284 728 c 2
 311 728 l 1
 311 651 l 1
 296 651 l 2
 259 651 236 644 224 628 c 0
 216 616 212 590 212 552 c 2
 212 432 l 2
EndSplineSet
EndChar
StartChar: bar
Encoding: 124 124 93
Width: 259
VWidth: 2048
Flags: W
HStem: 708 20G<92 169>
VStem: 92 77<-210 728>
Fore
92 -210 m 1
 92 728 l 1
 169 728 l 1
 169 -210 l 1
 92 -210 l 1
EndSplineSet
EndChar
StartChar: braceright
Encoding: 125 125 94
Width: 334
VWidth: 2048
Flags: HW
HStem: -210 77<23 126.4> 651 77<23 117.3>
VStem: 120 84<419.027 618.071> 123 81<-90.8664 128.745>
Fore
123 87 m 2xd0
 129 185 164 230 224 259 c 1
 167 287 135 330 127 391 c 0
 124 423 121 490 120 593 c 1
 113 638 99 651 38 651 c 2
 23 651 l 1
 23 728 l 1
 51 728 l 2
 106 728 146 716 169 688 c 0
 192 662 204 605 204 515 c 0xe0
 204 412 216 348 239 323 c 0
 254 308 277 300 307 299 c 1
 307 219 l 1
 261 218 231 198 216 156 c 0
 208 133 204 94 204 35 c 0
 204 -55 199 -113 187 -139 c 0
 161 -193 129 -210 51 -210 c 2
 23 -210 l 1
 23 -133 l 1
 38 -133 l 2
 106 -133 123 -113 123 -32 c 2
 123 87 l 2xd0
EndSplineSet
EndChar
StartChar: asciitilde
Encoding: 126 126 95
Width: 583
VWidth: 2048
Flags: HW
HStem: 273 92<337 473> 339 92<118 261>
Fore
408 273 m 0x80
 325 273 240 339 170 339 c 0x40
 130 339 89 316 43 273 c 1x80
 43 372 l 1
 77 411 123 431 178 431 c 0x40
 264 431 355 365 415 365 c 0
 460 365 501 388 543 432 c 1
 543 328 l 1
 503 291 458 273 408 273 c 0x80
EndSplineSet
EndChar
StartChar: ellipsis
Encoding: 133 8230 100
Width: 570
VWidth: 2048
Flags: HW
HStem: 0 118<70.1 163.7 257.1 350.7 444.8 538.4>
VStem: 55 117<28.36 110> 242 117<28.36 110> 431 116<20.95 110>
Fore
489 0 m 0
 455 0 435 20 431 58 c 0
 431 98 449 118 489 118 c 0
 527 118 547 98 547 58 c 0
 547 20 527 0 489 0 c 0
300 0 m 0
 267 0 247 20 242 58 c 0
 242 98 262 118 300 118 c 0
 339 118 359 98 359 58 c 0
 359 20 339 0 300 0 c 0
113 0 m 0
 80 0 60 20 55 58 c 0
 55 98 75 118 113 118 c 0
 152 118 172 98 172 58 c 0
 172 20 152 0 113 0 c 0
EndSplineSet
EndChar
StartChar: uni0E48.low_left
Encoding: 134 63237 101
Width: 0
Flags: W
VStem: -288 69<665 887>
Back
-247 665 m 5
 -316 665 l 5
 -316 887 l 5
 -247 887 l 5
 -247 665 l 5
EndSplineSet
Refer: 106 63242 N 1 0 0 1 -99 0 2
EndChar
StartChar: uni0E49.low_left
Encoding: 135 63238 102
Width: 0
Flags: W
HStem: 686 56<-461 -450> 798 42<-530.3 -479.109> 932 43<-530.3 -451>
VStem: -585 48<856.1 915.9> -445 48<856.1 915.9>
Back
-447 901 m 0
 -386 901 -364 852 -364 810 c 0
 -364 760 -395 717 -399 717 c 1
 -354 727 -326 740 -290 768 c 0
 -239 803 -215 832 -184 891 c 1
 -184 796 l 1
 -212 757 -241 727 -310 696 c 0
 -358 674 -401 667 -441 667 c 0
 -459 667 -477 669 -494 671 c 1
 -466 687 -440 732 -440 740 c 1
 -445 739 -450 739 -455 739 c 0
 -497 739 -534 767 -534 815 c 0
 -534 845 -517 901 -447 901 c 0
-451 777 m 0
 -423 777 -409 798 -409 819 c 0
 -409 840 -423 861 -451 861 c 0
 -479 861 -493 840 -493 819 c 0
 -493 798 -479 777 -451 777 c 0
EndSplineSet
Refer: 107 63243 N 1 0 0 1 -199 0 2
EndChar
StartChar: uni0E4C.low_left
Encoding: 138 63241 105
Width: 0
Flags: HW
HStem: 667 43<-334.7 -247.6> 802 41<-321.6 -249>
VStem: -403 70<736.2 791> -242 46<725.4 785.2>
Back
-139 972 m 1
 -139 972 l 0
 -143 960 -141 917 -192 889 c 0
 -253 855 -330 877 -382 851 c 0
 -409 837 -411 812 -412 809 c 1
 -399 820 -389 826 -362 826 c 0
 -320 826 -285 794 -285 750 c 0
 -285 699 -322 670 -366 668 c 0
 -441 665 -486 743 -468 812 c 0
 -446 891 -385 912 -284 912 c 0
 -204 912 -213 969 -208 972 c 1
 -139 972 l 1
-368 707 m 0
 -313 707 -314 789 -369 789 c 0
 -423 789 -422 707 -368 707 c 0
EndSplineSet
Refer: 110 63246 N 1 0 0 1 -99 0 2
EndChar
StartChar: uni0E48.low
Encoding: 139 63242 106
Width: 0
Flags: W
VStem: -189 69<665 887>
AnchorPoint: "AboveBase" -113 659 mark 0
Fore
-120 665 m 1
 -189 665 l 1
 -189 887 l 1
 -120 887 l 1
 -120 665 l 1
EndSplineSet
EndChar
StartChar: uni0E49.low
Encoding: 140 63243 107
Width: 0
Flags: HMW
HStem: 686 56<-262 -251> 798 42<-331.3 -280.109> 932 43<-331.3 -252>
VStem: -386 48<856.1 915.9> -246 48<856.1 915.9>
AnchorPoint: "AboveBase" -13 659 mark 0
Fore
-287 975 m 0
 -216 975 -198 912 -198 877 c 0
 -198 821 -234 767 -251 742 c 1
 -162 750 -113 785 -94 802 c 0
 -75 817 -29 851 3 926 c 1
 3 820 l 1
 0 806 -60 734 -139 707 c 0
 -179 693 -222 686 -262 686 c 0
 -301 686 -337 692 -365 705 c 1
 -349 714 -356 710 -320 742 c 0
 -308 753 -284 791 -284 799 c 1
 -289 798 -294 798 -299 798 c 0
 -340 798 -386 829 -386 885 c 0
 -386 926 -360 975 -287 975 c 0
-291 840 m 0
 -261 840 -246 863 -246 886 c 0
 -246 909 -261 932 -291 932 c 0
 -322 932 -338 909 -338 886 c 0
 -338 863 -322 840 -291 840 c 0
EndSplineSet
EndChar
StartChar: uni0E4A.low
Encoding: 141 63244 108
Width: 0
Flags: HW
HStem: 661 32<-334 -282> 753 32<-332.85 -281> 832 49<-327.2 -272.2> 835 46<-211 -140.6>
VStem: -396 48<768 825.6> -277 33<703.2 742.2> -142 52<729.2 803.1>
AnchorPoint: "AboveBase" -13 659 mark 0
Fore
-172 881 m 0xde
 -122 881 -90 834 -90 789 c 0
 -90 743 -112 710 -115 705 c 1
 -83 722 -61 743 -46 776 c 0
 -28 809 -25 860 -25 874 c 1
 25 831 l 1
 12 756 -53 665 -173 665 c 0
 -178 665 -184 665 -189 665 c 1
 -175 674 -142 714 -142 768 c 0
 -142 795 -152 835 -190 835 c 0xde
 -217 835 -238 816 -242 809 c 1
 -245 816 -272 832 -296 832 c 0
 -320 832 -350 813 -348 771 c 1
 -334 780 -323 785 -300 785 c 0
 -266 785 -244 756 -244 726 c 0
 -244 685 -274 661 -310 661 c 0
 -363 661 -396 711 -396 768 c 0
 -396 825 -367 881 -306 881 c 0xee
 -280 881 -257 867 -244 845 c 1
 -228 868 -202 881 -172 881 c 0xde
-307 753 m 0
 -327 753 -337 737 -337 722 c 0
 -337 707 -328 693 -308 693 c 0
 -288 693 -277 708 -277 724 c 0
 -277 738 -287 753 -307 753 c 0
EndSplineSet
EndChar
StartChar: uni0E4B.low
Encoding: 142 63245 109
Width: 0
Flags: HW
HStem: 752 66<-267 -185 -116 -34>
VStem: -185 69<668 752 818 902>
AnchorPoint: "AboveBase" -13 659 mark 0
Fore
-34 818 m 1
 -34 752 l 1
 -116 752 l 1
 -116 731 -116 664 -116 668 c 1
 -185 668 l 1
 -185 752 l 1
 -267 752 l 1
 -267 818 l 1
 -185 818 l 1
 -185 902 l 1
 -116 902 l 1
 -116 818 l 1
 -34 818 l 1
EndSplineSet
EndChar
StartChar: uni0E4C.low
Encoding: 143 63246 110
Width: 0
Flags: HW
HStem: 667 43<-235.7 -148.6> 802 41<-222.6 -150>
VStem: -304 70<736.2 791> -143 46<725.4 785.2>
AnchorPoint: "AboveBase" -113 659 mark 0
Fore
-97 757 m 0
 -97 699 -145 667 -189 667 c 0
 -258 667 -304 727 -304 791 c 0
 -304 803 -303 816 -299 828 c 0
 -274 915 -207 938 -95 940 c 0
 -6 941 -15 1002 -11 1006 c 1
 64 1006 l 1
 61 992 63 946 8 914 c 0
 -58 875 -143 901 -204 871 c 0
 -233 855 -236 829 -238 825 c 1
 -221 837 -213 843 -181 843 c 0
 -136 843 -97 809 -97 757 c 0
-234 757 m 0
 -234 741 -224 710 -185 710 c 0
 -157 710 -143 732 -143 754 c 0
 -143 778 -159 802 -189 802 c 0
 -219 802 -234 780 -234 757 c 0
EndSplineSet
EndChar
StartChar: uni0E0D.descless
Encoding: 144 63247 111
Width: 800
Flags: W
HStem: -2 50<148.7 229.3> 0 66<353 395 464 616> 139 51<157.559 229.3> 532 61<147.3 394.3>
VStem: 83 59<64.1 122.6> 83 69<184 352.968> 235 49<64.1 122.6> 395 69<66 497> 627 69<68 590>
Fore
590 66 m 2x7780
 610 66 627 77 627 107 c 2
 627 107 627 429 627 590 c 1
 696 590 l 1
 696 87 l 2
 696 17 640 0 615 0 c 2
 353 0 l 1
 353 66 l 1
 395 66 l 1
 395 445 l 2
 395 497 361 532 250 532 c 0
 171 532 129 501 129 501 c 1
 132 501 173 483 198 466 c 0
 227 448 254 423 254 423 c 1
 241 423 152 400 152 308 c 2
 152 184 l 1x7780
 152 184 167 190 189 190 c 0
 222 190 284 170 284 97 c 0
 284 36 241 -2 184 -2 c 0
 110 -2 83 49 83 101 c 2xbb80
 83 322 l 2
 83 340 89 365 104 389 c 0
 116 412 141 426 141 426 c 1
 105 460 33 483 6 487 c 1
 26 513 122 593 274 593 c 0
 404 593 464 524 464 448 c 2
 464 66 l 1
 590 66 l 2x7780
189 48 m 0xbb80
 220 48 235 71 235 94 c 0
 235 116 220 139 189 139 c 0
 158 139 142 116 142 94 c 0
 142 71 158 48 189 48 c 0xbb80
EndSplineSet
EndChar
StartChar: quoteleft
Encoding: 145 8216 112
Width: 268
Flags: HW
HStem: 571 20G<112 132>
VStem: 31 66<539 592.9>
Fore
108 446 m 0
 75 446 31 465 31 539 c 0
 31 607 68 698 169 719 c 1
 169 679 l 1
 155 676 135 664 115 641 c 0
 100 621 97 592 97 589 c 1
 103 591 109 591 115 591 c 0
 149 591 184 567 184 521 c 0
 184 481 161 446 108 446 c 0
EndSplineSet
EndChar
StartChar: quoteright
Encoding: 146 8217 113
Width: 278
Flags: HW
HStem: 583 21G<111 131> 708 20G<122.5 152>
VStem: 147 68<580.8 638>
Fore
137 728 m 0
 167 728 215 713 215 638 c 0
 215 570 178 477 75 455 c 1
 75 495 l 1
 89 498 109 510 129 533 c 0
 144 553 147 582 147 586 c 1
 141 584 134 583 128 583 c 0
 94 583 60 608 60 654 c 0
 60 714 108 728 137 728 c 0
EndSplineSet
EndChar
StartChar: quotedblleft
Encoding: 147 8220 114
Width: 484
Flags: HW
HStem: 444 144<107.667 176.2 337.726 394.5>
VStem: 48 65<538 621.2> 276 67<534 617.2>
Fore
353 444 m 0
 322 444 276 460 276 534 c 0
 276 598 313 695 415 716 c 1
 415 676 l 1
 381 668 343 622 343 586 c 1
 350 588 356 588 362 588 c 0
 387 588 432 574 432 519 c 0
 432 475 405 444 353 444 c 0
125 446 m 0
 94 446 48 463 48 538 c 0
 48 602 85 698 185 719 c 1
 185 679 l 1
 151 671 113 625 113 589 c 1
 119 591 126 591 132 591 c 0
 166 591 202 567 202 520 c 0
 202 490 187 446 125 446 c 0
EndSplineSet
EndChar
StartChar: quotedblright
Encoding: 148 8221 115
Width: 531
Flags: HW
HStem: 583 21G<127.5 142> 705 20G<361.5 392>
VStem: 158 68<554.5 639> 388 65<578.1 631>
Fore
377 725 m 0
 407 725 453 708 453 631 c 0
 453 563 416 473 316 452 c 1
 316 492 l 1
 330 495 349 507 369 530 c 0
 385 550 388 579 388 582 c 1
 382 580 375 580 369 580 c 0
 335 580 299 604 299 651 c 0
 299 711 346 725 377 725 c 0
147 728 m 0
 178 728 226 713 226 639 c 0
 226 574 189 477 86 455 c 1
 86 495 l 1
 122 504 158 550 158 586 c 1
 151 584 145 583 139 583 c 0
 116 583 69 598 69 654 c 0
 69 714 116 728 147 728 c 0
EndSplineSet
EndChar
StartChar: bullet
Encoding: 149 8226 116
Width: 528
Flags: W
Fore
271 98 m 0
 160 98 104 182 104 266 c 0
 104 350 160 434 271 434 c 0
 382 434 438 350 438 266 c 0
 438 182 382 98 271 98 c 0
EndSplineSet
EndChar
StartChar: endash
Encoding: 150 8211 117
Width: 548
Flags: W
HStem: 258 68<41 523>
Fore
523 258 m 1
 41 258 l 1
 41 326 l 1
 523 326 l 1
 523 258 l 1
EndSplineSet
EndChar
StartChar: emdash
Encoding: 151 8212 118
Width: 709
Flags: W
HStem: 258 68<41 682>
Fore
682 258 m 1
 41 258 l 1
 41 326 l 1
 682 326 l 1
 682 258 l 1
EndSplineSet
EndChar
StartChar: uni0E4C.left
Encoding: 159 63255 126
Width: 0
Flags: W
HStem: 891 39<-282.4 -210.9> 1012 36<-278.53 -212.9>
VStem: -351 63<944.7 1004> -206 41<944 997.3>
Back
-101 1194 m 1
 -101 1194 l 0
 -103 1185 -103 1143 -147 1119 c 0
 -201 1090 -271 1108 -319 1085 c 0
 -340 1074 -345 1052 -346 1048 c 1
 -333 1058 -326 1064 -300 1064 c 0
 -262 1064 -231 1035 -231 993 c 0
 -231 949 -264 921 -303 920 c 0
 -371 920 -411 990 -395 1052 c 0
 -377 1119 -322 1142 -230 1142 c 0
 -158 1142 -166 1193 -162 1194 c 2
 -101 1194 l 1
-305 955 m 0
 -256 955 -258 1030 -307 1030 c 0
 -356 1030 -354 955 -305 955 c 0
EndSplineSet
Refer: 200 3660 N 1 0 0 1 -56 0 2
EndChar
StartChar: uni0E01
Encoding: 161 3585 128
Width: 626
Flags: HW
HStem: 0 21G<100 169 451 520> 532 61<190.1 413.7>
VStem: 100 69<0 352.968> 451 69<0 524.6>
Fore
158 426 m 1
 121 461 47 484 23 487 c 1
 43 512 155 593 291 593 c 0
 429 593 520 530 520 422 c 2
 520 0 l 5
 451 0 l 1
 451 418 l 2
 451 500 387 532 298 532 c 0
 215 532 155 498 158 498 c 1
 176 493 254 441 271 423 c 1
 258 423 169 400 169 308 c 2
 169 0 l 1
 100 0 l 1
 100 322 l 2
 100 340 106 365 121 389 c 0
 133 412 158 426 158 426 c 1
EndSplineSet
EndChar
StartChar: uni0E02
Encoding: 162 3586 129
Width: 648
Flags: W
HStem: 0 66<182 256 325 435> 353 53<91.7 172.3> 536 57<171.388 259.3>
VStem: 31 54<422.1 483.2> 179 53<422.8 483.9> 256 69<66 363.3> 301 69<372.7 524.8> 461 69<64.1 590>
Fore
193 593 m 0xfb
 332 593 370 508 370 452 c 0xfb
 370 391 325 348 325 297 c 2
 325 66 l 1
 409 66 l 2
 435 66 461 77 461 120 c 2
 461 590 l 1
 530 590 l 1
 530 118 l 2
 530 24 478 0 425 0 c 2
 182 0 l 1
 182 66 l 1
 256 66 l 1
 256 284 l 2xfd
 256 380 301 384 301 451 c 0
 301 519 247 536 206 536 c 0
 196 536 187 535 179 533 c 1
 211 521 232 493 232 450 c 0
 232 404 202 353 129 353 c 0
 68 353 31 399 31 457 c 0
 31 511 70 593 193 593 c 0xfb
132 500 m 0
 101 500 85 476 85 452 c 0
 85 429 101 406 132 406 c 0
 163 406 179 430 179 454 c 0
 179 477 163 500 132 500 c 0
EndSplineSet
EndChar
StartChar: uni0E03
Encoding: 163 3587 130
Width: 677
Flags: HMW
HStem: 0 66<239 310 379 499.3> 259 44<110.4 193.6> 400 47<121.553 193.6> 486 55<235 235> 523 64<155 167> 564 20G<497 566>
VStem: 40 66<319.5 383.2 437 441.1> 200 44<319.5 383.2> 310 69<66 411> 351 67<452 487> 497 69<85.2 584>
Fore
446 66 m 2xe3d0
 487 66 497 93 497 119 c 2
 497 584 l 1
 566 584 l 1
 566 118 l 2
 566 20 501 0 460 0 c 2
 239 0 l 1
 239 66 l 1
 310 66 l 1
 310 418 l 2xe3d0
 310 422 351 451 351 471 c 0
 351 494 311 523 308 523 c 1
 235 486 l 1
 167 523 l 1
 150 515 136 506 127 490 c 0
 115 471 106 452 106 437 c 1
 120 444 134 447 148 447 c 0
 225 447 244 390 244 351 c 0
 244 296 206 259 152 259 c 0
 106 259 40 287 40 393 c 0
 40 430 54 540 155 587 c 1
 235 541 l 1
 316 587 l 1
 380 550 418 489 418 487 c 2
 418 454 l 2xe3b0
 418 452 397 423 379 411 c 1
 379 66 l 1
 446 66 l 2xe3d0
152 303 m 0
 184 303 200 327 200 352 c 0
 200 376 184 400 152 400 c 0
 120 400 105 376 105 352 c 0
 105 327 120 303 152 303 c 0
EndSplineSet
EndChar
StartChar: uni0E04
Encoding: 164 3588 131
Width: 613
Flags: HW
HStem: 0 21G<123 192 432 501> 228 49<198.03 265.3> 371 49<184.7 265.3> 532 61<75.9 407.4>
VStem: 26 64<285.2 439.9> 123 69<0 123.85> 126 53<292.8 355.2> 272 52<292.8 355.2> 432 69<0 501.9>
Fore
26 377 m 0xfd80
 26 464 83 593 282 593 c 0
 419 593 501 510 501 397 c 2
 501 0 l 1
 432 0 l 1
 432 394 l 2
 432 477 375 532 267 532 c 0
 120 532 90 424 90 371 c 0
 90 305 123 256 126 253 c 1
 126 317 l 2xfb80
 126 353 150 420 224 420 c 0
 280 420 324 384 324 322 c 0
 324 266 280 228 230 228 c 0
 208 228 192 235 192 235 c 1
 192 0 l 1
 123 0 l 1
 123 98 l 2
 123 115 120 130 112 146 c 0
 90 197 26 284 26 377 c 0xfd80
225 277 m 0
 256 277 272 300 272 324 c 0
 272 348 256 371 225 371 c 0
 194 371 179 348 179 324 c 0
 179 300 194 277 225 277 c 0
EndSplineSet
EndChar
StartChar: uni0E05
Encoding: 165 3589 132
Width: 591
Flags: HMW
HStem: 0 21G<101 173 406 475> 231 45<205.8 294.2> 377 49<205.8 294.2> 472 69<262 264> 535 58<181 195>
VStem: 10 60<278.9 476> 101 72<0 38.0771> 121 50<80 230> 300 46<293.5 359.8> 406 69<0 500.65>
Fore
337 593 m 1xe360
 398 580 475 528 475 414 c 2
 475 0 l 1
 406 0 l 1
 406 409 l 2
 406 479.5 381.088 515.72 343 535 c 1
 264 472 l 1
 181 535 l 1
 130.078 509.389 70 454 70 366 c 0
 70 299 120 204 123 199 c 1
 122 200 121 212 121 230 c 0
 121 319 146 426 247 426 c 0
 296 426 346 393 346 324 c 0
 346 274 316 233 244 231 c 0
 207 231 184 248 184 248 c 1
 181 231 171 172 171 80 c 0xe2e0
 171 54 172 30 173 0 c 1
 101 0 l 1
 98 20 100 46 81 107 c 0
 59 181 10 253 10 359 c 0
 10 449 41 536 195 593 c 1
 262 541 l 1
 337 593 l 1xe360
250 276 m 0
 284 276 300 301 300 326 c 0
 300 352 284 377 250 377 c 0
 216 377 198 352 198 326 c 0
 198 301 216 276 250 276 c 0
EndSplineSet
EndChar
StartChar: uni0E06
Encoding: 166 3590 133
Width: 770
Flags: HMW
HStem: -3 58<228.1 295.7> -1 68<528.9 588.7> 189 62<239.9 288> 265 45<90.4 173.6> 406 46<100.912 173.6> 492 55<215 215> 529 64<135 147> 570 20G<589 658>
VStem: 20 66<326.8 389.2 443 443.2> 162 61<76.4 180.7> 180 44<326.8 389.2> 288 69<70.8401 156 251 415> 331 68<456.1 492> 589 69<84.6072 590>
Fore
399 460 m 2
 399 457 378 436 357 415 c 1
 357 246 l 1
 490 118 l 2
 513 98 533 67 561 67 c 0
 586 69 589 100 589 124 c 2
 589 590 l 1
 658 590 l 1
 658 136 l 2
 658 89 658 41 619 17 c 0
 601 5 583 -1 564 -1 c 0
 537 -1 509 11 484 35 c 2
 357 156 l 1
 357 83 l 2
 357 37 319 -3 271 -3 c 0
 201 -3 162 54 162 117 c 0
 162 166 187 251 288 251 c 1
 288 425 l 2
 288 428 331 456 331 477 c 0
 331 503 290 529 288 529 c 1
 215 492 l 1
 147 529 l 1
 130 521 116 512 107 495 c 0
 95 477 86 457 86 443 c 1
 100 449 115 452 130 452 c 0
 208 452 224 392 224 358 c 0
 224 302 185 265 131 265 c 0
 85 265 20 294 20 399 c 0
 20 433 28 468 43 498 c 0
 64 544 90 570 135 593 c 1
 215 547 l 1
 296 593 l 1
 365 553 399 492 399 492 c 2
 399 460 l 2
132 310 m 0
 164 310 180 334 180 358 c 0
 180 382 164 406 132 406 c 0
 100 406 85 382 85 358 c 0
 85 334 100 310 132 310 c 0
258 55 m 0
 287 55 288 76 288 95 c 2
 288 189 l 1
 251 189 223 177 223 118 c 0
 223 86 235 55 258 55 c 0
EndSplineSet
EndChar
StartChar: uni0E07
Encoding: 167 3591 134
Width: 496
Flags: HW
HStem: -6 64<248.6 311> 228 63<37 84.0439> 401 50<244.7 310.97> 543 50<244.7 325.3>
VStem: 185 53<467.1 526.9> 317 69<75.7995 408> 331 55<467.1 526.9>
Fore
185 495 m 0xfc
 185 558 231 593 285 593 c 0
 359 593 386 543 386 490 c 2xfa
 386 120 l 2
 386 75 382 34 345 12 c 0
 325 0 305 -6 285 -6 c 0
 257 -6 229 7 207 32 c 0
 170 74 162 164 110 207 c 0
 86 227 66 227 37 228 c 1
 37 291 l 1
 62 291 102 293 143 264 c 0
 224 208 224 58 283 58 c 0
 314 58 317 90 317 110 c 2
 317 408 l 1
 317 408 301 401 279 401 c 0
 232 401 185 434 185 495 c 0xfc
285 451 m 0
 316 451 331 474 331 497 c 0
 331 520 316 543 285 543 c 0
 254 543 238 520 238 497 c 0
 238 474 254 451 285 451 c 0
EndSplineSet
EndChar
StartChar: uni0E08
Encoding: 168 3592 135
Width: 551
Flags: HW
HStem: -3 61<295.322 381.2> 213 49<151.7 221.851> 356 50<151.7 232.3> 530 63<166.8 344.9>
VStem: 93 53<279.1 338.9> 225 69<77.1 219> 238 56<279.1 338.9> 376 69<84.8492 512.9>
Fore
237 530 m 0xfd
 183 530 105 517 71 432 c 1
 12 460 l 1
 54 550 129 593 236 593 c 0
 363 593 445 529 445 426 c 2
 445 95 l 2
 445 37 397 -3 331 -3 c 0
 270 -3 225 35 225 89 c 2
 225 219 l 1xfd
 225 219 210 213 189 213 c 0
 136 213 93 250 93 308 c 0
 93 370 138 406 192 406 c 0
 267 406 294 356 294 302 c 2xfb
 294 107 l 2
 294 84 304.94 58 337 58 c 0
 371 58 376 86 376 109 c 2
 376 418 l 2
 376 491 320 530 237 530 c 0xfd
192 262 m 0
 223 262 238 286 238 309 c 0xfb
 238 332 223 356 192 356 c 0
 161 356 146 332 146 309 c 0
 146 286 161 262 192 262 c 0
EndSplineSet
EndChar
StartChar: uni0E09
Encoding: 169 3593 136
Width: 596
Flags: W
HStem: -4 65<216 282.3> -3 60<474 528.6> 181 57<472 529.2> 199 49<78.4 148.47> 340 51<78.4 159> 532 61<155 364.3>
VStem: 20 53<264.1 323.9> 152 69<76.8275 205> 166 55<264.1 323.9> 403 69<238 510.3> 408 64<57.3 152> 534 60<73.6 139.9>
Fore
594 112 m 0xaf50
 594 26 548 -3 497 -3 c 0x6f50
 440 -3 408 34 408 80 c 2
 408 152 l 1
 408 152 392 149 351 84 c 0
 317 30 283 -4 238 -4 c 0
 199 -4 152 15 152 89 c 2
 152 205 l 1x8f30
 152 205 136 199 115 199 c 0
 63 199 20 235 20 295 c 0
 20 356 66 391 120 391 c 0
 193 391 221 340 221 288 c 2x9e90
 221 106 l 2
 221 86 222 61 242 61 c 0
 273 61 300 112 330 158 c 0
 365 213 400 227 403 228 c 1
 403 418 l 2
 403 489 340 532 259 532 c 0
 179 532 121 505 86 437 c 1
 34 466 l 1
 62 519 122 593 254 593 c 0
 382 593 472 531 472 428 c 2
 472 238 l 1
 516 238 594 215 594 112 c 0xaf50
534 110 m 0
 534 133 523 182 482 182 c 0
 476 182 473 181 472 181 c 1
 472 95 l 2x6e30
 473 66 480 57 500 57 c 0
 522 57 534 82 534 110 c 0
120 248 m 0x1e90
 150 248 166 271 166 294 c 0
 166 317 150 340 120 340 c 0
 88 340 73 317 73 294 c 0
 73 271 88 248 120 248 c 0x1e90
EndSplineSet
EndChar
StartChar: uni0E0A
Encoding: 170 3594 137
Width: 602
Flags: W
HStem: 0 66<147 221 290 413> 353 53<56.7 137.3> 536 57<136.388 223>
VStem: -5 55<421.8 482.9> 143 53<423.1 484.2> 221 69<66 352> 266 69<366.2 463> 426 67<70.6 387.757>
Back
144 533 m 1
 170.09 521.819 196 501.145 196 451 c 0
 196 415 176 353 94 353 c 0
 29 353 -5 402 -5 457 c 0
 -5 511 35 593 157 593 c 0
 297 593 335 508 335 452 c 0
 335 386 290 352 290 297 c 2
 290 66 l 1
 374 66 l 2
 404 66 426 82 426 120 c 2
 426 353 l 2
 426 383 423 406 400 429 c 0
 372 455 334 463 334 463 c 1
 317.333 514.332 l 1
 323.333 514.332 392 536 441 564 c 0
 492 592 529 636 529 638 c 1
 555 569 l 1
 552 567 530 543 486 524 c 0
 451 509 402 490 397 490 c 1
 406 490 493 457 493 371 c 2
 493 118 l 2
 493 27.99 449 5.24537e-06 389 0 c 2
 147 0 l 1
 147 66 l 1
 221 66 l 1
 221 284 l 2
 221 380 266 384 266 451 c 0
 266 519 211 536 171 536 c 0
 161 536 152 535 144 533 c 1
97 500 m 0
 66 500 50 476 50 453 c 0
 50 429 66 406 97 406 c 0
 128 406 143 430 143 453 c 0
 143 477 128 500 97 500 c 0
EndSplineSet
Fore
97 500 m 0xf9
 66 500 50 476 50 453 c 0
 50 429 66 406 97 406 c 0
 128 406 143 430 143 453 c 0
 143 477 128 500 97 500 c 0xf9
144 533 m 1
 170 522 196 501 196 451 c 0
 196 415 176 353 94 353 c 0
 29 353 -5 402 -5 457 c 0
 -5 511 35 593 157 593 c 0
 249 593 297 556 319 515 c 1
 332 517 395 538 441 564 c 0
 492 592 529 636 529 638 c 1
 555 569 l 1
 552 567 530 543 486 524 c 0
 451 509 402 490 397 490 c 1
 406 490 493 457 493 371 c 2
 493 118 l 2
 493 28 449 0 389 0 c 2
 147 0 l 1
 147 66 l 1
 221 66 l 1
 221 284 l 2xfd
 221 380 266 384 266 451 c 0xfb
 266 519 211 536 171 536 c 0
 161 536 152 535 144 533 c 1
335 463 m 1xfb
 335 452 l 2xfb
 335 386 290 352 290 297 c 2
 290 66 l 1xfd
 374 66 l 2
 404 66 426 82 426 120 c 2
 426 353 l 2
 426 383 423 406 400 429 c 0
 374 453 339 462 335 463 c 1xfb
EndSplineSet
EndChar
StartChar: uni0E0B
Encoding: 171 3595 138
Width: 648
Flags: MW
HStem: 0 66<202 276 345 483> 274 52<72.7 153.3> 420 51<82.6047 154> 498 63<207 208> 532 63<124.5 143>
VStem: 10 57<342.1 403.2> 160 53<342.8 403.9> 276 69<66 412> 481 69<83.6 387.757>
Back
431 66 m 2
 471 66 481 91.975 481 120 c 2
 481 353 l 2
 481 383 478 406 455 429 c 0
 429 455 391 463 391 463 c 1
 377 510 l 1
 380 510 448 536 497 564 c 0
 549 592 584 636 584 638 c 1
 610 569 l 1
 607 567 586 543 541 524 c 0
 506 509 457 490 452 490 c 1
 458.212 490 550 460.124 550 371 c 2
 550 118 l 2
 550 55 527 7.16867e-06 445 0 c 2
 202 0 l 1
 202 66 l 1
 276 66 l 1
 276 428 l 1
 322 475 l 1
 322 475 316 495 305 507 c 0
 287 529 274 532 274 532 c 1
 208 498 l 1
 143 532 l 1
 106.934 524.272 89 473.894 89 468 c 1
 89 468 100.481 470.816 116.493 470.816 c 0
 193.779 470.816 213.101 409.516 213.101 372.675 c 0
 213.101 329.928 188.253 273.849 116.139 273.849 c 0
 73.7948 273.849 10.2782 290.736 10.2782 402.738 c 0
 10.2782 543.439 123.196 595 126 595 c 1
 207 561 l 1
 287 593 l 1
 290 593 328 578 348 553 c 0
 359 538 374 523 379 507 c 2
 391 463 l 1
 345 412 l 1
 345 66 l 1
 431 66 l 2
115 420 m 0
 83.122 420 67.1182 395.933 67.1182 372.154 c 0
 67.1182 348.939 82.372 326 113 326 c 0
 144.378 326 160.132 350.077 160.132 373.86 c 0
 160.132 397.07 145.128 420 115 420 c 0
EndSplineSet
Fore
115 420 m 0
 83 420 67 396 67 372 c 0
 67 349 82 326 113 326 c 0
 144 326 160 350 160 374 c 0
 160 397 145 420 115 420 c 0
431 66 m 2
 471 66 481 92 481 120 c 2
 481 353 l 2
 481 383 478 406 455 429 c 0
 429 455 391 463 391 463 c 1
 345 412 l 1
 345 66 l 1
 431 66 l 2
378 510 m 1
 386 513 450 537 497 564 c 0
 549 592 584 636 584 638 c 1
 610 569 l 1
 607 567 586 543 541 524 c 0
 506 509 457 490 452 490 c 1
 458 490 550 460 550 371 c 2
 550 118 l 2
 550 55 527 0 445 0 c 2
 202 0 l 1
 202 66 l 1
 276 66 l 1
 276 428 l 1
 322 475 l 1
 322 475 316 495 305 507 c 0
 287 529 274 532 274 532 c 1
 208 498 l 1
 143 532 l 1
 107 524 89 474 89 468 c 1
 89 468 100 471 116 471 c 0
 194 471 213 410 213 373 c 0
 213 330 188 274 116 274 c 0
 74 274 10 291 10 403 c 0
 10 543 123 595 126 595 c 1
 207 561 l 1
 287 595 l 1
 290 595 328 578 348 553 c 0
 358 539 372 525 378 510 c 1
EndSplineSet
EndChar
StartChar: uni0E0C
Encoding: 172 3596 139
Width: 792
Flags: HW
HStem: -3 61<337.1 379> -2 51<132.7 214.6> -1 76<562.4 608.2> 141 49<141.998 214.6> 532 61<153.35 362.6>
VStem: 71 69<184 352.968> 71 56<65.1 124.9> 220 52<65.1 124.9> 283 54<76.9 195.2> 385 69<68.5378 149 239 520.1> 605 69<76.1173 590>
Fore
272 96 m 0x9de0
 272 33 226 -2 173 -2 c 0
 99 -2 71 49 71 101 c 2x5be0
 71 322 l 2
 71 340 77 365 92 389 c 0
 104 412 129 426 129 426 c 1
 91 462 16 484 -6 487 c 1
 14 513 104 587 245 593 c 0
 382 593 454 535 454 449 c 2
 454 228 l 2
 454 227 487 224 521 167 c 0
 543 130 568 75 590 75 c 0
 604 75 605 89 605 103 c 2
 605 590 l 1
 674 590 l 1
 674 95 l 2
 674 53 660 -1 604 -1 c 4x3de0
 572 -1 547 14 524 52 c 0
 490 107 454 149 454 149 c 1
 454 69 l 2
 454 36 424 -3 379 -3 c 0
 318 -3 283 53 283 115 c 0
 283 217 345 233 385 239 c 1
 385 446 l 2
 385 503 335 532 243 532 c 0
 159 532 130 498 130 498 c 1
 133 498 162 483 186 466 c 0
 211 451 243 423 243 423 c 1
 232 423 140 400 140 308 c 2
 140 184 l 1
 150 188 162 190 174 190 c 0
 219 190 272 164 272 96 c 0x9de0
337 112 m 0
 337 85 344 58 367 58 c 0x99e0
 376 58 385 69 385 78 c 2
 385 184 l 1
 364 184 337 176 337 112 c 0
173 49 m 0x5be0
 205 49 220 72 220 95 c 0
 220 118 205 141 173 141 c 0
 142 141 127 118 127 95 c 0
 127 72 142 49 173 49 c 0x5be0
EndSplineSet
EndChar
StartChar: uni0E0D
Encoding: 173 3597 140
Width: 800
Flags: HW
HStem: -278 61<464.845 530.1> -104 47<379.6 452.4> 4 50<148.7 229.3> 6 66<353 395 464 616> 145 51<157.559 229.3> 538 61<147.3 394.3>
VStem: 83 59<70.1 128.6> 83 69<190 358.968> 235 49<70.1 128.6> 323 51<-175.3 -119.4> 395 69<72 503> 458 48<-174.6 -118.7> 627 69<74 596>
Back
717 110 m 1
 717 110 l 0
 717 86 719 64 707 43 c 0
 693 15 665 0 635 0 c 2
 388 0 l 5
 388 66 l 1
 431 66 l 1
 431 445 l 2
 431 503 383 532 296 532 c 0
 210 532 176 498 176 498 c 2
 179 498 208 483 233 466 c 0
 258 451 290 423 290 423 c 1
 285 423 244 415 218 386 c 0
 198 366 187 339 187 308 c 2
 187 184 l 1
 187 184 225 199 264 182 c 0
 302 167 325 129 317 77 c 0
 310 29 270 -2 219 -2 c 0
 146 -2 118 49 118 101 c 2
 118 322 l 2
 118 340 124 365 139 389 c 0
 152 412 176 426 176 426 c 1
 176 426 150 451 116 463 c 0
 86 475 69 483 41 487 c 1
 61 513 152 587 293 593 c 0
 434 599 500 527 500 448 c 2
 500 66 l 1
 612 66 l 2
 622 66 632 69 641 80 c 0
 650 90 648 101 648 113 c 2
 648 590 l 1
 717 590 l 1
 717 110 l 1
711 -61 m 1
 711 -61 l 0
 713 -78 710 -149 679 -198 c 0
 655 -239 604 -279 535 -284 c 0
 449 -288 365 -254 357 -170 c 0
 351 -123 374 -64 446 -63 c 0
 513 -63 549 -118 536 -175 c 0
 529 -212 500 -218 498 -218 c 0
 500 -218 524 -230 559 -218 c 0
 595 -207 616 -185 632 -152 c 0
 644 -121 645 -61 645 -61 c 1
 711 -61 l 1
219 49 m 0
 219 49 l 0
 282 49 282 141 219 141 c 0
 158 141 158 49 219 49 c 0
449 -110 m 0
 394 -110 392 -196 448 -196 c 0
 504 -196 506 -110 449 -110 c 0
EndSplineSet
Fore
506 -146 m 0xccd8
 506 -201 471 -212 465 -212 c 1
 466 -212 477 -217 495 -217 c 0
 522 -217 570 -205 599 -146 c 0
 611 -115 612 -55 612 -55 c 1
 678 -55 l 1
 678 -58 678 -61 678 -66 c 0
 678 -188 603 -278 489 -278 c 0
 405 -278 323 -241 323 -150 c 0
 323 -106 348 -58 413 -57 c 0
 471 -57 506 -98 506 -146 c 0xccd8
416 -104 m 0
 388 -104 374 -126 374 -148 c 0
 374 -169 387 -190 415 -190 c 0
 443 -190 458 -168 458 -146 c 0
 458 -125 444 -104 416 -104 c 0
EndSplineSet
Refer: 111 63247 N 1 0 0 1 0 0 2
Substitution: 0 65534 'nds0' uni0E0D.descless
Substitution: 0 65534 'ndsc' uni0E0D.descless
EndChar
StartChar: uni0E0E
Encoding: 174 3598 141
Width: 668
Flags: HW
HStem: -301 57<134.8 228.4> -159 52<125.4 225.5> -28 20G<320 389> -2 51<92.7 173.3> 141 49<92.7 163.288> 532 61<235.4 468.1>
VStem: 34 52<65.1 124.9> 59 65<-233.6 -181.6> 166 69<184 415.6> 180 55<65.1 124.9> 320 69<-44.8515 -8> 487 69<-153 521.6>
AnchorPoint: "BelowBase" 554 -311 basechar 0
Fore
222 426 m 1xfeb0
 187 463 108 484 89 487 c 1
 107 513 212 593 348 593 c 0
 486 593 556 524 556 418 c 2
 556 -162 l 1
 405 -317 l 1
 376 -280 336 -236 307 -218 c 1
 287 -242 236 -301 160 -301 c 0
 122 -301 59 -284 59 -213 c 0
 59 -150 110 -107 188 -107 c 0
 242 -107 283 -130 285 -132 c 1
 306 -98 320 -36 320 -8 c 1
 389 -8 l 1
 389 -76 336 -164 336 -164 c 1
 408 -225 l 1
 487 -153 l 1
 487 415 l 2
 487 497 442 532 355 532 c 0
 263 532 225 499 222 498 c 1
 225 498 254 483 281 466 c 0
 305 451 336 423 336 423 c 1
 330 423 235 405 235 308 c 2xfdb0
 235 101 l 2xfc70
 235 49 207 -2 133 -2 c 0
 80 -2 34 34 34 95 c 0
 34 154 76 190 129 190 c 0
 150 190 166 184 166 184 c 1
 166 322 l 2
 166 394 221 425 222 426 c 1xfeb0
133 49 m 0
 164 49 180 72 180 95 c 0
 180 118 164 141 133 141 c 0
 102 141 86 118 86 95 c 0xfe70
 86 72 102 49 133 49 c 0
166 -244 m 0xfdb0
 214 -244 251 -192 251 -179 c 0
 251 -178 215 -159 180 -159 c 0xfc70
 138 -159 124 -187 124 -205 c 0
 124 -227 142 -244 166 -244 c 0xfdb0
EndSplineSet
EndChar
StartChar: uni0E0F
Encoding: 175 3599 142
Width: 663
Flags: HW
HStem: -312 53<123.6 187.3> -152 54<125.1 184.9> -29 20G<264 325> -2 51<94.7 175.3> 141 49<94.7 164.775> 532 61<241.2 473.9>
VStem: 35 53<65.1 124.9> 61 56<-248.4 -170.4> 167 69<184 411.7> 181 55<65.1 124.9> 264 61<-40.3759 -9> 486 69<312.4 518>
AnchorPoint: "BelowBase" 550 -311 basechar 0
Fore
224 426 m 1xfeb0
 185 465 108 484 90 487 c 1
 109 513 213 592 349 593 c 0
 486 593 555 536 555 443 c 2
 555 -159 l 1
 540 -210 501 -274 437 -310 c 1
 369 -216 l 1
 299 -311 l 1
 247 -238 l 1
 225 -281 187 -312 148 -312 c 0
 78 -312 61 -250 61 -211 c 0
 61 -157 96 -100 150 -98 c 0
 193 -98 230 -133 233 -138 c 1
 238 -126 264 -48 264 -9 c 1
 325 -9 l 1
 325 -29 304 -137 276 -178 c 1
 296 -213 l 1
 369 -106 l 1
 445 -222 l 1
 467 -209 484 -176 486 -159 c 1
 486 440 l 2
 486 500 446 532 353 532 c 0
 267 532 224 498 224 498 c 1
 227 498 256 483 282 466 c 0
 307 451 337 423 337 423 c 1
 325 423 236 400 236 308 c 2xfdb0
 236 101 l 2xfc70
 236 49 208 -2 135 -2 c 0
 79 -2 35 35 35 97 c 0
 35 155 78 190 130 190 c 0
 152 190 167 184 167 184 c 1
 167 322 l 2
 167 391 224 426 224 426 c 1xfeb0
135 49 m 0
 166 49 181 72 181 95 c 0
 181 118 166 141 135 141 c 0
 104 141 88 118 88 95 c 0xfe70
 88 72 104 49 135 49 c 0
117 -212 m 0xfd30
 117 -240 129 -259 147 -259 c 0
 178 -259 207 -184 207 -184 c 1
 207 -184 178 -152 155 -152 c 0
 132 -152 117 -180 117 -212 c 0xfd30
EndSplineSet
EndChar
StartChar: uni0E10
Encoding: 176 3600 143
Width: 530
Flags: HW
HStem: -290 52<54.2 114> -180 43<325.6 369.8> -174 53<55.4 93.1> -76 42<329.5 368.5> -3 61<278.4 364.2> 158 49<134.4 204.972> 299 50<134.4 216.3> 506 55<347.7 450.4> 530 59<156 321.7>
VStem: 0 51<-225.96 -182.9> 77 52<223.1 282.9> 160 58<-107.527 -33.1834> 208 69<77.1 164> 222 55<223.1 282.9> 273 46<-128.1 -80> 359 69<84.8492 382.4> 379 48<-132 -80>
Fore
347 -34 m 0xde7280
 375 -34 427 -45 427 -127 c 2
 427 -225 l 1
 321 -296 l 1
 253 -250 l 1
 174 -296 l 1
 164 -274 158 -264 145 -247 c 1
 137 -259 109 -290 82 -290 c 0
 31 -290 0 -249 0 -206 c 0
 0 -149 47 -121 78 -121 c 0xbe7280
 102 -121 127 -132 138 -143 c 1
 150 -113 157 -74 160 -38 c 1
 218 -38 l 1
 216 -84 200 -152 178 -190 c 1
 195 -221 l 1
 255 -189 l 1
 321 -230 l 1
 373 -198 l 1
 373 -176 l 1
 364 -179 356 -180 347 -180 c 0
 304 -180 273 -147 273 -106 c 0
 273 -63 306 -34 347 -34 c 0xde7280
379 -106 m 0
 379 -86 364 -76 349 -76 c 0
 334 -76 319 -86 319 -106 c 0
 319 -123 331 -137 349 -137 c 0xde6280
 365 -137 380 -126 379 -106 c 0
109 -195 m 1
 109 -192 88 -174 71 -174 c 0xbe60
 59 -174 51 -188 51 -205 c 0
 51 -221 59 -238 75 -238 c 0
 105 -238 108 -197 109 -195 c 1
EndSplineSet
Refer: 337 63232 N 1 0 0 1 0 0 2
Substitution: 0 65534 'nds0' uni0E10.descless
Substitution: 0 65534 'ndsc' uni0E10.descless
EndChar
StartChar: uni0E11
Encoding: 177 3601 144
Width: 815
Flags: HMW
HStem: 0 21G<296 369 633 702> 265 45<96.4 179.6> 406 46<106.988 179.6> 492 55<221 221> 514 76<594.5 611.5> 529 64<141 153> 570 20G<577 628>
VStem: 26 66<326.8 389.2> 186 44<326.8 389.2> 296 69<235 415 235 425 235 426.5> 296 73<0 80.4375> 337 68<458 492> 633 69<0 502.6>
Fore
608 590 m 0xe398
 648 590 702 542 702 487 c 2
 702 0 l 1
 633 0 l 1
 633 474 l 2
 633 496 621 514 602 514 c 0
 587 514 572 497 567 489 c 2
 555 481 386 174 374 84 c 0
 371 52 369 32 369 0 c 1
 296 0 l 1
 296 425 l 2xe3a8
 296 428 337 456 337 477 c 0
 337 503 296 529 294 529 c 1
 221 492 l 1
 153 529 l 1
 136 521 123 512 113 495 c 0
 101 477 92 457 92 443 c 1
 107 449 122 452 136 452 c 0
 213 452 230 394 230 358 c 0
 230 302 191 265 138 265 c 0
 85 265 26 301 26 400 c 0
 26 433 34 468 49 498 c 0
 71 544 97 570 141 593 c 1
 221 547 l 1
 302 593 l 1
 371 553 405 492 405 492 c 1
 405 460 l 2
 405 458 381 429 365 415 c 1
 365 235 l 1
 379 282 417 359 454 426 c 0
 488 489 546 590 608 590 c 0xe398
138 310 m 0
 170 310 186 334 186 358 c 0
 186 382 170 406 138 406 c 0
 106 406 91 382 91 358 c 0
 91 334 106 310 138 310 c 0
EndSplineSet
EndChar
StartChar: uni0E12
Encoding: 178 3602 145
Width: 820
Flags: HMW
HStem: -4 61<379.4 430.1> -3 69<584.9 634.3> 236 45<195.3 230> 379 45<192.3 267.7> 468 67<279 279> 530 65<192 201> 570 20G<633 702>
VStem: 20 63<293.1 421.8> 134 48<293.3 368.7> 280 49<290.3 365.7> 319 55<81.4 162> 428 69<64.5002 151 251 512.5> 633 69<63.4155 590>
Fore
360 595 m 1xb1ec
 393 582 497 528 497 428 c 2
 497 230 l 2
 497 228 520 216 540 182 c 0
 579 113 593 66 620 66 c 0
 631 66 633 74 633 100 c 2
 633 590 l 1
 702 590 l 1
 702 100 l 2
 702 46 690 -3 628 -3 c 0x71ec
 581 -3 554 48 532 89 c 0
 505 140 505 132 495 151 c 1
 495 71 l 2
 495 45 479 -4 417 -4 c 0
 358 -4 319 55 319 123 c 0xb1dc
 319 225 396 249 428 251 c 1
 428 428 l 2
 428 493 384 524 363 530 c 5
 279 468 l 1
 192 530 l 1
 100 486 83 408 83 362 c 0
 83 309 103 259 129 205 c 0
 153 155 170 113 172 110 c 1
 175 125 216 209 230 236 c 1
 229 236 226 236 221 236 c 0
 175 236 134 270 134 327 c 0
 134 377 170 424 230 424 c 0
 292 424 329 377 329 329 c 0
 329 257 249 180 219 72 c 0
 210 38 210 32 208 0 c 1
 135 0 l 1
 135 3 130 46 112 100 c 0
 78 199 20 253 20 355 c 0
 20 503 105 556 201 595 c 1
 279 535 l 1
 360 595 l 1xb1ec
280 328 m 0
 280 357 259 379 230 379 c 0
 201 379 182 360 182 331 c 0
 182 302 204 281 233 281 c 0
 262 281 280 299 280 328 c 0
428 199 m 1
 386 187 374 153 374 123 c 0
 374 91 386 57 408 57 c 0xb1dc
 425 57 428 67 428 78 c 2
 428 199 l 1
EndSplineSet
EndChar
StartChar: uni0E13
Encoding: 179 3603 146
Width: 818
Flags: HW
HStem: -3 60<691.5 755> -2 51<146.7 227.3> 141 49<157.225 227.3> 193 63<694 731.655> 532 61<159.2 394.5>
VStem: 86 55<65.1 124.9> 86 69<184 352.968> 234 53<65.1 124.9> 405 69<115 513.2> 625 69<256 590> 628 66<67.8916 182> 763 58<79.6 214.8>
Fore
694 256 m 1x7bd0
 750 256 821 229 821 120 c 0
 821 39 775 -3 717 -3 c 0
 650 -2 628 44 628 86 c 2
 628 182 l 1
 516 111 479 0 472 0 c 2
 405 0 l 1
 405 443 l 2
 405 497 366 532 271 532 c 0
 185 532 144 498 144 498 c 1
 147 498 176 483 201 466 c 0
 225 451 258 423 258 423 c 1
 245 423 155 400 155 308 c 2
 155 184 l 1xbbb0
 155 184 170 190 192 190 c 0
 225 190 287 170 287 97 c 0
 287 36 244 -2 187 -2 c 0
 113 -2 86 49 86 101 c 2x7d90
 86 322 l 2
 86 340 92 365 107 389 c 0
 120 412 144 426 144 426 c 1
 108 460 36 483 9 487 c 1
 29 513 132 592 268 593 c 0
 409 593 474 532 474 446 c 2
 474 115 l 1
 475 118 507 169 547 202 c 0
 584 233 622 250 625 250 c 1
 625 590 l 1
 694 590 l 1
 694 256 l 1x7bd0
763 116 m 0
 763 192 720 193 694 193 c 1
 694 92 l 2
 694 75 699 57 724 57 c 2
 728 57 l 2
 755 57 763 88 763 116 c 0
187 49 m 0x7d90
 218 49 234 72 234 95 c 0
 234 118 218 141 187 141 c 0
 156 141 141 118 141 95 c 0
 141 72 156 49 187 49 c 0x7d90
EndSplineSet
EndChar
StartChar: uni0E14
Encoding: 180 3604 147
Width: 614
Flags: HW
HStem: 0 21G<152 212 432 503> 533 57<255 295>
VStem: 432 71<0 417>
Fore
37 367 m 0xfd80
 37 506 157 590 271 590 c 0
 418 590 502 510 502 411 c 2
 502 0 l 1
 433 0 l 1
 433 405 l 2
 433 480 369 533 274 533 c 0
 179 532 96 471 96 356 c 0
 96 304 116 265 143 216 c 0
 173 160 190 123 193 123 c 0
 196 123 224 185 253 230 c 1
 212 232 157 269 157 330 c 0xfb80
 157 384 196 427 257 427 c 0
 312 427 357 389 357 332 c 0
 357 295 339 257 320 225 c 2
 238 87 l 2
 222 61 216 34 212 0 c 1
 152 0 l 1
 152 18 154 29 154 42 c 0
 154 121 37 220 37 367 c 0xfd80
258 279 m 0
 292 279 308 304 308 330 c 0
 308 355 292 380 258 380 c 0
 224 380 207 355 207 330 c 0
 207 304 224 279 258 279 c 0
EndSplineSet
EndChar
StartChar: uni0E15
Encoding: 181 3605 148
Width: 645
Flags: HMW
HStem: 0 21G<176 250 464 533> 230 50<233.5 284> 381 47<233.5 323.2> 474 69<320 322> 532 63<239 253>
VStem: 54 61<288.1 444.1> 176 74<0 39> 178 49<297.5 363.8> 330 48<297.5 363.8> 464 69<0 472.739>
Fore
280 428 m 0xe2e0
 336 428 378 391 378 334 c 0
 378 261 314 176 277 84 c 0
 265 57 250 40 250 0 c 1
 176 0 l 1xe360
 172 40 173 54 156 107 c 0
 133 185 54 260 54 371 c 0
 54 461 106 556 253 595 c 1
 320 543 l 1
 395 595 l 1
 431 587 463 570 492 536 c 0
 520 506 533 468 533 415 c 2
 533 0 l 1
 464 0 l 1
 464 409 l 2
 464 446 464 464 448 489 c 0
 432 513 423 523 402 532 c 1
 322 474 l 1
 239 532 l 1
 139 495 115 424 115 357 c 0
 115 304 133 263 162 216 c 0
 195 162 215 107 218 107 c 0
 219 107 265 203 284 230 c 1
 196 234 178 301 178 332 c 0
 178 388 220 428 280 428 c 0xe2e0
279 280 m 0
 313 280 330 305 330 330 c 0
 330 356 313 381 279 381 c 0
 244 381 227 356 227 330 c 0xe2e0
 227 305 244 280 279 280 c 0
EndSplineSet
EndChar
StartChar: uni0E16
Encoding: 182 3606 149
Width: 628
Flags: HW
HStem: -2 51<163 243.6> 141 49<172.225 243.6> 532 61<192.1 414.4>
VStem: 101 55<65.1 124.9> 101 69<184 352.968> 249 53<65.1 124.9> 452 69<0 524.6>
Fore
159 426 m 1xee
 119 465 43 484 25 487 c 1
 44 512 156 593 293 593 c 0
 431 593 521 530 521 422 c 2
 521 0 l 1
 452 0 l 1
 452 418 l 2
 452 500 388 532 300 532 c 0
 217 532 156 498 159 498 c 0
 162 498 192 483 216 466 c 0
 241 451 273 423 273 423 c 1
 261 423 170 400 170 308 c 2
 170 184 l 1xee
 170 184 185 190 207 190 c 0
 259 190 302 155 302 97 c 0
 302 35 258 -2 202 -2 c 0
 129 -2 101 49 101 101 c 2xf6
 101 322 l 2
 101 340 107 365 123 389 c 0
 135 412 159 426 159 426 c 1xee
202 49 m 0
 234 49 249 72 249 95 c 0
 249 118 234 141 202 141 c 0
 172 141 156 118 156 95 c 0xf6
 156 72 172 49 202 49 c 0
EndSplineSet
EndChar
StartChar: uni0E17
Encoding: 183 3607 150
Width: 691
Flags: HW
HStem: 0 21G<176 245 512 581> 400 49<102.4 172.972> 534 58<456.931 524.8> 541 51<102.4 183>
VStem: 44 53<465.1 524.9> 176 69<0 124.395 299 406> 190 55<465.1 524.9> 512 69<0 516.356>
Fore
245 299 m 1xdd
 339 494 395 592 475 592 c 0
 582 592 581 497 581 452 c 2
 581 0 l 1
 512 0 l 1
 512 461 l 2
 512 499 514 534 478 534 c 0
 463 534 445 526 432 507 c 0
 405 466 320 348 276 218 c 0
 247 135 245 89 245 0 c 1
 176 0 l 1
 176 406 l 1xed
 176 406 161 400 139 400 c 0
 106 400 44 420 44 493 c 0
 44 552 87 592 144 592 c 0
 218 592 245 541 245 489 c 2xdb
 245 299 l 1xdd
144 449 m 0
 174 449 190 472 190 495 c 0
 190 518 174 541 144 541 c 0xdb
 112 541 97 518 97 495 c 0
 97 472 112 449 144 449 c 0
EndSplineSet
EndChar
StartChar: uni0E18
Encoding: 184 3608 151
Width: 548
Flags: HW
HStem: 0 66<86 153 222 360.6> 498 60<348 462.2> 534 55<130.2 290.1>
VStem: 153 69<66 418> 368 69<76 319>
Fore
101 496 m 1xb8
 206 490 299 464 346 434 c 0
 399 400 418 379 437 337 c 1
 437 89 l 2
 437 44 398 0 349 0 c 2
 86 0 l 1
 86 66 l 1
 153 66 l 1
 153 435 l 1
 100 443 l 1
 40 445 l 2
 30 445 26 451 26 460 c 0
 26 478 40 507 52 523 c 0
 89 570 132 589 211 589 c 0xb8
 294 589 329 559 418 558 c 0
 452 558 484 569 503 590 c 1
 533 533 l 1
 507 516 479 498 426 498 c 0xd8
 366 498 273 534 216 534 c 0
 150 534 126 529 101 496 c 1xb8
368 102 m 2
 368 319 l 1
 354 351 343 366 305 388 c 0
 279 402 250 414 222 418 c 1
 222 66 l 1
 332 66 l 2
 354 66 368 82 368 102 c 2
EndSplineSet
EndChar
StartChar: uni0E19
Encoding: 185 3609 152
Width: 668
Flags: W
HStem: -1 59<516.4 584> 207 64<520 557.2> 400 49<74.7 143.972> 543 49<74.7 155.3>
VStem: 15 53<466.1 525.9> 147 69<119 406> 161 55<466.1 525.9> 451 69<271 590> 451 62<62.7 207> 582 64<85.5023 219.2>
Fore
646 131 m 0xfd40
 646 33 587 -1 539 -1 c 0
 460 -1 451 73 451 115 c 2
 451 207 l 1
 402 207 262 121 216 0 c 1xfac0
 147 0 l 1
 147 406 l 1xfc40
 147 406 132 400 110 400 c 0
 59 400 15 437 15 494 c 0
 15 555 60 592 115 592 c 0
 189 592 216 543 216 489 c 2xfa40
 216 119 l 1
 216 119 254 173 322 218 c 0
 377 254 446 271 451 271 c 1
 451 590 l 1
 520 590 l 1
 520 270 l 1
 590 270 646 221 646 131 c 0xfd40
582 123 m 0
 582 197 547 207 513 207 c 1
 513 116 l 2
 513 75 523 58 545 58 c 0
 575 58 582 95 582 123 c 0
115 449 m 0
 146 449 161 473 161 496 c 0
 161 519 146 543 115 543 c 0
 84 543 68 519 68 496 c 0
 68 473 84 449 115 449 c 0
EndSplineSet
EndChar
StartChar: uni0E1A
Encoding: 186 3610 153
Width: 636
Flags: W
HStem: 0 66<74 147 216 440.209> 400 49<79.3 144.109> 541 51<79.3 156>
VStem: 23 51<465.1 524.9> 147 69<66 406> 162 54<465.1 524.9> 463 69<65 590>
Fore
418 66 m 2xfa
 433 66 463 74 463 104 c 2
 463 590 l 1
 532 590 l 5
 532 89 l 2
 532 31 487 0 441 0 c 2
 74 0 l 1
 74 66 l 1
 147 66 l 1
 147 406 l 1xfa
 147 406 133 400 113 400 c 0
 65 400 23 434 23 492 c 0
 23 570 79 592 117 592 c 0
 187 592 216 541 216 489 c 2xf6
 216 66 l 1
 418 66 l 2xfa
117 449 m 0
 147 449 162 472 162 495 c 0xf6
 162 518 147 541 117 541 c 0
 88 541 74 518 74 495 c 0
 74 472 88 449 117 449 c 0
EndSplineSet
EndChar
StartChar: uni0E1B
Encoding: 187 3611 154
Width: 636
Flags: HW
HStem: 0 66<74 147 216 440.209> 400 49<79.3 144.109> 541 51<79.3 156>
VStem: 23 51<465.1 524.9> 147 69<66 406> 162 54<465.1 524.9> 463 69<65 886>
AnchorPoint: "AboveBase" 424 659 basechar 0
Fore
418 66 m 2xfa
 433 66 463 74 463 104 c 2
 463 886 l 1
 532 886 l 1
 532 89 l 2
 532 31 487 0 441 0 c 2
 74 0 l 1
 74 66 l 1
 147 66 l 1
 147 406 l 1xfa
 147 406 133 400 113 400 c 0
 65 400 23 434 23 492 c 0
 23 570 79 592 117 592 c 0
 187 592 216 541 216 489 c 2xf6
 216 66 l 1
 418 66 l 2xfa
117 449 m 0
 147 449 162 472 162 495 c 0xf6
 162 518 147 541 117 541 c 0
 88 541 74 518 74 495 c 0
 74 472 88 449 117 449 c 0
EndSplineSet
EndChar
StartChar: uni0E1C
Encoding: 188 3612 155
Width: 639
Flags: HW
HStem: 0 21G<454 520> 400 49<153.149 218.7> 541 51<143.3 218.7>
VStem: 84 54<465.1 524.9> 84 66<130 406> 224 51<465.1 524.9> 454 66<130 590>
Fore
275 492 m 0xf6
 275 437 237 400 186 400 c 0
 165 400 150 406 150 406 c 1
 150 130 l 1
 156 145 223 249 302 303 c 1
 380 250 454 135 454 130 c 1
 454 590 l 1
 520 590 l 1
 520 0 l 1
 454 0 l 1
 437 56 366 179 302 227 c 1
 264 198 188 115 150 2 c 1
 84 2 l 1xee
 84 489 l 2
 84 535 113 590 181 592 c 0
 215 592 275 572 275 492 c 0xf6
181 449 m 0
 210 449 224 472 224 495 c 0
 224 518 210 541 181 541 c 0
 152 541 138 518 138 495 c 0xf6
 138 472 152 449 181 449 c 0
EndSplineSet
EndChar
StartChar: uni0E1D
Encoding: 189 3613 156
Width: 639
Flags: HW
HStem: 0 21G<466 532> 400 49<165.149 230.7> 541 51<155.3 230.7>
VStem: 97 53<465.1 524.9> 97 65<130 406> 236 51<465.1 524.9> 466 66<130 886>
AnchorPoint: "AboveBase" 427 659 basechar 0
Fore
287 492 m 0xf6
 287 437 249 400 198 400 c 0
 177 400 162 406 162 406 c 1
 162 130 l 1
 168 144 238 251 314 303 c 1
 393 249 466 135 466 130 c 1
 466 886 l 1
 532 886 l 1
 532 0 l 1
 466 0 l 1
 449 56 378 179 314 227 c 1
 276 198 200 115 162 2 c 1
 97 2 l 1xee
 97 489 l 2
 97 535 126 590 193 592 c 0
 230 592 287 570 287 492 c 0xf6
193 449 m 0
 222 449 236 472 236 495 c 0
 236 518 222 541 193 541 c 0
 164 541 150 518 150 495 c 0xf6
 150 472 164 449 193 449 c 0
EndSplineSet
EndChar
StartChar: uni0E1E
Encoding: 190 3614 157
Width: 698
Flags: HW
HStem: 0 21G<143 214 518 586> 400 49<74.3 139.729> 541 51<74.3 151>
VStem: 18 50<465.1 524.9> 143 69<0 25.3224 196 406> 157 55<465.1 524.9> 327 35<459.1 590> 517 69<196 590>
Fore
18 492 m 0xfb
 18 570 74 592 112 592 c 0
 182 592 212 541 212 489 c 2xf7
 212 196 l 1
 261 292 328 482 327 590 c 1
 396 590 l 1
 396 446 497 257 517 196 c 1
 517 590 l 1
 586 590 l 1
 586 0 l 1
 518 0 l 1
 517 6 505 92 428 254 c 0
 376 365 362 463 362 463 c 1
 362 460 355 366 298 247 c 0
 223 90 214 2 214 0 c 1
 143 0 l 1
 143 406 l 1
 143 406 128 400 108 400 c 0
 77 400 18 420 18 492 c 0xfb
112 449 m 0
 142 449 157 472 157 495 c 0
 157 518 142 541 112 541 c 0
 83 541 68 518 68 495 c 0
 68 472 83 449 112 449 c 0
EndSplineSet
EndChar
StartChar: uni0E1F
Encoding: 191 3615 158
Width: 698
Flags: HW
HStem: 0 21G<143 214 518 586> 400 49<74.3 139.729> 541 51<74.3 151>
VStem: 18 50<465.1 524.9> 143 69<0 25.3224 196 406> 157 55<465.1 524.9> 327 35<459.1 590> 517 69<196 886>
AnchorPoint: "AboveBase" 487 659 basechar 0
Fore
18 492 m 0xfb
 18 570 74 592 112 592 c 0
 182 592 212 541 212 489 c 2xf7
 212 196 l 1
 261 292 328 482 327 590 c 1
 396 590 l 1
 396 446 497 257 517 196 c 1
 517 886 l 1
 586 886 l 1
 586 0 l 1
 518 0 l 1
 517 6 505 92 428 254 c 0
 376 365 362 463 362 463 c 1
 362 460 355 366 298 247 c 0
 223 90 214 2 214 0 c 1
 143 0 l 1
 143 406 l 1
 143 406 128 400 108 400 c 0
 77 400 18 420 18 492 c 0xfb
112 449 m 0
 142 449 157 472 157 495 c 0
 157 518 142 541 112 541 c 0
 83 541 68 518 68 495 c 0
 68 472 83 449 112 449 c 0
EndSplineSet
EndChar
StartChar: uni0E20
Encoding: 192 3616 159
Width: 712
Flags: HW
HStem: -2 51<104.4 185> 141 49<104.4 175.288> 532 61<269.4 489.1>
VStem: 46 53<65.1 124.9> 178 69<184 413> 192 55<65.1 124.9> 529 69<0 524.6>
Fore
235 426 m 1xfa
 200 461 127 483 101 487 c 1
 120 512 231 593 369 593 c 0
 506 593 598 530 598 422 c 2
 598 0 l 1
 529 0 l 1
 529 418 l 2
 529 500 463 532 376 532 c 0
 294 532 251 508 235 498 c 1
 238 498 267 483 293 466 c 0
 317 451 348 423 348 423 c 1
 335 423 247 400 247 308 c 2xfa
 247 101 l 2xf6
 247 49 219 -2 146 -2 c 0
 90 -2 46 35 46 97 c 0
 46 155 90 190 141 190 c 0
 162 190 178 184 178 184 c 1
 178 322 l 2
 178 392 235 426 235 426 c 1xfa
146 49 m 0
 176 49 192 72 192 95 c 0xf6
 192 118 176 141 146 141 c 0
 114 141 99 118 99 95 c 0
 99 72 114 49 146 49 c 0
EndSplineSet
EndChar
StartChar: uni0E21
Encoding: 193 3617 160
Width: 665
Flags: HMW
HStem: -3 58<130.8 201> -2 69<413.9 475> 189 62<144.9 193> 400 49<120.7 189.972> 541 51<120.7 201.3>
VStem: 61 53<465.1 524.9> 65 61<76.4 181.7> 193 69<71.2554 156 251 406> 207 55<465.1 524.9> 476 69<81.7437 590>
Fore
61 493 m 0
 61 554 104 592 161 592 c 0
 235 592 262 541 262 489 c 2
 262 246 l 1
 379 118 l 2
 400 97 422 67 449 67 c 0
 474 69 476 100 476 124 c 2
 476 590 l 1
 545 590 l 1
 545 136 l 2
 545 89 546 41 507 17 c 0
 489 5 469 -2 449 -2 c 0
 422 -2 394 10 372 35 c 2
 262 156 l 1
 262 83 l 2
 262 37 222 -3 175 -3 c 0
 105 -3 65 55 65 118 c 0
 65 167 91 251 193 251 c 1
 193 406 l 1
 193 406 178 400 156 400 c 0
 104 400 61 435 61 493 c 0
161 449 m 0
 192 449 207 472 207 495 c 0
 207 518 192 541 161 541 c 0
 130 541 114 518 114 495 c 0
 114 472 130 449 161 449 c 0
162 55 m 0
 192 55 193 77 193 95 c 2
 193 189 l 1
 156 189 126 178 126 118 c 0
 126 86 138 55 162 55 c 0
EndSplineSet
EndChar
StartChar: uni0E22
Encoding: 194 3618 161
Width: 622
Flags: HMW
HStem: 0 66<155 403.164> 258 39<261.5 273> 398 50<161.03 227.3> 540 50<146.7 227.3>
VStem: 86 55<464.1 523.9> 86 69<66 191.296 351 405> 234 53<464.1 523.9> 435 69<65.3 590>
Fore
287 492 m 0xbb
 287 431 240 398 193 398 c 0
 171 398 155 405 155 405 c 1
 155 372 l 2
 155 351 159 342 187 320 c 0
 208 303 273 297 273 297 c 1
 273 258 l 1
 250 258 206 254 182 230 c 0
 162 205 155 197 155 107 c 2
 155 66 l 1
 388 66 l 2
 402 66 435 77 435 116 c 2
 435 590 l 1
 504 590 l 1
 504 113 l 2
 504 38 457 0 392 0 c 2
 86 0 l 1
 86 141 l 2
 86 173 92 215 109 238 c 0
 124 259 158 274 176 281 c 1
 158 284 124 296 106 317 c 0
 89 340 86 348 86 376 c 2xb7
 86 487 l 2
 86 533 116 590 187 590 c 0
 242 590 287 554 287 492 c 0xbb
187 448 m 0
 218 448 234 471 234 494 c 0
 234 517 218 540 187 540 c 0
 156 540 141 517 141 494 c 0xbb
 141 471 156 448 187 448 c 0
EndSplineSet
EndChar
StartChar: uni0E23
Encoding: 195 3619 162
Width: 501
Flags: W
HStem: -2 51<264 344.6> 141 49<264 333.775> 505 56<325.5 435.2> 536 55<171.9 309.7>
VStem: 204 53<65.1 124.9> 336 69<184 365> 350 55<65.1 124.9>
Fore
204 96 m 0xda
 204 171 267 190 299 190 c 0
 321 190 336 184 336 184 c 1
 336 319 l 2
 336 374 288 405 207 429 c 0
 133 451 47 462 32 466 c 1
 59 520 110 591 229 591 c 0xdc
 295 591 339 561 391 561 c 0
 425 561 449 581 451 581 c 1
 484 529 l 1
 463 520 438 505 397 505 c 0xec
 342 505 292 536 233 536 c 0
 186 536 146 516 138 500 c 1
 138 500 250 487 331 438 c 0
 399 399 405 365 405 308 c 2xdc
 405 101 l 2
 405 49 378 -2 304 -2 c 0
 248 -2 204 34 204 96 c 0xda
303 49 m 0
 335 49 350 72 350 95 c 0xca
 350 118 335 141 303 141 c 0
 273 141 257 118 257 95 c 0
 257 72 273 49 303 49 c 0
EndSplineSet
EndChar
StartChar: uni0E24
Encoding: 196 3620 163
Width: 610
Flags: HW
HStem: -2 51<152 232.6> 141 49<161.225 232.6> 532 61<181.1 403.4>
VStem: 90 55<65.1 124.9> 90 69<184 352.968> 238 53<65.1 124.9> 441 69<-215 524.6>
Fore
148 426 m 1xee
 108 465 32 484 14 487 c 1
 33 512 145 593 282 593 c 0
 420 593 510 530 510 422 c 2
 510 -215 l 1
 441 -215 l 1
 441 418 l 2
 441 500 377 532 289 532 c 0
 206 532 145 498 148 498 c 0
 151 498 181 483 205 466 c 0
 230 451 262 423 262 423 c 1
 250 423 159 400 159 308 c 2
 159 184 l 1xee
 159 184 174 190 196 190 c 0
 248 190 291 155 291 97 c 0
 291 35 247 -2 191 -2 c 0
 118 -2 90 49 90 101 c 2xf6
 90 322 l 2
 90 340 96 365 112 389 c 0
 124 412 148 426 148 426 c 1xee
191 49 m 0
 223 49 238 72 238 95 c 0
 238 118 223 141 191 141 c 0
 161 141 145 118 145 95 c 0xf6
 145 72 161 49 191 49 c 0
EndSplineSet
EndChar
StartChar: uni0E25
Encoding: 197 3621 164
Width: 593
Flags: HW
HStem: -2 51<148.4 229> 141 49<158.712 229> 364 55<163 292.6> 530 61<134.1 330.8>
VStem: 87 56<65.1 124.9> 87 69<184 341.8> 236 52<65.1 124.9> 412 69<0 99 215 471.8>
Fore
52 472 m 1xf7
 90 535 147 591 271 591 c 0
 317 591 363 582 394 564 c 0
 471 520 481 458 481 412 c 2
 481 0 l 1
 412 0 l 1
 412 63 l 2
 412 99 282 364 202 364 c 0
 172 364 156 334 156 308 c 2
 156 184 l 1xf7
 156 184 172 190 193 190 c 0
 246 190 288 154 288 95 c 0
 288 34 243 -2 190 -2 c 0
 115 -2 87 49 87 101 c 2xfb
 87 305 l 2
 87 345 109 419 199 419 c 0
 271 419 311 366 346 319 c 0
 392 259 411 219 412 215 c 1
 412 409 l 2
 412 481 379 530 268 530 c 0
 165 530 115 471 103 437 c 1
 52 472 l 1xf7
190 49 m 0
 220 49 236 72 236 95 c 0
 236 118 220 141 190 141 c 0
 158 141 143 118 143 95 c 0xfb
 143 72 158 49 190 49 c 0
EndSplineSet
EndChar
StartChar: uni0E26
Encoding: 198 3622 165
Width: 666
Flags: HW
HStem: -2 51<64.4 145> 141 49<64.4 135.288> 532 61<229.4 449.1>
VStem: 6 53<65.1 124.9> 138 69<184 413> 152 55<65.1 124.9> 489 69<-215 524.6>
Fore
195 426 m 1xfa
 160 461 87 483 61 487 c 1
 80 512 191 593 329 593 c 0
 466 593 558 530 558 422 c 2
 558 -215 l 1
 489 -215 l 1
 489 418 l 2
 489 500 423 532 336 532 c 0
 254 532 211 508 195 498 c 1
 198 498 227 483 253 466 c 0
 277 451 308 423 308 423 c 1
 295 423 207 400 207 308 c 2xfa
 207 101 l 2xf6
 207 49 179 -2 106 -2 c 0
 50 -2 6 35 6 97 c 0
 6 155 50 190 101 190 c 0
 122 190 138 184 138 184 c 1
 138 322 l 2
 138 392 195 426 195 426 c 1xfa
106 49 m 0
 136 49 152 72 152 95 c 0xf6
 152 118 136 141 106 141 c 0
 74 141 59 118 59 95 c 0
 59 72 74 49 106 49 c 0
EndSplineSet
EndChar
StartChar: uni0E27
Encoding: 199 3623 166
Width: 545
Flags: HW
HStem: -2 51<294.4 375> 141 49<294.4 365.775> 533 60<107.9 334.1>
VStem: 236 53<65.1 124.9> 368 69<184 532.9> 382 55<65.1 124.9>
Fore
15 454 m 1xf8
 38 513 101 593 229 593 c 0
 358 593 437 519 437 425 c 2xf8
 437 101 l 2xf4
 437 49 409 -2 336 -2 c 0
 280 -2 236 35 236 97 c 0
 236 155 279 190 331 190 c 0
 353 190 368 184 368 184 c 1
 368 412 l 2
 368 505 308 533 221 533 c 0
 134 533 83 476 69 429 c 1
 15 454 l 1xf8
336 49 m 0
 366 49 382 72 382 95 c 0xf4
 382 118 366 141 336 141 c 0
 304 141 289 118 289 95 c 0
 289 72 304 49 336 49 c 0
EndSplineSet
EndChar
StartChar: uni0E28
Encoding: 200 3624 167
Width: 610
Flags: HW
HStem: 0 21G<121 190 431 500> 227 50<196.816 263> 371 49<183.7 263> 532 61<78.5 398.3>
VStem: 25 64<283.2 445.7> 121 69<0 123.85> 124 54<292.8 355.2> 270 49<292.8 351.188> 431 69<0 406.81>
Fore
25 375 m 0xfd80
 25 465 78 593 274 593 c 0
 382 593 428 546 438 535 c 1
 448 542 475 588 483 619 c 1
 546 598 l 1
 525 526 477 487 475 486 c 1
 490 470 500 430 500 397 c 2
 500 0 l 1
 431 0 l 1
 431 366 l 2
 431 377 430 424 417 440 c 1
 386 405 319 354 313 354 c 1
 317 343 319 331 319 320 c 0
 319 261 274 227 226 227 c 0
 204 227 190 235 190 235 c 1
 190 0 l 1
 121 0 l 1
 121 98 l 2
 121 115 118 130 110 146 c 0
 88 196 25 283 25 375 c 0xfd80
89 369 m 0
 89 303 121 256 124 253 c 1
 124 317 l 2xfb80
 124 354 143 420 228 420 c 0
 269 420 284 400 285 399 c 1
 306 411 351 442 394 490 c 1
 379 501 368 532 267 532 c 0
 122 532 89 428 89 369 c 0
224 277 m 0
 254 277 270 300 270 324 c 0
 270 348 254 371 224 371 c 0
 193 371 178 348 178 324 c 0
 178 300 193 277 224 277 c 0
EndSplineSet
EndChar
StartChar: uni0E29
Encoding: 201 3625 168
Width: 666
Flags: HW
HStem: 0 66<81 155 224 463.349> 217 56<403.694 477.6> 374 43<322.2 391.1> 400 49<86.3 152.109> 541 51<86.3 163>
VStem: 31 49<465.1 524.9> 155 69<66 406> 169 55<465.1 524.9> 271 46<303.4 358> 397 44<300.1 358.6> 483 69<64.3 222 299 590>
Fore
271 327 m 0xdee0
 271 375 301 417 362 417 c 0
 411 417 440 378 441 336 c 0
 441 296 423 281 414 273 c 1
 417 273 432 271 449 271 c 0
 471 271 482 281 483 281 c 1
 483 590 l 1
 552 590 l 1
 552 299 l 1
 578 311 612 363 615 394 c 1
 667 362 l 1
 660 333 623 267 552 236 c 1
 552 89 l 2
 552 14 488 0 460 0 c 2
 81 0 l 1
 81 66 l 1
 155 66 l 1
 155 406 l 1xeee0
 155 406 141 400 121 400 c 0
 91 400 31 419 31 494 c 0
 31 571 89 592 124 592 c 0
 195 592 224 541 224 489 c 2xdde0
 224 66 l 1
 440 66 l 2
 456 66 483 73 483 102 c 2
 483 222 l 1
 482 222 465 217 435 217 c 0
 374 217 271 239 271 327 c 0xdee0
358 288 m 0
 382 288 397 307 397 330 c 0
 397 352 383 374 356 374 c 0
 330 373 317 352 317 332 c 0
 317 310 331 288 358 288 c 0
124 449 m 0xdde0
 154 449 169 472 169 495 c 0
 169 518 154 541 124 541 c 0
 95 541 80 518 80 495 c 0
 80 472 95 449 124 449 c 0xdde0
EndSplineSet
EndChar
StartChar: uni0E2A
Encoding: 202 3626 169
Width: 579
Flags: W
HStem: -2 51<133.7 214.3> 141 49<142.712 214.3> 364 56<146 252.3> 530 60<114.7 387.7>
VStem: 71 56<65.1 124.9> 71 69<184 341.8> 221 51<65.1 124.9> 395 69<0 99 215 409>
Fore
435 509 m 1xf7
 471 539 489 575 498 598 c 1
 549 555 l 1
 508 476 469 458 463 448 c 1
 463 448 464 435 464 429 c 2
 464 0 l 1
 395 0 l 1
 395 63 l 2
 395 99 265 364 185 364 c 0
 155 364 140 334 140 308 c 2
 140 184 l 1xf7
 140 184 156 190 177 190 c 0
 230 190 272 154 272 95 c 0
 272 34 227 -2 174 -2 c 0
 99 -2 71 49 71 101 c 2xfb
 71 305 l 2
 71 347 94 420 186 420 c 0
 237 420 266 397 270 394 c 1
 350 428 380 464 385 464 c 1
 379 480 355 530 246 530 c 0
 145 530 101 469 86 437 c 1
 35 472 l 1
 67 524 121 590 249 590 c 0
 376 590 431 520 435 509 c 1xf7
395 409 m 1
 373 393 337 370 300 356 c 1
 330 322 372 264 395 215 c 1
 395 409 l 1
174 49 m 0
 205 49 221 72 221 95 c 0
 221 118 205 141 174 141 c 0
 143 141 127 118 127 95 c 0xfb
 127 72 143 49 174 49 c 0
EndSplineSet
EndChar
StartChar: uni0E2B
Encoding: 203 3627 170
Width: 651
Flags: HW
HStem: 0 21G<149 218 469 538> 400 49<75.7 145.47> 541 51<75.7 156.3> 556 45<386 483.5>
VStem: 17 53<465.1 524.9> 149 69<179 406> 162 56<465.1 524.9> 333 55<458.3 536.3> 469 69<0 355.8> 486 55<476.9 535.4>
Fore
486 512 m 0xd940
 486 530 473 556 438 556 c 0
 398 556 388 530 388 509 c 0
 388 470 438 446 438 446 c 1
 456 456 486 485 486 512 c 0xd940
541 505 m 0
 541 451 488 421 481 415 c 1
 530 366 538 336 538 270 c 2
 538 0 l 1
 469 0 l 1
 469 274 l 2
 469 338 467 361 438 385 c 1
 438 385 381 327 316 225 c 0
 265 147 239 89 218 0 c 1xdb80
 149 0 l 1
 149 406 l 1xdd
 149 406 133 400 112 400 c 0
 59 400 17 436 17 495 c 0
 17 556 63 592 116 592 c 0
 190 592 218 541 218 489 c 2xeb
 218 179 l 1xed
 274 282 355 377 399 415 c 1
 362 436 333 456 333 517 c 0
 333 549 361 601 437 601 c 0
 524 601 541 531 541 505 c 0
116 449 m 0
 147 449 162 472 162 495 c 0
 162 518 147 541 116 541 c 0xeb
 85 541 70 518 70 495 c 0
 70 472 85 449 116 449 c 0
EndSplineSet
EndChar
StartChar: uni0E2C
Encoding: 204 3628 171
Width: 706
Flags: HMW
HStem: 0 21G<139 224 517 605> 388 49<78.3 137.129> 455 57<383.5 503.12> 530 49<78.3 155> 589 55<392.3 519.7>
VStem: 23 49<452.8 513.9> 139 69<116 394> 161 47<452.8 513.9> 302 64<549.5 555 549.5 555> 536 69<104 468>
Fore
546 540 m 0
 546 550 505 589 456 589 c 0
 407 589 366 559 366 551 c 0
 366 548 400 512 455 512 c 0
 500 512 546 522 546 540 c 0
23 480 m 0
 23 544 64 579 116 579 c 0
 187 579 208 530 208 477 c 2
 208 116 l 1
 345 435 l 1
 353 437 394 435 395 435 c 1
 536 104 l 1
 536 468 l 1
 520 460 472 455 445 455 c 0
 371 455 302 509 302 545 c 0
 302 565 347 644 452 644 c 0
 552 644 582 583 597 566 c 1
 625 588 662 650 666 658 c 1
 702 616 l 1
 688 582 634 518 605 503 c 1
 605 0 l 1
 517 0 l 1
 370 334 l 1
 224 0 l 1
 139 0 l 1
 139 394 l 1
 139 394 128 388 109 388 c 0
 75 388 23 414 23 480 c 0
116 437 m 0
 146 437 161 460 161 484 c 0
 161 507 146 530 116 530 c 0
 87 530 72 507 72 484 c 0
 72 460 87 437 116 437 c 0
EndSplineSet
EndChar
StartChar: uni0E2D
Encoding: 205 3629 172
Width: 567
Flags: W
HStem: 0 66<184.735 406> 216 49<159.393 224.7> 359 50<148 224.7> 532 61<200.5 373.6>
VStem: 87 55<280.8 343.2> 87 69<56.3 222> 231 50<280.8 343.2> 394 69<87.4278 508>
Fore
57 477 m 1xf7
 110 584 217 593 272 593 c 0
 383 593 463 525 463 420 c 2
 463 92 l 2
 463 18 409 0 380 0 c 2
 175 0 l 2
 139 0 87 22 87 98 c 2xf7
 87 305 l 2xfb
 87 353 119 409 187 409 c 0
 220 409 281 389 281 310 c 0
 281 254 240 216 190 216 c 0
 171 216 156 222 156 222 c 1
 156 120 l 2
 156 71 192 66 198 66 c 2
 354 66 l 2
 394 66 394 92 394 115 c 2
 394 417 l 2
 394 487 349 532 267 532 c 0
 184 532 129 497 109 445 c 1
 57 477 l 1xf7
187 265 m 0
 216 265 231 288 231 312 c 0
 231 336 216 359 187 359 c 0
 157 359 142 336 142 312 c 0xfb
 142 288 157 265 187 265 c 0
EndSplineSet
EndChar
StartChar: uni0E2E
Encoding: 206 3630 173
Width: 547
Flags: HMW
HStem: 0 66<146 383.7> 148 50<126.099 190> 291 49<113.3 190> 400 52<145.7 312.1> 536 57<141 303.5>
VStem: 25 72<488 501 488 512.5> 51 57<214.1 275.2> 51 69<74.5 155> 196 50<214.1 275.2> 372 69<77.3562 437.754>
Fore
405 529 m 1xf9c0
 409 530 435 560 451 599 c 1
 500 566 l 1
 491 546 468 502 434 474 c 1
 436 468 441 458 441 448 c 2
 441 92 l 2
 441 10 383 0 359 0 c 2
 139 0 l 2
 89 0 51 38 51 98 c 2xf9c0
 51 238 l 2xfac0
 51 286 84 340 155 340 c 0
 209 340 246 299 246 243 c 0
 246 186 206 148 157 148 c 0
 136 148 120 155 120 155 c 1
 120 120 l 2
 120 85 146 66 163 66 c 2
 333 66 l 2
 372 66 372 91 372 115 c 2
 372 403 l 2
 372 429 371 434 368 440 c 1
 358 434 311 400 213 400 c 0
 102 400 25 457 25 494 c 0
 25 531 127 593 235 593 c 0
 354 593 379 549 405 529 c 1xf9c0
356 494 m 1
 316 522 290 536 245 536 c 0
 165 536 97 508 97 494 c 0
 97 482 164 452 225 452 c 0
 292 452 315 467 356 494 c 1
151 198 m 0
 181 198 196 221 196 244 c 0
 196 268 181 291 151 291 c 0
 122 291 108 268 108 244 c 0xfac0
 108 221 122 198 151 198 c 0
EndSplineSet
EndChar
StartChar: uni0E2F
Encoding: 207 3631 174
Width: 518
Flags: HW
HStem: 282 54<89.6 319.8> 405 47<119.345 187.3> 546 44<106.7 187.3>
VStem: 34 66<460 528.9> 193 47<469.1 528.9> 378 68<110.336 372 432.6 583.4>
Fore
387 591 m 0
 406 591 446 579 446 530 c 2
 446 144 l 2
 446 115 440 66 403 35 c 0
 377 14 356 0 319 -2 c 1
 290 51 l 1
 305 51 333 58 357 83 c 0
 372 98 377 121 377 146 c 2
 377 372 l 1
 353 328 294 282 208 282 c 0
 86 282 34 373 34 460 c 0
 34 558 101 590 147 590 c 0
 202 590 240 557 240 503 c 0
 240 447 200 405 148 405 c 0
 134 405 119 409 106 415 c 1
 110 400 116 336 204 336 c 0
 316 336 378 465 378 573 c 0
 378 581 377 587 377 590 c 1
 380 591 384 591 387 591 c 0
147 452 m 0
 178 452 193 476 193 499 c 0
 193 522 178 546 147 546 c 0
 116 546 100 522 100 499 c 0
 100 476 116 452 147 452 c 0
EndSplineSet
EndChar
StartChar: uni0E30
Encoding: 208 3632 175
Width: 510
Flags: HW
HStem: 10 62<122.4 205.6> 169 47<122.4 205.6> 366 62<122.4 205.6> 524 47<122.4 205.6>
VStem: 64 52<88.8 152.5 444.8 507.2> 211 49<88.8 152.5 444.8 507.2>
Fore
163 571 m 0
 199 571 260 552 260 476 c 0
 260 457 256 445 247 428 c 1
 330 448 400 514 435 572 c 1
 435 472 l 1
 427 459 331 366 204 366 c 0
 131 366 64 399 64 474 c 0
 64 533 108 571 163 571 c 0
163 216 m 0
 198 216 260 197 260 120 c 0
 260 101 256 89 247 72 c 1
 268 78 364 103 435 216 c 1
 435 116 l 1
 426 103 329 10 203 10 c 0
 130 10 64 43 64 119 c 0
 64 178 108 216 163 216 c 0
164 428 m 0
 196 428 211 452 211 476 c 0
 211 500 196 524 164 524 c 0
 132 524 116 500 116 476 c 0
 116 452 132 428 164 428 c 0
164 72 m 0
 196 72 211 96 211 120 c 0
 211 145 196 169 164 169 c 0
 132 169 116 145 116 120 c 0
 116 96 132 72 164 72 c 0
EndSplineSet
EndChar
StartChar: uni0E31
Encoding: 209 3633 176
Width: 0
Flags: HW
HStem: 713 62<-220.253 -53> 891 45<-328.2 -239.8>
VStem: -381 47<806.2 873.8> -233 47<806.2 873.8>
AnchorPoint: "AboveMark" -113 988 basemark 0
AnchorPoint: "AboveBase" -113 659 mark 0
Fore
-187 775 m 0
 -41 775 61 894 78 921 c 1
 78 812 l 1
 24 763 -89 713 -209 713 c 0
 -342 713 -381 786 -381 834 c 0
 -381 884 -349 936 -281 936 c 0
 -222 936 -186 891 -186 842 c 0
 -186 795 -209 781 -213 776 c 1
 -204 776 -196 775 -187 775 c 0
-284 789 m 0
 -250 789 -233 814 -233 840 c 0
 -233 866 -250 891 -284 891 c 0
 -318 891 -334 866 -334 840 c 0
 -334 814 -318 789 -284 789 c 0
EndSplineSet
EndChar
StartChar: uni0E32
Encoding: 210 3634 177
Width: 438
Flags: W
HStem: 0 21G<290 359> 532 60<70.7 294.3>
VStem: 290 69<0 521.7>
Fore
179 592 m 0
 332 592 359 507 359 418 c 2
 359 0 l 1
 290 0 l 1
 290 406 l 2
 290 495 270 532 189 532 c 0
 98 532 74 472 58 441 c 1
 6 477 l 1
 31 530 62 592 179 592 c 0
EndSplineSet
EndChar
StartChar: uni0E33
Encoding: 211 3635 178
Width: 438
Flags: W
HStem: 0 21<290 359> 532 60<70.7 294.3> 633 46<-218.1 -120.6> 791 46<-218.1 -120.6>
VStem: -271 45<698.6 771.4> -114 46<698.6 771.4> 290 69<0 521.7>
Back
-182 676 m 0
 -182 676 l 0
 -323 676 -323 889 -182 889 c 0
 -41 889 -41 676 -182 676 c 0
-182 728 m 0
 -182 728 l 0
 -109 728 -109 837 -182 837 c 0
 -254 837 -254 728 -182 728 c 0
353 0 m 1
 284 0 l 1
 284 406 l 2
 284 495 264 532 182 532 c 0
 92 532 67 472 52 441 c 1
 0 477 l 1
 26 532 58 596 184 592 c 0
 330 587 353 503 353 418 c 2
 353 0 l 1
EndSplineSet
Refer: 177 3634 N 1 0 0 1 0 0 2
Refer: 201 3661 N 1 0 0 1 0 0 2
MultipleSubs: 0 65534 'amd0' uni0E4D uni0E32
Substitution: 0 65534 'amaa' uni0E32
EndChar
StartChar: uni0E34
Encoding: 212 3636 179
Width: 0
Flags: HW
HStem: 704 55<-412.7 -246.3> 829 54<-426.6 -240.7>
VStem: -561 449<656 815.9 656 662>
AnchorPoint: "AboveMark" -147 988 basemark 0
AnchorPoint: "AboveBase" -113 659 mark 0
Fore
-112 656 m 1
 -195 690 -244 704 -338 704 c 0
 -425 704 -481 692 -561 662 c 1
 -559 789 -472 883 -335 883 c 0
 -207 883 -112 779 -112 656 c 1
-483 737 m 1
 -441 750 -395 759 -336 759 c 0
 -267 759 -215 743 -176 730 c 1
 -205 794 -262 829 -333 829 c 0
 -405 829 -452 797 -483 737 c 1
EndSplineSet
EndChar
StartChar: uni0E35
Encoding: 213 3637 180
Width: 0
Flags: W
HStem: 708 54<-436.7 -232.6> 834 53<-412.3 -226.4>
VStem: -182 69<829 956>
AnchorPoint: "AboveMark" -147 988 basemark 0
AnchorPoint: "AboveBase" -113 659 mark 0
Fore
-98 661 m 1
 -184 696 -233 708 -334 708 c 0
 -415 708 -471 696 -547 667 c 1
 -549 792 -449 887 -325 887 c 0
 -213 887 -184 829 -182 829 c 1
 -182 956 l 1
 -113 956 l 1
 -113 760 l 1
 -101 722 -98 671 -98 661 c 1
-469 742 m 1
 -455 746 -410 762 -321 762 c 0
 -253 762 -203 748 -164 734 c 1
 -192 799 -248 834 -320 834 c 0
 -391 834 -440 800 -469 742 c 1
EndSplineSet
EndChar
StartChar: uni0E36
Encoding: 214 3638 181
Width: 0
Flags: W
HStem: 688 55<-422.3 -244.2> 814 20<-333 -196> 924 44<-235 -157>
VStem: -288 47<862.878 908.9> -150 46<849.1 908.9>
AnchorPoint: "AboveMark" -196 988 basemark 0
AnchorPoint: "AboveBase" -113 659 mark 0
Fore
-104 879 m 0
 -104 852 -113 814 -158 796 c 1
 -153 795 -112 743 -112 642 c 1
 -192 675 -239 688 -328 688 c 0
 -420 688 -477 680 -559 648 c 1
 -559 784 -459 873 -334 873 c 0
 -306 873 -288 868 -285 868 c 1
 -286 874 -288 881 -288 890 c 0
 -288 917 -265 968 -197 968 c 0
 -139 968 -104 928 -104 879 c 0
-196 834 m 0
 -166 834 -150 856 -150 879 c 0
 -150 902 -166 924 -196 924 c 0
 -226 924 -241 902 -241 879 c 0
 -241 856 -226 834 -196 834 c 0
-481 723 m 1
 -432 737 -401 743 -330 743 c 0
 -264 743 -214 727 -176 716 c 1
 -205 779 -262 814 -333 814 c 0
 -403 814 -452 782 -481 723 c 1
EndSplineSet
EndChar
StartChar: uni0E37
Encoding: 215 3639 182
Width: 0
Flags: W
HStem: 705 55<-395.559 -222.2> 831 60<-403.3 -291.868>
VStem: -299 68<889 958> -179 67<842 958>
AnchorPoint: "AboveMark" -205 988 basemark 0
AnchorPoint: "AboveBase" -113 659 mark 0
Fore
-538 677 m 2
 -538 805 -446 891 -324 891 c 0
 -314 891 -305 890 -299 889 c 1
 -299 958 l 1
 -231 958 l 1
 -231 877 l 1
 -216 870 -194 859 -179 842 c 1
 -179 958 l 1
 -112 958 l 1
 -112 757 l 2
 -112 754 -101 728 -98 710 c 0
 -94 688 -90 664 -90 658 c 1
 -171 691 -218 705 -308 705 c 0
 -401 705 -456 695 -538 664 c 1
 -538 677 l 2
-460 739 m 1
 -402 757 -361 760 -308 760 c 0
 -242 760 -193 744 -155 733 c 1
 -184 796 -241 831 -311 831 c 0
 -382 831 -431 799 -460 739 c 1
EndSplineSet
EndChar
StartChar: uni0E38
Encoding: 216 3640 183
Width: 0
Flags: W
HStem: -203 51<-233.9 -180.421> -85 50<-233.9 -174.1>
VStem: -289 50<-140.1 -97.2> -181 69<-313 -198> -170 58<-140.1 -97.2>
AnchorPoint: "BelowBase" -113 -35 mark 0
Back
-112 -313 m 1
 -189 -313 l 1
 -189 -198 l 1
 -189 -198 -213 -210 -245 -196 c 0
 -279 -182 -299 -162 -297 -113 c 0
 -297 -74 -267 -34 -201 -35 c 0
 -130 -37 -112 -78 -112 -127 c 2
 -112 -313 l 1
-207 -150 m 0
 -162 -150 -162 -83 -207 -83 c 0
 -253 -83 -253 -150 -207 -150 c 0
EndSplineSet
Fore
-203 -35 m 0xf0
 -130 -35 -112 -79 -112 -127 c 2xe8
 -112 -313 l 1
 -181 -313 l 1
 -181 -198 l 1
 -181 -198 -191 -203 -206 -203 c 0
 -229 -203 -289 -188 -289 -120 c 0
 -289 -73 -263 -35 -203 -35 c 0xf0
-204 -152 m 0
 -181 -152 -170 -135 -170 -118 c 0
 -170 -102 -181 -85 -204 -85 c 0
 -227 -85 -239 -102 -239 -118 c 0
 -239 -135 -227 -152 -204 -152 c 0
EndSplineSet
EndChar
StartChar: uni0E39
Encoding: 217 3641 184
Width: 0
Flags: W
HStem: -308 47<-244 -182> -203 48<-363.6 -308.242> -87 47<-363.6 -305.1>
VStem: -416 47<-143.1 -98.9> -308 64<-261 -198> -301 57<-143.1 -98.9> -182 64<-261.973 -44>
AnchorPoint: "BelowBase" -113 -35 mark 0
Fore
-416 -122 m 0xfa
 -416 -70 -376 -40 -332 -40 c 0
 -269 -40 -244 -81 -244 -126 c 2xf6
 -244 -261 l 1
 -199 -261 l 2
 -182 -261 -182 -253 -182 -236 c 2
 -182 -44 l 1
 -118 -44 l 1
 -118 -247 l 2
 -118 -279 -123 -308 -153 -308 c 2
 -308 -308 l 1
 -308 -198 l 1
 -308 -198 -320 -203 -336 -203 c 0
 -380 -203 -416 -170 -416 -122 c 0xfa
-335 -155 m 0
 -312 -155 -301 -138 -301 -121 c 0
 -301 -104 -312 -87 -335 -87 c 0
 -357 -87 -369 -104 -369 -121 c 0
 -369 -138 -357 -155 -335 -155 c 0
EndSplineSet
EndChar
StartChar: uni0E3A
Encoding: 218 3642 185
Width: 0
Flags: W
HStem: -196 122<-216 -112>
VStem: -224 121<-175.3 -94.7>
AnchorPoint: "BelowBase" -113 -35 mark 0
Fore
-164 -196 m 0
 -204 -196 -224 -166 -224 -135 c 0
 -224 -104 -204 -74 -164 -74 c 0
 -124 -74 -103 -104 -103 -135 c 0
 -103 -166 -124 -196 -164 -196 c 0
EndSplineSet
EndChar
StartChar: uni0E4D.high
Encoding: 219 63262 186
Width: 0
Flags: HW
TeX: 0 0 0 0
HStem: 963 46<-218.1 -120.6> 1121 46<-218.1 -120.6>
VStem: -271 45<1028.6 1101.4> -114 46<1028.6 1101.4>
AnchorPoint: "AboveMark" -170 988 mark 0
Fore
-170 963 m 0
 -238 963 -271 1014 -271 1065 c 0
 -271 1116 -238 1167 -170 1167 c 0
 -102 1167 -68 1116 -68 1065 c 0
 -68 1014 -102 963 -170 963 c 0
-170 1009 m 0
 -132 1009 -114 1037 -114 1065 c 0
 -114 1093 -132 1121 -170 1121 c 0
 -207 1121 -226 1093 -226 1065 c 0
 -226 1037 -207 1009 -170 1009 c 0
EndSplineSet
EndChar
StartChar: uni0E3F
Encoding: 223 3647 187
Width: 629
Flags: HW
HStem: 0 71<155 258 328 414> 322 72<155 258 328 345> 624 70<155 258 328 411.85>
VStem: 84 71<71 322 394 624> 258 70<-94 0 71 322 394 624 694 779> 478 72<438.1 560.2> 510 69<123.6 348.5>
Fore
258 394 m 1xf8
 258 624 l 1
 155 624 l 1
 155 394 l 1
 258 394 l 1xf8
258 71 m 1
 258 322 l 1
 155 322 l 1
 155 71 l 1
 258 71 l 1
328 322 m 1
 328 71 l 1
 385 71 l 2
 481 71 510 141 510 199 c 0xfa
 510 314 418 322 337 322 c 2
 328 322 l 1
328 624 m 1
 328 394 l 1
 345 394 l 2
 443 394 478 452 478 503 c 0xfc
 478 547 457 618 328 624 c 1
451 368 m 1
 487 348 579 321 579 195 c 0xfa
 579 52 460 0 414 0 c 2
 328 0 l 1
 328 -94 l 1
 258 -94 l 1
 258 0 l 1
 84 0 l 1
 84 694 l 1
 258 694 l 1
 258 779 l 1
 328 779 l 1
 328 694 l 1
 376 694 l 2
 432 694 550 651 550 520 c 0
 550 457 520 400 451 368 c 1
EndSplineSet
EndChar
StartChar: uni0E40
Encoding: 224 3648 188
Width: 340
Flags: HW
HStem: -2 51<154.7 235.3> 141 49<164.712 235.3> 570 20G<93 162>
VStem: 93 69<184 590> 93 55<65.1 124.9> 242 52<65.1 124.9>
Fore
294 95 m 0xf4
 294 34 248 -2 195 -2 c 0
 121 -2 93 49 93 101 c 2xec
 93 590 l 1
 162 590 l 1
 162 184 l 1
 162 184 178 190 199 190 c 0
 252 190 294 154 294 95 c 0xf4
195 49 m 0
 226 49 242 72 242 95 c 0
 242 118 226 141 195 141 c 0
 164 141 148 118 148 95 c 0
 148 72 164 49 195 49 c 0
EndSplineSet
EndChar
StartChar: uni0E41
Encoding: 225 3649 189
Width: 600
Flags: HW
HStem: -2 51<154.7 235.3 422.7 503.3> 141 49<164.712 235.3 431.225 503.3> 570 20G<93 162 360 429>
VStem: 93 69<184 590> 93 55<65.1 124.9> 242 52<65.1 124.9> 360 69<184 590> 360 56<65.1 124.9> 509 52<65.1 124.9>
Fore
561 98 m 0xe680
 561 18 499 -2 462 -2 c 0
 388 -2 360 49 360 101 c 2xe580
 360 590 l 1
 429 590 l 1
 429 184 l 1
 429 184 444 190 466 190 c 0
 498 190 561 172 561 98 c 0xe680
294 95 m 0
 294 34 248 -2 195 -2 c 0
 121 -2 93 49 93 101 c 2xec80
 93 590 l 1
 162 590 l 1
 162 184 l 1xf480
 162 184 178 190 199 190 c 0
 252 190 294 154 294 95 c 0
463 49 m 0
 494 49 509 72 509 95 c 0
 509 118 494 141 463 141 c 0
 432 141 416 118 416 95 c 0xe580
 416 72 432 49 463 49 c 0
195 49 m 0
 226 49 242 72 242 95 c 0
 242 118 226 141 195 141 c 0
 164 141 148 118 148 95 c 0xec80
 148 72 164 49 195 49 c 0
EndSplineSet
EndChar
StartChar: uni0E42
Encoding: 226 3650 190
Width: 413
Flags: HW
HStem: -2 51<200.7 281.3> 141 49<210.712 281.3> 938 58<217.1 312> 981 49<56.9 194.7>
VStem: 139 55<65.1 124.9> 139 69<184 862.7> 288 52<65.1 124.9>
Fore
-60 937 m 1xd6
 -23 988 35 1030 114 1030 c 0xd6
 183 1030 230 996 273 996 c 0
 303 996 326 1008 330 1013 c 1
 353 963 l 1
 353 963 332 938 284 938 c 0xe6
 222 938 177 981 118 981 c 0
 71 981 48 958 43 955 c 1
 46 955 109 932 146 907 c 0
 185 881 208 857 208 809 c 2
 208 184 l 1xd6
 208 184 224 190 245 190 c 0
 298 190 340 154 340 95 c 0
 340 34 294 -2 241 -2 c 0
 167 -2 139 49 139 101 c 2xda
 139 799 l 2
 139 848 116 863 57 894 c 0
 6 920 -54 937 -60 937 c 1xd6
241 49 m 0
 272 49 288 72 288 95 c 0
 288 118 272 141 241 141 c 0
 210 141 194 118 194 95 c 0xca
 194 72 210 49 241 49 c 0
EndSplineSet
EndChar
StartChar: uni0E43
Encoding: 227 3651 191
Width: 400
Flags: HW
HStem: -2 51<211 291.6> 141 49<220.225 291.6> 765 43<12.3 61.7> 886 44<30.2238 60.4> 976 49<51.7 133.6>
VStem: -37 46<820.3 871> 65 42<820.3 871> 149 69<184 956> 149 55<65.1 124.9> 297 53<65.1 124.9>
Fore
350 97 m 0xff40
 350 38 307 -2 250 -2 c 0
 176 -2 149 49 149 101 c 2xfec0
 149 917 l 2
 149 947 124 976 92 976 c 0
 61 976 38 958 34 929 c 1
 36 929 40 930 47 930 c 0
 95 930 107 887 107 852 c 0
 107 803 84 765 39 765 c 0
 8 765 -37 782 -37 867 c 0
 -37 955 9 1025 97 1025 c 0
 176 1025 218 975 218 912 c 2
 218 184 l 1
 218 184 233 190 255 190 c 0
 288 190 350 170 350 97 c 0xff40
37 808 m 0
 56 808 65 826 65 845 c 0
 65 865 55 886 37 886 c 0
 19 886 9 865 9 845 c 0
 9 826 18 808 37 808 c 0
250 49 m 0
 282 49 297 72 297 95 c 0
 297 118 282 141 250 141 c 0
 220 141 204 118 204 95 c 0
 204 72 220 49 250 49 c 0
EndSplineSet
EndChar
StartChar: uni0E44
Encoding: 228 3652 192
Width: 449
Flags: HMW
HStem: -2 51<246.4 327> 141 49<258.225 327> 972 58<-69 -18.6 160.4 189>
VStem: 187 69<184 966.824> 187 54<65.1 124.9> 334 52<65.1 124.9>
Fore
386 96 m 0
 386 18 325 -2 288 -2 c 0
 215 -2 187 49 187 101 c 2
 187 935 l 2
 187 938 187 942 187 946 c 0
 187 959 186 972 176 972 c 0
 164 972 161 955 158 944 c 2
 112 737 l 2
 100 681 64 677 50 677 c 0
 12 677 -5 708 -8 740 c 2
 -21 906 l 2
 -21 929 -30 973 -68 973 c 0
 -69 973 -69 973 -69 973 c 1
 -69 1030 l 1
 -65 1030 -61 1031 -57 1031 c 0
 -27 1031 32 1017 37 938 c 2
 54 728 l 1
 110 973 l 2
 116 997 137 1030 181 1030 c 0
 239 1030 256 995 256 941 c 2
 256 184 l 1
 256 184 271 190 293 190 c 0
 327 190 386 171 386 96 c 0
288 49 m 0
 318 49 334 72 334 95 c 0
 334 118 318 141 288 141 c 0
 256 141 241 118 241 95 c 0
 241 72 256 49 288 49 c 0
EndSplineSet
EndChar
StartChar: uni0E45
Encoding: 229 3653 193
Width: 220
Flags: HW
HStem: 535 55<-94.2 100.8>
VStem: 94 68<-218 469>
Fore
162 -218 m 1
 94 -218 l 1
 94 411 l 2
 94 469 81 535 15 535 c 0
 -69 535 -89 503 -103 455 c 1
 -113 461 -158 486 -150 481 c 1
 -138 533 -115 590 12 590 c 0
 154 590 162 499 162 420 c 2
 162 -218 l 1
EndSplineSet
EndChar
StartChar: uni0E46
Encoding: 230 3654 194
Width: 565
Flags: MW
HStem: 241 46<158.1 243.9> 386 46<158.1 243.9> 486 55<281 281> 524 66<210 210 210 214>
VStem: 74 65<405.887 463.026> 251 48<304.8 368.5> 432 71<-104.8 472.019>
Fore
202 241 m 0
 113 241 74 318 74 409 c 0
 74 445 76 555 210 590 c 1
 281 541 l 1
 348 590 l 1
 357 590 411 582 440 563 c 0
 478 535 503 494 503 457 c 2
 503 -58 l 2
 503 -110 487 -152 449 -185 c 0
 411 -219 354 -242 326 -244 c 1
 294 -193 l 1
 299 -193 363 -175 397 -144 c 0
 423 -123 432 -94 432 -58 c 2
 432 441 l 2
 432 468 428 492 408 507 c 0
 395 518 374 524 355 524 c 1
 281 486 l 1
 214 524 l 1
 186 524 139 484 139 434 c 0
 139 427 139 420 141 412 c 1
 141 412 161 432 202 432 c 0
 273 432 299 371 299 333 c 0
 299 294 270 241 202 241 c 0
201 287 m 0
 234 287 251 312 251 336 c 0
 251 361 234 386 201 386 c 0
 168 386 152 361 152 336 c 0
 152 312 168 287 201 287 c 0
EndSplineSet
EndChar
StartChar: uni0E47
Encoding: 231 3655 195
Width: 0
Flags: W
HStem: 668 49<-226.1 -179.3> 749 59<-410.4 -328.5> 769 51<-226.1 -179.3> 862 55<-284.2 -154.6> 875 54<-466.3 -297.2>
VStem: -519 64<773.239 837.5> -178 48<726.139 761.2>
AnchorPoint: "AboveMark" -323 659 mark 0
AnchorPoint: "AboveBase" -113 659 mark 0
Back
-64 975 m 1xa0
 -64 975 l 0xa0
 -64 958 -71 940 -78 924 c 0
 -113 861 -193 858 -254 864 c 0
 -281 868 -307 871 -331 874 c 0
 -380 878 -422 875 -443 843 c 0
 -458 823 -457 800 -451 777 c 1
 -449 769 l 1
 -403 832 -325 811 -274 766 c 1
 -259 845 -129 838 -130 739 c 0xc0
 -130 688 -178 659 -227 671 c 0
 -262 679 -285 702 -311 723 c 0
 -334 742 -357 756 -389 745 c 0
 -418 737 -426 705 -426 671 c 2
 -426 664 l 1
 -478 684 -512 719 -518 776 c 0
 -527 849 -486 907 -434 921 c 0
 -351 944 -285 912 -204 917 c 0
 -166 918 -138 937 -138 975 c 2
 -138 979 l 1
 -64 979 l 1
 -64 975 l 1xa0
-178 743 m 0xc0
 -178 757 -185 769 -204 769 c 0
 -221 769 -228 757 -228 743 c 0
 -228 731 -221 717 -204 717 c 0
 -185 717 -178 731 -178 743 c 0xc0
EndSplineSet
Fore
-426 664 m 1xc6
 -472 682 -519 717 -519 796 c 0
 -519 891 -453 929 -370 929 c 0xce
 -314 929 -290 917 -204 917 c 0
 -166 917 -138 937 -138 975 c 2
 -138 979 l 1
 -64 979 l 1
 -64 975 l 2
 -64 958 -71 940 -78 924 c 0
 -106 874 -161 862 -214 862 c 0x96
 -268 862 -310 875 -361 875 c 0
 -442 875 -455 830 -455 805 c 0
 -455 793 -453 783 -449 769 c 1xae
 -428 797 -402 808 -374 808 c 0xc6
 -339 808 -302 791 -274 766 c 1
 -267 802 -237 820 -206 820 c 0xa6
 -168 820 -130 794 -130 740 c 0
 -130 696 -164 668 -205 668 c 0
 -279 668 -312 749 -367 749 c 0
 -414 749 -426 712 -426 671 c 2
 -426 664 l 1xc6
-178 743 m 0
 -178 757 -185 769 -204 769 c 0xa6
 -221 769 -228 757 -228 743 c 0
 -228 731 -221 717 -204 717 c 0
 -185 717 -178 731 -178 743 c 0
EndSplineSet
EndChar
StartChar: uni0E48
Encoding: 232 3656 196
Width: 0
Flags: W
VStem: -179 66<992 1179>
AnchorPoint: "AboveMark" -147 988 mark 0
Fore
-113 992 m 1
 -179 992 l 1
 -179 1179 l 1
 -113 1179 l 1
 -113 992 l 1
EndSplineSet
MultipleSubs: 0 65534 'amtn' uni0E4D uni0E48
Substitution: 0 65534 'loww' uni0E48.low
EndChar
StartChar: uni0E49
Encoding: 233 3657 197
Width: 0
Flags: HW
HStem: 1051 39<-274.1 -232.131> 1166 38<-273.1 -208.1>
VStem: -324 45<1102.3 1151.7> -202 43<1102.6 1152>
AnchorPoint: "AboveMark" -150 988 mark 0
Fore
17 1104 m 1
 -11 1068 -38 1036 -106 1007 c 0
 -150 986 -193 980 -231 980 c 0
 -250 980 -268 982 -285 984 c 1
 -259.327 1000.5 -239.888 1027.56 -235 1052 c 1
 -239 1051 -243 1051 -247 1051 c 0
 -287 1051 -324 1082 -324 1127 c 0
 -324 1168 -295 1206 -239 1204 c 0
 -180 1202 -159 1166 -159 1124 c 0
 -159 1074 -189 1030 -192 1029 c 1
 -94.1856 1051.75 -8.6804 1142.14 17 1199 c 1
 17 1104 l 1
-239 1090 m 0
 -214 1090 -202 1108 -202 1126 c 0
 -202 1146 -215 1166 -238 1166 c 0
 -265 1166 -279 1146 -279 1127 c 0
 -279 1108 -266 1090 -239 1090 c 0
EndSplineSet
MultipleSubs: 0 65534 'amtn' uni0E4D uni0E49
Substitution: 0 65534 'loww' uni0E49.low
EndChar
StartChar: uni0E4A
Encoding: 234 3658 198
Width: 0
Flags: HW
HStem: 978 32<-265.4 -219.9> 1065 34<-264.8 -220.6> 1146 45<-269.4 -207.5 -149.7 -81.3>
VStem: -329 47<1084 1129.3> -216 35<1018.8 1055.2> -83 50<1042.8 1120.7>
AnchorPoint: "AboveMark" -154 988 mark 0
Fore
-57 1021 m 1
 -16 1040 31 1092 31 1185 c 1
 78 1143 l 1
 66 1069 3 982 -109 982 c 0
 -116 982 -122 983 -129 983 c 1
 -114 991 -83 1034 -83 1083 c 0
 -83 1112 -93 1146 -132 1146 c 0
 -157 1146 -175 1127 -179 1122 c 1
 -183 1127 -209 1144 -233 1144 c 0
 -261 1144 -282 1120 -282 1089 c 0
 -282 1088 -282 1086 -282 1084 c 1
 -270 1094 -261 1099 -238 1099 c 0
 -203 1099 -181 1070 -181 1040 c 0
 -181 1003 -208 978 -246 978 c 0
 -296 978 -329 1023 -329 1080 c 0
 -329 1122 -312 1191 -240 1191 c 0
 -215 1191 -195 1178 -181 1156 c 1
 -167 1179 -141 1191 -112 1191 c 0
 -78 1191 -33 1165 -33 1100 c 0
 -33 1056 -54 1025 -57 1021 c 1
-242 1010 m 0
 -225 1010 -216 1023 -216 1037 c 0
 -216 1051 -226 1065 -244 1065 c 0
 -260 1065 -269 1051 -269 1038 c 0
 -269 1024 -260 1010 -242 1010 c 0
EndSplineSet
MultipleSubs: 0 65534 'amtn' uni0E4D uni0E4A
Substitution: 0 65534 'loww' uni0E4A.low
EndChar
StartChar: uni0E4B
Encoding: 235 3659 199
Width: 0
Flags: W
HStem: 1052 62<-259 -175 -112 -32>
VStem: -175 63<975 1052 1114 1196>
AnchorPoint: "AboveMark" -145 973 mark 0
Fore
-32 1052 m 1
 -112 1052 l 1
 -112 975 l 1
 -175 975 l 1
 -175 1052 l 1
 -259 1052 l 1
 -259 1114 l 1
 -175 1114 l 1
 -175 1196 l 1
 -112 1196 l 1
 -112 1114 l 1
 -32 1114 l 1
 -32 1052 l 1
EndSplineSet
MultipleSubs: 0 65534 'amtn' uni0E4D uni0E4B
Substitution: 0 65534 'loww' uni0E4B.low
EndChar
StartChar: uni0E4C
Encoding: 236 3660 200
Width: 0
Flags: W
HStem: 891 39<-226.4 -154.9> 1012 36<-222.53 -156.9>
VStem: -295 63<944.7 1004> -150 41<944 997.3>
AnchorPoint: "AboveMark" -190 889 mark 0
Back
35 1196 m 1
 35 1196 l 0
 32 1183 35 1140 -15 1113 c 0
 -77 1079 -152 1101 -205 1074 c 0
 -231 1061 -233 1038 -235 1033 c 1
 -221 1044 -213 1048 -185 1048 c 0
 -144 1048 -109 1018 -109 972 c 0
 -109 923 -146 894 -189 891 c 0
 -265 889 -310 967 -291 1036 c 0
 -270 1114 -208 1136 -107 1136 c 0
 -28 1136 -35 1193 -31 1196 c 1
 35 1196 l 1
-190 930 m 0
 -136 930 -138 1012 -192 1012 c 0
 -247 1012 -245 930 -190 930 c 0
EndSplineSet
Fore
-109 972 m 0
 -109 918 -155 891 -192 891 c 0
 -254 891 -295 946 -295 1004 c 0
 -295 1014 -294 1025 -291 1036 c 0
 -270 1114 -208 1136 -107 1136 c 0
 -28 1136 -35 1193 -31 1196 c 1
 35 1196 l 1
 32 1183 35 1140 -15 1113 c 0
 -77 1079 -152 1101 -205 1074 c 0
 -231 1061 -233 1038 -235 1033 c 1
 -221 1044 -213 1048 -185 1048 c 0
 -144 1048 -109 1018 -109 972 c 0
-190 930 m 0
 -163 930 -150 950 -150 970 c 0
 -150 991 -165 1012 -192 1012 c 0
 -219 1012 -232 992 -232 972 c 0
 -232 951 -218 930 -190 930 c 0
EndSplineSet
MultipleSubs: 0 65534 'amtn' uni0E4D uni0E4C
Substitution: 0 65534 'loww' uni0E4C.low
EndChar
StartChar: uni0E4D
Encoding: 237 3661 201
Width: 0
Flags: W
HStem: 633 46<-218.1 -120.6> 791 46<-218.1 -120.6>
VStem: -271 45<698.6 771.4> -114 46<698.6 771.4>
AnchorPoint: "AboveMark" -170 988 basemark 0
AnchorPoint: "AboveBase" -67 659 mark 0
Fore
-170 633 m 0
 -238 633 -271 684 -271 735 c 0
 -271 786 -238 837 -170 837 c 0
 -102 837 -68 786 -68 735 c 0
 -68 684 -102 633 -170 633 c 0
-170 679 m 0
 -132 679 -114 707 -114 735 c 0
 -114 763 -132 791 -170 791 c 0
 -207 791 -226 763 -226 735 c 0
 -226 707 -207 679 -170 679 c 0
EndSplineSet
Substitution: 0 65534 'high' uni0E4D.high
EndChar
StartChar: uni0E4E
Encoding: 238 3662 202
Width: 0
Flags: HW
HStem: 731 42<-161.7 -88.6864> 892 35<-67.1 -32> 892 26<-148.1 -48> 1032 33<-61.6 6.4875>
VStem: -261 86<779.9 865.6> -181 77<931 1007.7>
AnchorPoint: "AboveBase" -32 659 mark 0
Fore
-155 731 m 0xd8
 -231 731 -261 763 -261 811 c 0xd8
 -261 853 -222 918 -110 918 c 1
 -149 923 -181 943 -181 983 c 0
 -181 1002 -154 1065 -1 1065 c 0
 24 1065 44 1061 58 1053 c 1
 20 1024 l 1
 12 1027 -11 1032 -20 1032 c 0
 -52 1032 -104 1012 -104 975 c 0xb4
 -104 939 -68 931 -32 927 c 1
 -48 892 l 1
 -125 892 -175 860 -175 815 c 0
 -175 788 -153 773 -124 773 c 0
 -98 773 -80 779 -64 794 c 1
 -32 766 l 1
 -60 743 -101 731 -155 731 c 0xd8
EndSplineSet
EndChar
StartChar: uni0E4F
Encoding: 239 3663 203
Width: 599
Flags: HW
HStem: 0 31<137.1 481.6> 100 30<222.2 393.8> 326 36<222.2 393.8> 429 32<137.1 481.6>
VStem: 79 31<100 360> 177 32<164.3 291.7> 407 33<164.3 291.7> 507 33<100 360>
Fore
310 0 m 0
 156 0 79 115 79 230 c 0
 79 346 156 461 310 461 c 0
 463 461 540 346 540 230 c 0
 540 115 463 0 310 0 c 0
310 31 m 0
 442 31 507 130 507 230 c 0
 507 330 442 429 310 429 c 0
 177 429 110 330 110 230 c 0
 110 130 177 31 310 31 c 0
310 100 m 0
 222 100 177 166 177 231 c 0
 177 296 222 362 310 362 c 0
 397 362 440 296 440 231 c 0
 440 166 397 100 310 100 c 0
308 130 m 0
 374 130 407 179 407 228 c 0
 407 277 374 326 308 326 c 0
 242 326 209 277 209 228 c 0
 209 179 242 130 308 130 c 0
EndSplineSet
EndChar
StartChar: uni0E50
Encoding: 240 3664 204
Width: 611
Flags: W
HStem: -2 59<174.3 457.7> 362 53<170.4 461.6>
VStem: 81 71<97.5 319.8> 480 70<97.5 319.8>
Fore
550 208 m 0
 550 87 466 -3 316 -2 c 0
 166 0 81 87 81 208 c 0
 81 330 169 415 316 415 c 0
 463 415 550 330 550 208 c 0
480 208 m 0
 480 294 428 362 316 362 c 0
 204 362 152 294 152 208 c 0
 152 123 207 57 316 57 c 0
 425 57 480 123 480 208 c 0
EndSplineSet
EndChar
StartChar: uni0E51
Encoding: 241 3665 205
Width: 611
Flags: HW
HStem: -2 62<203.5 306.2> 79 51<275.3 320.377> 218 54<277.9 350.7> 359 55<198.6 448.2>
VStem: 80 69<62.2 332.6> 209 59<146.4 208.8> 357 61<144.4 201.6> 500 70<12 330.5>
Fore
319 414 m 0
 477 414 570 323 570 178 c 0
 570 1 453 -67 428 -80 c 1
 389 -31 l 1
 446 -4 500 51 500 181 c 0
 500 296 420 359 326 359 c 0
 228 359 149 302 149 200 c 0
 149 94 217 60 262 60 c 0
 296 60 317 78 319 80 c 1
 315 79 310 79 306 79 c 0
 256 79 209 114 209 172 c 0
 209 207 230 272 312 272 c 0
 382 272 418 215 418 161 c 0
 418 92 371 -2 264 -2 c 0
 133 0 80 92 80 198 c 0
 80 342 187 414 319 414 c 0
313 130 m 0
 342 130 357 151 357 173 c 0
 357 195 342 218 313 218 c 0
 286 218 268 201 268 175 c 0
 268 153 284 130 313 130 c 0
EndSplineSet
EndChar
StartChar: uni0E52
Encoding: 242 3666 206
Width: 611
Flags: W
HStem: 0 58<131 546.1> 121 58<229.9 298.8> 261 50<245.966 298.8> 357 58<247.6 376.3 419 530.8> 554 60<-19.8172 26.8206>
VStem: 57 69<75.6 546> 164 61<194 252> 304 53<194 246> 529 69<85.375 333.7>
Fore
357 220 m 0
 357 163 317 121 264 121 c 0
 208 121 164 176 164 252 c 0
 164 334 214 415 300 415 c 0
 384 415 403 363 405 360 c 1
 406 365 422 415 492 415 c 0
 564 415 598 362 598 300 c 2
 598 87 l 2
 598 17 554 0 513 0 c 2
 138 0 l 2
 64 0 57 64 57 97 c 2
 57 510 l 2
 57 546 18 554 -6 554 c 0
 -12 554 -16 554 -17 553 c 1
 -17 613 l 1
 -14 613 -11 614 -7 614 c 0
 44 614 126 593 126 513 c 2
 126 112 l 2
 126 84 131 58 172 58 c 2
 472 58 l 2
 529 58 529 86 529 115 c 2
 529 296 l 2
 529 325 520 357 484 357 c 0
 434 357 429 285 429 284 c 1
 380 284 l 1
 380 293 361 357 310 357 c 0
 262 357 255 326 251 310 c 1
 257 311 263 311 269 311 c 0
 321 311 357 273 357 220 c 0
265 179 m 0
 291 179 304 200 304 220 c 0
 304 240 291 261 265 261 c 0
 238 261 225 240 225 220 c 0
 225 200 238 179 265 179 c 0
EndSplineSet
EndChar
StartChar: uni0E53
Encoding: 243 3667 207
Width: 611
Flags: HW
HStem: -3 54<122 198.7> 138 53<133.348 198.7> 354 61<114 302.5 396 515.6>
VStem: 40 73<68 122.6 168.89 295.8> 204 53<66.7 122.6> 311 69<0 310.1> 311 35<262 339> 530 68<0 335.5>
Fore
40 211 m 0xfd
 40 293 75 415 217 415 c 0
 318 415 346 340 346 339 c 1xfb
 348 343 366 415 460 415 c 0
 547 415 598 353 598 277 c 2
 598 0 l 1
 530 0 l 1
 530 264 l 2
 530 319 503 356 461 356 c 0
 411 356 380 308 380 261 c 2
 380 0 l 1
 311 0 l 1
 311 262 l 2
 311 299 280 354 205 354 c 0
 135 354 113 276 113 210 c 0
 113 197 114 186 116 178 c 1
 131 186 144 191 162 191 c 0
 224 191 257 143 257 89 c 0
 257 34 211 -3 162 -3 c 0
 59 -3 40 101 40 211 c 0xfd
161 51 m 0
 190 51 204 73 204 94 c 0
 204 116 190 138 161 138 c 0
 131 138 116 116 116 94 c 0
 116 73 131 51 161 51 c 0
EndSplineSet
EndChar
StartChar: uni0E54
Encoding: 244 3668 208
Width: 611
Flags: HW
HStem: -1 58<151.9 271.457> 28 41<343 445> 256 52<293.5 362.4> 357 60<324.963 508> 360 61<223.5 416.476>
VStem: 48 73<85.2 274.7> 226 58<187.4 247.2> 369 55<185.7 240.3> 636 66<587.475 645>
Fore
232 -1 m 0xa780
 108 -1 48 106 48 198 c 0
 48 257 71 317 120 360 c 0
 177 411 243 421 308 421 c 0xaf80
 350 421 392 417 430 417 c 0
 490 417 543 427 579 478 c 0
 618 532 632 586 636 645 c 1
 702 621 l 1
 700 563 659 446 596 399 c 0
 549 364 497 357 442 357 c 0x3780
 405 357 368 360 331 360 c 0
 180 360 121 295 121 197 c 0
 121 111 172 57 239 57 c 0xaf80
 260 57 301 69 343 69 c 2
 362 69 l 1
 352 69 226 115 226 207 c 0
 226 255 259 308 325 308 c 0
 389 308 424 260 424 210 c 0
 424 169 401 146 374 133 c 1
 376 133 392 110 434 101 c 0
 478 92 504 94 544 81 c 0
 581 69 590 61 615 48 c 1
 579 -6 l 1
 572 -4 519 28 445 28 c 0x6780
 378 28 302 -1 232 -1 c 0xa780
327 172 m 0
 355 172 369 192 369 213 c 0
 369 234 354 256 326 256 c 0
 301 256 284 240 284 216 c 0
 284 194 299 172 327 172 c 0
EndSplineSet
EndChar
StartChar: uni0E55
Encoding: 245 3669 209
Width: 611
Flags: HW
HStem: -1 58<167.5 268.216> 28 105<368 440> 256 52<287.5 356.4> 349 62<393.345 540.9> 358 60<100 377.877> 442 59<419.1 508.8> 558 57<402.4 488.2>
VStem: 42 73<126.8 274.7> 222 57<187.4 247.2> 340 66<505.6 543.3> 363 55<185.7 240.3> 546 73<429.544 472.668> 586 65<649.488 688>
Fore
550 584 m 1x37d0
 553 589 586 626 586 688 c 1
 651 664 l 1x37c8
 643 585 595 531 595 530 c 1
 595 530 619 498 619 457 c 0
 619 438 614 417 599 397 c 0
 571 358 525 349 472 349 c 0x3790
 420 349 362 358 308 358 c 0
 148 358 115 257 115 198 c 0
 115 111 167 57 235 57 c 0xaf90
 257 57 298 69 337 69 c 0
 345 69 350 69 353 69 c 0
 356 69 l 1
 345 69 222 114 222 208 c 0
 222 256 254 308 320 308 c 0
 383 308 418 261 418 211 c 0
 418 188 411 154 368 133 c 1
 369 133 388 110 428 101 c 0
 472 92 500 94 540 81 c 0
 576 69 584 61 609 48 c 1
 573 -6 l 1
 566 -4 513 28 440 28 c 0x67b0
 373 28 297 -1 226 -1 c 0
 181 -1 137 11 100 51 c 0
 62 89 42 143 42 197 c 0
 42 279 89 418 293 418 c 0xafb0
 343 418 393 411 439 411 c 0
 518 411 546 428 546 453 c 0
 546 462 542 469 542 473 c 0
 542 474 542 475 543 475 c 1
 541 472 502 442 448 442 c 0
 387 442 340 476 340 527 c 0
 340 573 379 615 452 615 c 0
 510 615 550 586 550 584 c 1x37d0
517 533 m 1
 509 543 481 558 457 558 c 0
 415 558 406 540 406 529 c 0
 406 511 426 501 449 501 c 0
 495 501 513 528 517 533 c 1
320 172 m 0
 349 172 363 192 363 213 c 0x27a0
 363 234 348 256 320 256 c 0
 295 256 279 240 279 216 c 0
 279 194 293 172 320 172 c 0
EndSplineSet
EndChar
StartChar: uni0E56
Encoding: 246 3670 210
Width: 611
Flags: HW
HStem: 0 60<312.587 459> 182 53<221.3 298> 361 60<296.8 455.5>
VStem: 162 53<104.2 166.6> 304 53<110.4 167.6> 491 69<101.2 312.3>
Fore
354 421 m 0
 519 421 560 288 560 207 c 0
 560 83 473 0 348 0 c 0
 258 0 162 46 162 133 c 0
 162 189 201 235 260 235 c 0
 319 235 357 192 357 139 c 0
 357 89 331 67 319 61 c 1
 327 60 334 60 342 60 c 0
 432 60 491 127 491 213 c 0
 491 297 430 361 345 361 c 0
 302 361 222 346 187 262 c 1
 167 262 l 1
 167 267 167 274 167 282 c 0
 167 489 77 591 58 615 c 1
 118 651 l 1
 152 609 172 575 190 523 c 0
 207 472 218 437 221 385 c 1
 263 412 310 421 354 421 c 0
304 139 m 0
 304 161 289 182 259 182 c 0
 230 182 215 160 215 138 c 0
 215 112 235 95 259 95 c 0
 289 95 304 117 304 139 c 0
EndSplineSet
EndChar
StartChar: uni0E57
Encoding: 247 3671 211
Width: 611
Flags: HW
HStem: -5 56<110.6 189.9> 136 53<102.5 183.1> 360 57<102.2 241.4 331.3 446.4>
VStem: 11 68<159.2 254.11> 189 54<72.8347 120.3> 258 56<251 284.554> 446 65<115.2 331>
Fore
576 373 m 0
 576 545 629 583 641 602 c 1
 713 602 l 1
 710 595 650 543 644 452 c 0
 633 291 653 178 572 83 c 0
 515 17 448 -2 360 -2 c 1
 381 26 446 150 446 266 c 0
 446 316 432 360 384 360 c 0
 316 360 314 256 314 251 c 1
 258 251 l 1
 258 262 253 360 175 360 c 0
 119 360 79 282 79 206 c 0
 79 187 81 172 84 161 c 1
 87 166 100 189 153 189 c 0
 202 189 243 144 243 93 c 0
 243 46 209 -5 147 -5 c 0
 114 -5 82 10 67 26 c 0
 34 64 11 130 11 199 c 0
 11 240 19 282 37 319 c 0
 66 376 104 417 179 417 c 0
 227 417 262 391 284 351 c 1
 308 395 346 417 395 417 c 0
 472 417 511 344 511 258 c 0
 511 148 464 76 458 67 c 1
 477 84 576 113 576 334 c 0
 576 373 l 0
147 51 m 0
 180 51 189 78 189 93 c 0
 189 114 175 136 148 136 c 0
 113 136 105 109 105 94 c 0
 105 73 119 51 147 51 c 0
EndSplineSet
EndChar
StartChar: uni0E58
Encoding: 248 3672 212
Width: 611
Flags: HW
HStem: -2 59<362.4 504.1> 83 53<450.6 504.476> 129 70<236 288.6> 219 54<450.6 523.4> 345 59<392.927 563.6> 356 57<196.5 365.5>
VStem: 60 67<106.8 307.4> 169 59<90 123.676> 387 58<150.7 204> 529 61<150 204> 580 69<399.1 595.164>
Fore
457 404 m 0x9bc0
 539 404 580 430 580 533 c 0
 580 574 573 609 573 610 c 1
 642 610 l 1
 642 609 649 573 649 529 c 0
 649 381 576 345 471 345 c 0x9ba0
 412 345 346 356 281 356 c 0
 216 356 127 325 127 203 c 0
 127 129 169 112 169 110 c 1
 169 120 176 199 236 199 c 0xb7a0
 313 199 387 57 469 57 c 0
 496 57 501 73 501 84 c 1
 499 84 495 83 489 83 c 0xd3a0
 428 83 387 121 387 176 c 0
 387 224 419 273 486 273 c 0
 562 273 590 212 590 150 c 0
 590 75 554 -2 473 -2 c 0
 365 -2 279 129 247 129 c 0
 239 129 228 122 228 90 c 0
 228 53 234 31 251 -2 c 1
 138 7 60 95 60 206 c 0
 60 284 105 413 295 413 c 0xb7c0
 353 413 410 404 457 404 c 0x9bc0
487 136 m 0xd3c0
 515 136 529 157 529 178 c 0
 529 198 515 219 487 219 c 0
 459 219 445 198 445 178 c 0
 445 157 459 136 487 136 c 0xd3c0
EndSplineSet
EndChar
StartChar: uni0E59
Encoding: 249 3673 213
Width: 611
Flags: HW
HStem: -3 55<143 283.4> 79 50<237.8 285.351> 208 53<241 295.6> 307 68<458 516.5> 357 60<143.7 317.8>
VStem: 67 70<108.3 287.7> 183 51<142.3 194.3> 301 55<142.3 193> 506 72<445.766 618> 522 68<365.1 551.145>
Fore
522 447 m 0xf740
 522 547 506 609 506 618 c 1
 578 618 l 1xf780
 578 615 590 532 590 483 c 0
 590 372 574 307 512 307 c 0xf740
 467 307 442 343 426 343 c 0
 417 343 412 336 412 325 c 0
 412 301 438 254 471 199 c 0
 523 115 573 32 573 31 c 1
 517 0 l 1
 517 3 469 74 409 176 c 0
 357 268 308 357 236 357 c 0
 165 357 137 267 137 198 c 0
 137 129 164 52 234 52 c 0
 272 52 284 81 285 84 c 1
 285 84 274 79 259 79 c 0
 213 79 183 121 183 168 c 0
 183 201 200 261 267 261 c 0
 338 261 356 199 356 149 c 0
 356 73 312 -3 228 -3 c 0
 115 -3 67 106 67 210 c 0
 67 330 133 417 232 417 c 0xef40
 298 417 340 374 356 349 c 1
 356 379 367 418 402 418 c 0
 436 418 467 375 497 375 c 0
 512 375 522 384 522 447 c 0xf740
234 167 m 0
 234 148 245 129 269 129 c 0
 290 129 301 148 301 167 c 0
 301 187 289 208 267 208 c 0
 247 208 234 188 234 167 c 0
EndSplineSet
EndChar
StartChar: uni0E5A
Encoding: 250 3674 214
Width: 625
Flags: HW
HStem: -2 54<264.784 294.613> 293 56<116.6 260.9> 422 47<116.919 187.3> 544 66<439.7 511.1> 567 46<110.6 197.7>
VStem: 31 69<482.9 539.65> 196 48<480.3 544> 351 69<111.7 386> 505 69<93 527.004>
Fore
196 518 m 0xef80
 196 538 186 567 147 567 c 0
 119 567 102 547 100 518 c 0
 100 491 119 469 147 469 c 0
 178 469 196 489 196 518 c 0xef80
373 612 m 0
 393 612 401 604 410 578 c 1
 429 590 449 610 480 610 c 0
 566 610 574 553 574 510 c 2
 574 143 l 2
 574 11 449 -3 449 -3 c 1
 420 51 l 1
 461 56 505 93 505 115 c 2
 505 506 l 2
 505 519 500 544 463 544 c 0xf780
 445 544 427 536 420 521 c 1
 420 150 l 2
 420 98 406 61 375 37 c 0
 346 12 319 0 290 -2 c 1
 261 52 l 1
 284 52 307 63 330 86 c 0
 344 100 351 121 351 152 c 2
 351 386 l 1
 309 302 263 293 208 293 c 0
 90 293 31 377 31 500 c 0
 37 561 88 613 149 613 c 0
 215 613 244 569 244 521 c 0
 244 464 206 422 150 422 c 0
 133 422 120 425 104 432 c 1
 113 382 137 349 205 349 c 0
 248 349 280 374 313 440 c 0
 339 486 339 518 340 584 c 0
 343 605 359 612 373 612 c 0
EndSplineSet
EndChar
StartChar: uni0E5B
Encoding: 251 3675 215
Width: 1105
Flags: HW
HStem: 48 53<138.8 315.6> 181 52<238 308.2> 239 46<855.2 1075.51> 244 41<928.019 1090> 494 53<114.5 310.8>
VStem: 29 52<142.7 422.5> 136 48<270.4 327.6> 219 49<271.4 328.6> 320 52<283.1 454.7>
Fore
884 239 m 0xef80
 835 239 821 278 808 293 c 1
 756 129 l 1
 708 293 l 1
 651 90 l 1
 596 299 l 1
 558 100 l 1
 532 100 l 1
 474 348 l 1
 458 288 425 169 388 123 c 0
 348 74 297 48 235 48 c 0
 100 48 29 179 29 300 c 0
 29 432 102 547 212 547 c 0
 319 547 372 461 372 363 c 0
 372 285 336 181 241 181 c 0
 210 181 182 196 162 222 c 0
 146 250 136 276 136 300 c 0
 136 343 167 381 202 381 c 0
 226 381 268 357 268 300 c 0
 268 276 258 248 238 233 c 1
 292 233 320 302 320 365 c 0
 320 434 288 494 212 494 c 0
 137 494 81 394 81 299 c 0
 81 176 161 101 235 101 c 0
 307 101 346 144 372 205 c 0
 403 282 445 443 463 506 c 1
 487 506 l 1
 541 273 l 1
 579 463 l 1
 605 463 l 1
 653 274 l 1
 705 461 l 1
 757 290 l 1
 796 417 l 1
 814 380 863 285 889 285 c 0
 918 285 935 284 952 284 c 0
 996 285 1027 285 1048 285 c 2xef80
 1090 285 l 1
 1090 244 l 1xdf80
 1077 244 1014 241 963 241 c 2
 963 241 894 239 884 239 c 0xef80
202 268 m 0
 211 268 219 278 219 300 c 0
 219 322 211 333 202 333 c 0
 193 333 184 321 184 299 c 0
 184 277 193 268 202 268 c 0
EndSplineSet
EndChar
StartChar: DEL
Encoding: 255 63259 219
Width: 0
VWidth: 2048
Flags: W
HStem: 0 21G<-460 0>
VStem: -460 460<0 766>
Fore
-460 766 m 1
 0 766 l 1
 0 0 l 1
 -460 0 l 1
 -460 766 l 1
EndSplineSet
EndChar
StartChar: exclamdown
Encoding: 256 161 220
Width: 332
VWidth: 2048
Flags: W
HStem: 418 100<116 218>
VStem: 112 110<-198 -38>
Fore
218 518 m 1
 218 418 l 1
 116 418 l 1
 116 518 l 1
 218 518 l 1
195 340 m 1
 222 -38 l 1
 222 -198 l 1
 112 -198 l 1
 112 -38 l 1
 138 340 l 1
 195 340 l 1
EndSplineSet
EndChar
StartChar: cent
Encoding: 257 162 221
Width: 554
VWidth: 2048
Flags: HW
HStem: -14 72<256.481 382.5> 460 70<163.2 311>
VStem: 52 91<149.2 437.8> 417 89<115.483 193.245>
Fore
52 256 m 0
 52 419 134 530 282 530 c 0
 297 530 313 529 331 527 c 1
 386 716 l 1
 440 700 l 1
 385 510 l 1
 446 487 481 438 495 366 c 1
 411 353 l 1
 402 389 386 417 363 437 c 1
 256 63 l 1
 265 60 276 58 285 58 c 0
 360 58 405 103 417 190 c 1
 506 181 l 1
 481 49 386 -14 287 -14 c 0
 267 -14 251 -11 236 -6 c 1
 178 -199 l 1
 124 -184 l 1
 179 11 l 1
 95 54 52 136 52 256 c 0
311 460 m 1
 288 460 l 2
 192 463 143 397 143 261 c 0
 143 175 162 116 202 87 c 1
 311 460 l 1
EndSplineSet
EndChar
StartChar: sterling
Encoding: 258 163 222
Width: 554
VWidth: 2048
Flags: HW
HStem: -12 84<359.795 440.275> 32 72<154.419 245.779> 322 73<21 97 208 348> 656 72<202.6 388.5>
VStem: 72 94<487.61 629.6> 126 92<199.1 305.49>
Fore
291 656 m 0x78
 223 656 166 608 166 536 c 0x78
 166 503 175 455 193 395 c 1
 348 395 l 1
 348 322 l 1
 208 322 l 1
 215 310 218 294 218 281 c 0
 218 218 189 155 130 94 c 1
 158 101 181 104 201 104 c 0x74
 280 104 344 72 406 72 c 0
 431 72 461 81 500 98 c 1
 529 18 l 1
 480 -2 440 -12 411 -12 c 0xb4
 391 -12 377 -11 368 -8 c 2
 241 28 l 2
 222 31 207 32 195 32 c 0
 143 32 94 17 48 -14 c 1
 14 71 l 1
 89 113 126 178 126 262 c 0x74
 126 279 123 299 118 322 c 1
 21 322 l 1
 21 395 l 1
 97 395 l 1
 80 449 72 492 72 524 c 0
 72 652 168 728 293 728 c 0
 418 728 490 667 510 543 c 1
 423 530 l 1
 409 615 366 656 291 656 c 0x78
EndSplineSet
EndChar
StartChar: currency
Encoding: 259 164 223
Width: 554
VWidth: 2048
Flags: HW
HStem: 147 80<220.1 331.9> 481 80<222.7 331.9>
VStem: 69 80<300.7 407.3> 402 81<300.7 407.3>
Fore
104 469 m 1
 35 536 l 1
 92 595 l 1
 159 526 l 1
 195 550 235 561 276 561 c 0
 319 561 357 550 391 526 c 1
 460 595 l 1
 517 536 l 1
 448 469 l 1
 472 434 483 395 483 354 c 0
 483 313 472 274 448 239 c 1
 517 173 l 1
 460 115 l 1
 391 184 l 1
 357 159 319 147 276 147 c 0
 233 147 195 159 159 184 c 1
 92 115 l 1
 35 173 l 1
 104 239 l 1
 81 274 69 313 69 354 c 0
 69 395 81 434 104 469 c 1
276 481 m 0
 207 481 149 432 149 354 c 0
 149 285 200 227 276 227 c 0
 353 227 402 288 402 354 c 0
 402 429 344 481 276 481 c 0
EndSplineSet
EndChar
StartChar: yen
Encoding: 260 165 224
Width: 554
VWidth: 2048
Flags: W
HStem: 0 21G<233 320> 159 68<31 233 320 523> 296 73<31 196 356 523> 696 20G<-2 97 449 553>
VStem: 233 87<0 159 227 296>
Fore
233 0 m 1
 233 159 l 1
 31 159 l 1
 31 227 l 1
 233 227 l 1
 233 296 l 1
 31 296 l 1
 31 369 l 1
 196 369 l 1
 -2 716 l 1
 97 716 l 1
 238 464 l 2
 250 441 262 417 274 389 c 1
 284 411 297 437 316 469 c 2
 449 716 l 1
 553 716 l 1
 356 369 l 1
 523 369 l 1
 523 296 l 1
 320 296 l 1
 320 227 l 1
 523 227 l 1
 523 159 l 1
 320 159 l 1
 320 0 l 1
 233 0 l 1
EndSplineSet
EndChar
StartChar: brokenbar
Encoding: 261 166 225
Width: 259
VWidth: 2048
Flags: W
VStem: 92 77<-210 176 343 728>
Fore
169 728 m 1
 169 343 l 1
 92 343 l 1
 92 728 l 1
 169 728 l 1
169 176 m 1
 169 -210 l 1
 92 -210 l 1
 92 176 l 1
 169 176 l 1
EndSplineSet
EndChar
StartChar: section
Encoding: 262 167 226
Width: 554
VWidth: 2048
Flags: HW
HStem: -210 74<194.3 356.8> 656 72<192.4 348.4>
VStem: 40 80<273.6 371.1> 87 85<519.1 633.9> 389 89<-117 17.9> 428 82<164.5 262>
Fore
478 -51 m 0xc8
 478 -146 396 -210 284 -210 c 0
 159 -210 89 -152 69 -34 c 1
 158 -21 l 1
 173 -98 215 -136 284 -136 c 0
 340 -136 389 -102 389 -52 c 0
 389 36 170 116 95 195 c 0
 58 231 40 271 40 314 c 0xe8
 40 385 77 431 150 452 c 1
 107 492 87 532 87 575 c 0
 87 665 166 728 265 728 c 0
 386 728 454 671 469 559 c 1
 379 549 l 1
 366 621 331 656 273 656 c 0
 211 656 172 621 172 578 c 0
 172 517 284 458 340 425 c 0
 395 389 434 363 454 346 c 0
 492 310 510 270 510 227 c 0xd4
 510 166 474 118 400 87 c 1
 452 48 478 2 478 -51 c 0xc8
356 120 m 1
 403 144 428 175 428 210 c 0xe4
 428 250 382 297 291 351 c 0
 251 376 218 399 192 418 c 1
 144 392 120 360 120 323 c 0
 120 285 159 241 242 192 c 0
 294 161 333 136 356 120 c 1
EndSplineSet
EndChar
StartChar: dieresis
Encoding: 263 168 227
Width: 332
VWidth: 2048
Flags: W
HStem: 621 99<31 123 212 303>
VStem: 31 92<621 720> 212 91<621 720>
Fore
31 621 m 1
 31 720 l 1
 123 720 l 1
 123 621 l 1
 31 621 l 1
212 621 m 1
 212 720 l 1
 303 720 l 1
 303 621 l 1
 212 621 l 1
EndSplineSet
EndChar
StartChar: copyright
Encoding: 264 169 228
Width: 735
VWidth: 2048
Flags: HW
HStem: -9 61<257.9 482.8> 149 56<260.1 449.9> 512 55<265.4 440.9> 668 60<259.2 480.2>
VStem: 2 61<247.2 470.8> 178 66<225.7 477.9> 677 62<247.2 470.8>
Fore
371 728 m 0
 474 728 561 693 633 622 c 0
 704 550 739 463 739 359 c 0
 739 258 704 170 632 98 c 0
 559 26 472 -9 371 -9 c 0
 268 -9 181 26 109 98 c 0
 37 170 2 256 2 359 c 0
 2 463 37 552 107 622 c 0
 179 693 267 728 371 728 c 0
371 668 m 0
 285 668 212 638 152 578 c 0
 92 518 63 445 63 359 c 0
 63 273 92 201 152 141 c 0
 212 81 284 52 371 52 c 0
 457 52 529 81 589 141 c 0
 648 201 677 273 677 359 c 0
 677 445 647 517 587 576 c 0
 527 638 455 668 371 668 c 0
372 512 m 0
 290 512 244 450 244 357 c 0
 244 256 285 205 368 205 c 0
 431 205 472 238 489 300 c 1
 549 282 l 1
 524 193 466 149 371 149 c 0
 282 149 178 197 178 359 c 0
 178 486 251 567 376 567 c 0
 461 567 517 529 541 451 c 1
 483 437 l 1
 461 487 425 512 372 512 c 0
EndSplineSet
EndChar
StartChar: ordfeminine
Encoding: 265 170 229
Width: 369
VWidth: 2048
Flags: HW
HStem: 365 58<103.1 200.2> 671 57<121.6 251.6>
VStem: 23 72<427.8 531.8> 261 70<437.3 540 596 662.3>
Fore
268 417 m 1
 228 382 187 365 143 365 c 0
 63 365 23 400 23 472 c 0
 23 518 46 549 94 566 c 0
 122 576 221 583 261 596 c 1
 261 647 236 671 184 671 c 0
 136 671 109 651 103 610 c 1
 35 627 l 1
 48 694 98 728 185 728 c 0
 282 728 331 688 331 610 c 2
 331 463 l 2
 330 420 337 389 351 374 c 1
 279 374 l 1
 271 388 268 402 268 417 c 1
261 540 m 1
 204 528 95 524 95 472 c 0
 95 438 116 423 159 423 c 0
 227 423 261 461 261 540 c 1
EndSplineSet
EndChar
StartChar: guillemotleft
Encoding: 266 171 230
Width: 554
VWidth: 2048
Flags: W
HStem: 35 445<222 293>
VStem: 64 420<35 258>
Fore
166 258 m 1
 293 35 l 1
 222 35 l 1
 64 258 l 1
 222 480 l 1
 293 480 l 1
 166 258 l 1
356 258 m 1
 484 35 l 1
 411 35 l 1
 256 258 l 1
 411 480 l 1
 484 480 l 1
 356 258 l 1
EndSplineSet
EndChar
StartChar: logicalnot
Encoding: 267 172 231
Width: 583
VWidth: 2048
Flags: W
HStem: 422 81<55 446>
VStem: 446 83<207 422>
Fore
529 207 m 1
 446 207 l 1
 446 422 l 1
 55 422 l 1
 55 503 l 1
 529 503 l 1
 529 207 l 1
EndSplineSet
EndChar
StartChar: minus
Encoding: 268 173 232
AltUni: 8722
Width: 332
VWidth: 2048
Flags: W
HStem: 215 88<32 302>
Fore
32 215 m 1
 32 303 l 1
 302 303 l 1
 302 215 l 1
 32 215 l 1
EndSplineSet
EndChar
StartChar: registered
Encoding: 269 174 233
Width: 735
VWidth: 2048
Flags: HW
HStem: -9 61<257.9 482.8> 323 56<273 391.9> 498 54<273 432.1> 668 60<259.2 480.2>
VStem: 2 61<247.2 470.8> 208 65<156 323 379 498> 448 65<386.7 489.4> 677 62<247.2 470.8>
Fore
371 728 m 0
 474 728 561 693 633 622 c 0
 704 550 739 463 739 359 c 0
 739 258 704 170 632 98 c 0
 559 26 472 -9 371 -9 c 0
 268 -9 181 26 109 98 c 0
 37 170 2 256 2 359 c 0
 2 463 37 552 107 622 c 0
 179 693 267 728 371 728 c 0
371 668 m 0
 285 668 212 638 152 578 c 0
 92 518 63 445 63 359 c 0
 63 273 92 201 152 141 c 0
 212 81 284 52 371 52 c 0
 457 52 529 81 589 141 c 0
 648 201 677 273 677 359 c 0
 677 445 647 517 587 576 c 0
 527 638 455 668 371 668 c 0
513 446 m 0
 513 356 431 336 402 333 c 1
 426 325 457 293 494 233 c 2
 543 156 l 1
 463 156 l 1
 428 219 l 2
 399 274 373 323 310 323 c 2
 273 323 l 1
 273 156 l 1
 208 156 l 1
 208 552 l 1
 345 552 l 2
 458 552 513 517 513 446 c 0
273 379 m 1
 351 379 l 2
 415 379 448 399 448 440 c 0
 448 478 412 498 345 498 c 2
 273 498 l 1
 273 379 l 1
EndSplineSet
EndChar
StartChar: macron
Encoding: 270 175 234
AltUni: 713
Width: 551
VWidth: 2048
Flags: W
HStem: 765 63<-15 567>
Fore
-15 765 m 1
 -15 828 l 1
 567 828 l 1
 567 765 l 1
 -15 765 l 1
EndSplineSet
EndChar
StartChar: degree
Encoding: 271 176 235
Width: 400
VWidth: 2048
Flags: HW
HStem: 457 53<139.5 256.5> 676 52<135.6 256.5>
VStem: 63 53<530.6 651.5> 281 53<537.1 648.9>
Fore
198 457 m 0
 121 457 63 520 63 593 c 0
 63 665 124 728 198 728 c 0
 272 728 334 665 334 593 c 0
 334 512 268 457 198 457 c 0
198 676 m 0
 150 676 116 638 116 593 c 0
 116 545 153 510 198 510 c 0
 243 510 281 550 281 593 c 0
 281 636 243 676 198 676 c 0
EndSplineSet
EndChar
StartChar: plusminus
Encoding: 272 177 236
Width: 548
VWidth: 2048
Flags: W
HStem: 0 83<38 510> 323 83<38 233 316 510>
VStem: 233 83<127 323 406 601>
Fore
233 127 m 1
 233 323 l 1
 38 323 l 1
 38 406 l 1
 233 406 l 1
 233 601 l 1
 316 601 l 1
 316 406 l 1
 510 406 l 1
 510 323 l 1
 316 323 l 1
 316 127 l 1
 233 127 l 1
510 0 m 1
 38 0 l 1
 38 83 l 1
 510 83 l 1
 510 0 l 1
EndSplineSet
EndChar
StartChar: twosuperior
Encoding: 273 178 237
Width: 332
VWidth: 2048
Flags: HW
HStem: 357 60<127 317> 668 57<118 229.8>
VStem: 238 76<590.9 661.1>
Fore
314 625 m 0
 314 529 191 481 127 417 c 1
 317 417 l 1
 317 357 l 1
 12 357 l 1
 18 440 181 535 198 552 c 0
 224 575 238 596 238 613 c 0
 238 650 216 668 170 668 c 0
 130 668 106 648 97 612 c 1
 23 619 l 1
 40 690 90 725 172 725 c 0
 267 725 314 691 314 625 c 0
EndSplineSet
EndChar
StartChar: threesuperior
Encoding: 274 179 238
Width: 332
VWidth: 2048
Flags: HW
HStem: 349 57<112.6 228.3> 526 50<146 211> 671 54<118.5 213.4>
VStem: 222 77<584.3 664.7> 239 77<414.8 517.5>
Fore
316 461 m 0xe8
 316 385 238 349 167 349 c 0
 80 349 31 385 17 454 c 1
 87 461 l 1
 98 425 124 406 162 406 c 0
 213 406 239 428 239 472 c 0xe8
 239 507 213 526 161 526 c 0
 153 525 145 524 135 524 c 1
 146 576 l 1
 196 576 222 593 222 627 c 0
 222 656 202 671 164 671 c 0
 129 671 106 655 95 621 c 1
 25 633 l 1
 46 694 94 725 164 725 c 0
 254 725 299 694 299 635 c 0xf0
 299 596 276 569 231 555 c 1
 288 541 316 510 316 461 c 0xe8
EndSplineSet
EndChar
StartChar: acute
Encoding: 275 180 239
Width: 332
VWidth: 2048
Flags: W
HStem: 700 20G<173 288>
VStem: 109 179<582 720>
Fore
109 582 m 1
 173 720 l 1
 288 720 l 1
 181 582 l 1
 109 582 l 1
EndSplineSet
EndChar
StartChar: mu
Encoding: 276 181 240
AltUni: 956
Width: 574
VWidth: 2048
Flags: W
HStem: -12 79<224.3 363.4> 498 20G<78 166 411 497>
VStem: 78 88<-199 52 152 518> 411 86<121.5 518> 418 79<0 61>
Back
497 518 m 1
 497 0 l 1
 418 0 l 1
 418 61 l 1
 389 12 346 -12 288 -12 c 0
 239 -12 198 9 166 52 c 1
 166 -199 l 1
 78 -199 l 1
 78 518 l 1
 166 518 l 1
 166 299 l 2
 166 227 170 176 178 149 c 0
 195 95 230 67 285 67 c 0
 340 67 379 94 395 147 c 0
 406 176 411 227 411 297 c 2
 411 518 l 1
 497 518 l 1
EndSplineSet
Fore
285 67 m 0xe8
 395 67 411 162 411 297 c 2
 411 518 l 1
 497 518 l 1xf0
 497 0 l 1
 418 0 l 1
 418 61 l 1
 389 12 346 -12 288 -12 c 0
 239 -12 198 9 166 52 c 1
 166 -199 l 1
 78 -199 l 1
 78 518 l 1
 166 518 l 1
 166 299 l 2
 166 152 181 67 285 67 c 0xe8
EndSplineSet
EndChar
StartChar: paragraph
Encoding: 277 182 241
Width: 536
VWidth: 2048
Flags: HW
HStem: 632 84<279 388 471 541>
VStem: 198 81<-199 311> 388 83<-199 632>
Fore
0 510 m 0
 0 644 88 716 231 716 c 2
 541 716 l 1
 541 632 l 1
 471 632 l 1
 471 -199 l 1
 388 -199 l 1
 388 632 l 1
 279 632 l 1
 279 -199 l 1
 198 -199 l 1
 198 311 l 1
 84 311 0 398 0 510 c 0
EndSplineSet
EndChar
StartChar: periodcentered
Encoding: 278 183 242
AltUni: 8729
Width: 277
VWidth: 2048
Flags: W
HStem: 302 101<90 192>
VStem: 90 102<302 403>
Fore
90 302 m 1
 90 403 l 1
 192 403 l 1
 192 302 l 1
 90 302 l 1
EndSplineSet
EndChar
StartChar: cedilla
Encoding: 279 184 243
Width: 332
VWidth: 2048
Flags: W
HStem: -205 61<58 171.9>
VStem: 182 82<-140.8 -79.7>
Fore
264 -113 m 0
 264 -176 201 -205 123 -205 c 0
 97 -205 74 -204 52 -199 c 1
 58 -143 l 1
 103 -144 l 2
 156 -146 182 -133 182 -107 c 0
 182 -86 156 -75 106 -75 c 1
 130 11 l 1
 196 11 l 1
 181 -41 l 1
 236 -48 264 -71 264 -113 c 0
EndSplineSet
EndChar
StartChar: onesuperior
Encoding: 280 185 244
Width: 332
VWidth: 2048
Flags: W
HStem: 705 20G<179 233>
VStem: 161 72<357 628>
Fore
161 357 m 1
 161 628 l 1
 130 604 94 586 52 573 c 1
 52 635 l 1
 101 651 144 681 179 725 c 1
 233 725 l 1
 233 357 l 1
 161 357 l 1
EndSplineSet
EndChar
StartChar: ordmasculine
Encoding: 281 186 245
Width: 364
VWidth: 2048
Flags: HW
HStem: 362 64<106.6 258.7> 664 64<106.6 258.7>
VStem: 21 74<442.6 648> 270 73<441.7 647.1>
Fore
21 543 m 0
 21 651 80 728 182 728 c 0
 285 728 343 654 343 544 c 0
 343 436 285 362 182 362 c 0
 83 362 21 436 21 543 c 0
182 664 m 0
 124 664 95 624 95 544 c 0
 95 466 124 426 182 426 c 0
 241 426 270 466 270 547 c 0
 270 624 241 664 182 664 c 0
EndSplineSet
EndChar
StartChar: guillemotright
Encoding: 282 187 246
Width: 554
VWidth: 2048
Flags: W
HStem: 35 445<259 331>
VStem: 67 420<258 480>
Fore
386 258 m 1
 259 480 l 1
 331 480 l 1
 487 258 l 1
 331 35 l 1
 259 35 l 1
 386 258 l 1
198 258 m 1
 67 480 l 1
 143 480 l 1
 296 258 l 1
 143 35 l 1
 67 35 l 1
 198 258 l 1
EndSplineSet
EndChar
StartChar: onequarter
Encoding: 283 188 247
Width: 833
VWidth: 2048
Flags: MW
HStem: 60 53<586 699 768 820> 708 20G<662 737>
VStem: 161 72<357 628> 699 69<-15 60 113 241>
Fore
123 -28 m 1
 662 728 l 1
 737 728 l 1
 199 -28 l 1
 123 -28 l 1
161 357 m 1
 161 628 l 1
 130 604 94 586 52 573 c 1
 52 635 l 1
 101 651 144 681 179 725 c 1
 233 725 l 1
 233 357 l 1
 161 357 l 1
699 -15 m 1
 699 60 l 1
 510 60 l 1
 510 121 l 1
 710 351 l 1
 768 351 l 1
 768 113 l 1
 820 113 l 1
 820 60 l 1
 768 60 l 1
 768 -15 l 1
 699 -15 l 1
699 113 m 1
 699 241 l 1
 586 113 l 1
 699 113 l 1
EndSplineSet
EndChar
StartChar: onehalf
Encoding: 284 189 248
Width: 833
VWidth: 2048
Flags: HMW
HStem: -15 59<628 817> 293 58<621.6 729.5> 708 20G<648 727>
VStem: 161 72<357 628> 737 78<153.9 286.5>
Fore
112 -28 m 1
 648 728 l 1
 727 728 l 1
 189 -28 l 1
 112 -28 l 1
161 357 m 1
 161 628 l 1
 130 604 94 586 52 573 c 1
 52 635 l 1
 101 651 144 681 179 725 c 1
 233 725 l 1
 233 357 l 1
 161 357 l 1
815 253 m 0
 815 164 713 116 628 44 c 1
 817 44 l 1
 817 -15 l 1
 512 -15 l 1
 512 83 737 174 737 241 c 0
 737 276 716 293 671 293 c 0
 633 293 609 276 596 239 c 1
 523 245 l 1
 541 316 590 351 671 351 c 0
 768 351 815 319 815 253 c 0
EndSplineSet
EndChar
StartChar: threequarters
Encoding: 285 190 249
Width: 833
VWidth: 2048
Flags: HMW
HStem: 60 53<586 699 768 820> 349 57<112.6 228.3> 526 50<146 211> 671 54<118.5 213.4>
VStem: 222 77<584.3 664.7> 239 77<414.8 521.4> 699 69<-15 60 113 241>
Fore
123 -28 m 1
 661 728 l 1
 737 728 l 1
 199 -28 l 1
 123 -28 l 1
316 461 m 0
 316 385 238 349 167 349 c 0
 80 349 31 385 17 454 c 1
 87 461 l 1
 98 425 124 406 162 406 c 0
 213 406 239 428 239 472 c 0
 239 510 215 527 162 526 c 2
 135 524 l 1
 146 576 l 1
 196 576 222 593 222 627 c 0
 222 656 202 671 164 671 c 0
 129 671 106 655 95 621 c 1
 25 633 l 1
 46 694 94 725 164 725 c 0
 254 725 299 694 299 635 c 0
 299 596 276 569 231 555 c 1
 288 541 316 510 316 461 c 0
699 -15 m 1
 699 60 l 1
 510 60 l 1
 510 121 l 1
 708 351 l 1
 768 351 l 1
 768 113 l 1
 820 113 l 1
 820 60 l 1
 768 60 l 1
 768 -15 l 1
 699 -15 l 1
699 113 m 1
 699 241 l 1
 586 113 l 1
 699 113 l 1
EndSplineSet
EndChar
StartChar: questiondown
Encoding: 286 191 250
Width: 610
VWidth: 2048
Flags: HW
HStem: -210 74<226.1 409.7> 418 100<258 357>
VStem: 77 90<-93.3 38.8> 258 99<418 518> 268 85<276.74 343>
Fore
357 518 m 1xf0
 357 418 l 1
 258 418 l 1
 258 518 l 1
 357 518 l 1xf0
167 -8 m 0
 167 -85 233 -136 307 -136 c 0
 386 -136 434 -89 449 8 c 1
 540 -3 l 1
 520 -141 443 -210 308 -210 c 0
 245 -210 192 -193 149 -159 c 0
 101 -124 77 -75 77 -14 c 0
 77 44 113 106 185 169 c 0
 221 199 242 225 253 244 c 0
 262 265 268 297 268 343 c 1
 353 343 l 1
 353 317 l 2xe8
 353 206 305 167 241 109 c 0
 192 66 167 28 167 -8 c 0
EndSplineSet
EndChar
StartChar: AE
Encoding: 293 198 257
Width: 999
VWidth: 2048
Flags: W
HStem: 0 84<573 946> 207 83<241 478> 326 86<573 907> 632 84<406 478 573 932>
VStem: 478 95<84 207 290 326 412 632>
Fore
0 0 m 1
 345 716 l 1
 932 716 l 1
 932 632 l 1
 573 632 l 1
 573 412 l 1
 907 412 l 1
 907 326 l 1
 573 326 l 1
 573 84 l 1
 946 84 l 1
 946 0 l 1
 478 0 l 1
 478 207 l 1
 201 207 l 1
 103 0 l 1
 0 0 l 1
241 290 m 1
 478 290 l 1
 478 632 l 1
 406 632 l 1
 241 290 l 1
EndSplineSet
EndChar
StartChar: Eth
Encoding: 303 208 267
Width: 721
VWidth: 2048
Flags: W
HStem: 0 84<172 380> 325 66<-2 77 172 369> 632 84<172 403.9>
VStem: 77 95<84 325 391 632> 572 98<275.9 475.1>
CounterMasks: 1 00
Fore
77 0 m 1
 77 325 l 1
 -2 325 l 1
 -2 391 l 1
 77 391 l 1
 77 716 l 1
 323 716 l 2
 399 716 455 708 497 691 c 0
 547 670 589 632 621 575 c 0
 653 520 670 449 670 362 c 0
 670 121 558 0 336 0 c 2
 77 0 l 1
172 84 m 1
 325 84 l 2
 380 84 423 92 454 104 c 0
 490 121 520 152 541 196 c 0
 561 241 572 296 572 363 c 0
 572 490 536 572 466 607 c 0
 434 624 385 632 322 632 c 2
 172 632 l 1
 172 391 l 1
 369 391 l 1
 369 325 l 1
 172 325 l 1
 172 84 l 1
EndSplineSet
EndChar
StartChar: multiply
Encoding: 310 215 274
Width: 583
VWidth: 2048
Flags: MW
HStem: 141 426<138 446>
VStem: 78 426<199 507>
Fore
78 199 m 1
 233 354 l 1
 80 507 l 1
 138 567 l 1
 291 414 l 1
 446 566 l 1
 504 507 l 1
 351 354 l 1
 504 201 l 1
 446 141 l 1
 291 294 l 1
 138 141 l 1
 78 199 l 1
EndSplineSet
EndChar
StartChar: Oslash
Encoding: 311 216 275
Width: 777
VWidth: 2048
Flags: MW
HStem: -12 81<312.6 528.8> 647 81<133.6 465.1>
VStem: 46 98<271.2 520.8> 635 96<217.9 441.8>
Back
610 650 m 1
 693 742 l 1
 740 702 l 1
 655 605 l 1
 705 532 731 451 731 357 c 0
 731 250 702 162 642 95 c 0
 581 23 497 -12 391 -12 c 0
 314 -12 241 12 170 63 c 1
 89 -29 l 1
 40 12 l 1
 127 109 l 1
 74 189 46 270 46 356 c 0
 46 464 77 552 136 621 c 0
 199 693 285 728 391 728 c 0
 472 728 544 702 610 650 c 1
552 584 m 1
 501 627 448 647 391 647 c 0
 308 647 247 619 202 561 c 0
 164 510 144 441 144 357 c 0
 144 291 159 231 189 176 c 1
 552 584 l 1
592 535 m 1
 228 127 l 1
 277 89 330 69 388 69 c 0
 468 69 529 98 573 155 c 0
 613 207 635 274 635 356 c 0
 635 422 619 481 592 535 c 1
EndSplineSet
Fore
46 356 m 0
 46 576 178 728 391 728 c 0
 472 728 544 702 610 650 c 1
 693 742 l 1
 740 702 l 1
 655 605 l 1
 705 532 731 451 731 357 c 0
 731 250 702 162 642 95 c 0
 581 23 497 -12 391 -12 c 0
 314 -12 241 12 170 63 c 1
 89 -29 l 1
 40 12 l 1
 127 109 l 1
 74 189 46 270 46 356 c 0
391 647 m 0
 193 647 144 483 144 357 c 0
 144 291 159 231 189 176 c 1
 552 584 l 1
 501 627 448 647 391 647 c 0
388 69 m 0
 549 69 635 198 635 356 c 0
 635 422 619 481 592 535 c 1
 228 127 l 1
 277 89 330 69 388 69 c 0
EndSplineSet
EndChar
StartChar: Thorn
Encoding: 317 222 281
Width: 666
VWidth: 2048
Flags: HW
HStem: 0 21G<77 172> 146 84<172 502.6> 486 84<172 528.9> 696 20G<77 172>
VStem: 77 95<0 146 230 486 570 716> 526 98<246.9 460.1>
Fore
348 570 m 2
 509 570 624 529 624 363 c 0
 624 218 533 146 356 146 c 2
 172 146 l 1
 172 0 l 1
 77 0 l 1
 77 716 l 1
 172 716 l 1
 172 570 l 1
 348 570 l 2
526 360 m 0
 526 437 489 486 356 486 c 2
 172 486 l 1
 172 230 l 1
 357 230 l 2
 469 230 526 273 526 360 c 0
EndSplineSet
EndChar
StartChar: germandbls
Encoding: 318 223 282
Width: 610
VWidth: 2048
Flags: HW
HStem: -12 72<348 474.1> 656 72<157.2 352.2>
VStem: 75 87<0 623.1> 300 91<330.5 450.1> 379 85<503.6 638.8> 490 89<88.8 194.6>
Fore
282 656 m 0xec
 186 656 162 591 162 484 c 2
 162 0 l 1
 75 0 l 1
 75 487 l 2
 75 648 144 728 284 728 c 0
 382 728 464 674 464 589 c 0xec
 464 516 391 436 391 389 c 0
 391 344 535 261 553 235 c 0
 572 213 579 185 579 153 c 0
 579 47 495 -12 402 -12 c 0
 320 -12 262 28 224 106 c 1
 300 141 l 1
 326 87 360 60 400 60 c 0
 457 60 490 102 490 146 c 0
 490 230 300 268 300 376 c 0xf4
 300 437 379 521 379 579 c 0
 379 625 336 656 282 656 c 0xec
EndSplineSet
EndChar
StartChar: ae
Encoding: 325 230 289
Width: 889
VWidth: 2048
Flags: HW
HStem: -12 70<138.6 314 514 714.3> 238 72<474 759> 458 72<164.4 380.2 528.3 712.9>
VStem: 32 95<70.1 246.9> 386 88<164.137 238 326 428.3>
Fore
210 -12 m 0
 105 -12 32 47 32 136 c 0
 32 228 109 284 262 303 c 0
 310 310 351 317 386 326 c 1
 386 346 l 2
 386 430 355 458 271 458 c 0
 189 458 143 425 133 357 c 1
 48 368 l 1
 69 477 144 530 273 530 c 0
 365 530 425 507 452 460 c 1
 494 507 549 530 618 530 c 0
 691 530 748 506 788 455 c 0
 831 402 851 339 849 267 c 2
 848 238 l 1
 474 238 l 1
 474 120 523 61 622 61 c 0
 693 61 737 97 756 170 c 1
 848 159 l 1
 811 44 734 -12 618 -12 c 0
 538 -12 474 20 425 86 c 1
 360 20 290 -12 210 -12 c 0
474 310 m 1
 759 310 l 1
 750 408 704 458 618 458 c 0
 537 458 474 401 474 310 c 1
388 261 m 1
 247 228 127 222 127 139 c 0
 127 86 159 58 227 58 c 0
 301 58 361 96 377 146 c 0
 385 167 388 204 388 261 c 1
EndSplineSet
EndChar
StartChar: eth
Encoding: 335 240 299
Width: 554
VWidth: 2048
Flags: HMW
HStem: -12 72<197.3 404> 451 67<140.4 300.2> 696 20G<150 256>
VStem: 35 91<47.2 384.3> 425 92<111.1 397.1>
Fore
35 253 m 0
 35 354 79 518 256 518 c 0
 290 518 325 509 360 490 c 1
 340 529 317 564 290 595 c 1
 156 532 l 1
 135 582 l 1
 251 636 l 1
 221 665 187 691 150 716 c 1
 256 716 l 1
 282 697 302 681 317 667 c 1
 422 716 l 1
 445 667 l 1
 360 625 l 1
 464 506 517 382 517 254 c 0
 517 95 423 -12 276 -12 c 0
 122 -12 35 89 35 253 c 0
274 60 m 0
 374 60 425 145 425 258 c 0
 425 365 371 451 273 451 c 0
 171 451 126 362 126 250 c 0
 126 94 215 60 274 60 c 0
EndSplineSet
EndChar
StartChar: divide
Encoding: 342 247 306
Width: 548
VWidth: 2048
Flags: W
HStem: 156 100<224 323> 313 81<38 510> 451 99<224 323>
VStem: 224 99<156 256 451 550>
Fore
224 451 m 1
 224 550 l 1
 323 550 l 1
 323 451 l 1
 224 451 l 1
510 313 m 1
 38 313 l 1
 38 394 l 1
 510 394 l 1
 510 313 l 1
224 156 m 1
 224 256 l 1
 323 256 l 1
 323 156 l 1
 224 156 l 1
EndSplineSet
EndChar
StartChar: oslash
Encoding: 343 248 307
Width: 610
VWidth: 2048
Flags: HMW
HStem: -12 73<264.7 444.1> 458 72<172.2 349>
VStem: 64 92<195.3 394.2> 461 91<114.7 321.802>
Fore
64 253 m 0
 64 418 150 530 307 530 c 0
 356 530 403 517 451 487 c 1
 500 550 l 1
 546 517 l 1
 495 449 l 1
 532 400 552 337 552 259 c 0
 552 92 464 -12 308 -12 c 0
 256 -12 210 2 170 28 c 1
 120 -38 l 1
 74 -3 l 1
 126 64 l 1
 86 110 64 172 64 253 c 0
402 423 m 1
 372 446 340 458 310 458 c 0
 204 458 156 363 156 259 c 0
 156 210 164 170 181 136 c 1
 402 423 l 1
438 377 m 1
 219 92 l 1
 245 71 274 61 305 61 c 0
 412 61 461 148 461 259 c 0
 461 307 454 346 438 377 c 1
EndSplineSet
EndChar
StartChar: thorn
Encoding: 349 254 313
Width: 554
VWidth: 2048
Flags: HW
HStem: -12 73<223.7 409.8> 461 69<224.5 408.9> 696 20G<66 155>
VStem: 66 89<-199 54 464 716> 426 91<111.9 408.3>
Fore
517 264 m 0
 517 110 433 -12 290 -12 c 0
 239 -12 193 11 155 54 c 1
 155 -199 l 1
 66 -199 l 1
 66 716 l 1
 155 716 l 1
 155 464 l 1
 193 509 241 530 296 530 c 0
 442 530 517 410 517 264 c 0
288 461 m 0
 197 461 146 367 146 256 c 0
 146 147 190 61 285 61 c 0
 381 61 426 147 426 264 c 0
 426 375 381 461 288 461 c 0
EndSplineSet
EndChar
StartChar: dotlessi
Encoding: 351 305 315
Width: 277
VWidth: 2048
Flags: W
HStem: 0 21G<97 185> 498 20G<97 185>
VStem: 97 88<0 518>
Fore
97 0 m 1
 97 518 l 1
 185 518 l 1
 185 0 l 1
 97 0 l 1
EndSplineSet
EndChar
StartChar: OE
Encoding: 352 338 316
Width: 999
VWidth: 2048
Flags: HW
HStem: -12 76<180.7 463.5> 0 84<636 969> 328 86<636 929> 632 84<636 953> 651 77<185.9 463.5>
VStem: 63 98<143 612.3> 543 93<195.3 328 414 520.3>
Fore
63 359 m 0xa6
 63 576 154 728 353 728 c 0xae
 438 728 503 691 547 619 c 1
 547 716 l 1
 953 716 l 1
 953 632 l 1
 636 632 l 1
 636 414 l 1
 929 414 l 1
 929 328 l 1
 636 328 l 1
 636 84 l 1
 969 84 l 1
 969 0 l 1
 547 0 l 1x76
 547 103 l 1
 504 26 438 -12 353 -12 c 0
 157 -12 63 141 63 359 c 0xa6
543 363 m 0
 543 484 505 651 351 651 c 0
 224 651 161 552 161 351 c 0
 161 191 220 64 351 64 c 0
 505 64 543 234 543 363 c 0
EndSplineSet
EndChar
StartChar: oe
Encoding: 353 339 317
Width: 944
VWidth: 2048
Flags: HW
HStem: -12 73<183.6 389 563.9 766.1> 236 72<527 814> 458 72<140.3 396.8 565.1 770.5>
VStem: 40 90<149 380.6> 435 89<118 236 308 405.3> 814 93<236 430.2>
Fore
524 236 m 1
 524 136 583 61 679 61 c 0
 746 61 791 97 812 169 c 1
 900 156 l 1
 871 44 796 -12 677 -12 c 0
 590 -12 523 20 478 86 c 1
 429 20 365 -12 285 -12 c 0
 207 -12 146 12 103 63 c 0
 61 110 40 173 40 253 c 0
 40 422 125 530 285 530 c 0
 371 530 435 498 478 431 c 1
 524 498 587 530 668 530 c 0
 829 530 907 413 907 236 c 1
 524 236 l 1
282 458 m 0
 173 458 130 353 130 261 c 0
 130 145 179 61 282 61 c 0
 380 61 435 151 435 261 c 0
 435 372 381 458 282 458 c 0
814 308 m 1
 814 402 748 458 673 458 c 0
 590 458 527 392 527 308 c 1
 814 308 l 1
EndSplineSet
EndChar
StartChar: florin
Encoding: 357 402 321
Width: 554
VWidth: 2048
Flags: HW
HStem: -210 77<76.2479 157.2> 451 67<176 262 365 452> 647 83<369.1 468.532>
Fore
23 -198 m 1
 40 -123 l 1
 77 -129 101 -133 113 -133 c 0
 147 -133 169 -109 176 -58 c 2
 262 451 l 1
 164 451 l 1
 176 518 l 1
 274 518 l 1
 287 584 l 2
 299 669 329 730 425 730 c 0
 452 730 486 723 530 710 c 1
 512 636 l 1
 481 644 455 647 438 647 c 0
 385 647 381 607 374 569 c 2
 365 518 l 1
 464 518 l 1
 452 451 l 1
 353 451 l 1
 259 -83 l 2
 244 -169 202 -210 132 -210 c 0
 98 -210 61 -205 23 -198 c 1
EndSplineSet
EndChar
StartChar: circumflex
Encoding: 358 710 322
Width: 332
VWidth: 2048
Flags: W
HStem: 582 138<113 118>
VStem: 12 308<582 582>
Fore
169 667 m 1
 113 582 l 1
 12 582 l 1
 118 720 l 1
 212 720 l 1
 320 582 l 1
 222 582 l 1
 169 667 l 1
EndSplineSet
EndChar
StartChar: caron
Encoding: 359 711 323
Width: 332
VWidth: 2048
Flags: W
HStem: 582 138<219 228>
VStem: 20 308<720 720>
Fore
175 638 m 1
 228 720 l 1
 328 720 l 1
 219 582 l 1
 126 582 l 1
 20 720 l 1
 121 720 l 1
 175 638 l 1
EndSplineSet
EndChar
StartChar: ring
Encoding: 361 730 324
Width: 332
VWidth: 2048
Flags: HW
HStem: 563 36<122.2 209.3> 705 35<122.2 211.9>
VStem: 80 36<607.5 698.5> 221 35<626.3 697.8>
Fore
256 651 m 0
 256 615 229 563 167 563 c 0
 114 563 80 602 80 653 c 0
 80 705 115 740 167 740 c 0
 227 740 256 692 256 651 c 0
169 599 m 0
 200 599 221 632 221 651 c 0
 221 687 202 705 169 705 c 0
 133 705 116 688 116 653 c 0
 116 618 133 599 169 599 c 0
EndSplineSet
EndChar
StartChar: tilde
Encoding: 362 732 325
Width: 332
VWidth: 2048
Flags: HW
HStem: 596 111<17.2 67 267 315.6> 598 69<186.8 257> 642 65<73.5 141.1>
VStem: 3 64<596 636.3> 267 63<679.857 714.957>
Fore
235 598 m 0x58
 183 598 133 642 106 642 c 0x38
 81 642 67 627 67 596 c 1
 3 596 l 1x98
 3 670 37 707 103 707 c 0x38
 147 707 197 667 231 667 c 0
 251 667 264 681 267 708 c 1
 330 708 l 1
 330 635 297 598 235 598 c 0x58
EndSplineSet
EndChar
StartChar: quotesinglbase
Encoding: 365 8218 326
Width: 222
VWidth: 2048
Flags: W
HStem: -20 20G<61 106>
VStem: 61 94<0 101> 106 49<-66.3 21>
Fore
61 0 m 1xc0
 61 101 l 1
 155 101 l 1
 155 21 l 2xc0
 155 -58 127 -109 74 -132 c 1
 52 -98 l 1
 89 -83 106 -51 106 0 c 1xa0
 61 0 l 1xc0
EndSplineSet
EndChar
StartChar: quotedblbase
Encoding: 366 8222 327
Width: 332
VWidth: 2048
Flags: W
HStem: 0 101<43 89 193 239>
VStem: 43 93<0 101> 89 47<-66.3 21> 193 95<0 101> 239 49<-66.3 21>
Fore
43 0 m 1xc0
 43 101 l 1
 136 101 l 1
 136 21 l 2xc0
 136 -58 110 -109 57 -132 c 1
 34 -98 l 1
 71 -83 89 -51 89 0 c 1xa0
 43 0 l 1xc0
193 0 m 1x90
 193 101 l 1
 288 101 l 1
 288 21 l 2x90
 288 -57 261 -109 207 -132 c 1
 187 -98 l 1
 222 -83 239 -51 239 0 c 1x88
 193 0 l 1x90
EndSplineSet
EndChar
StartChar: dagger
Encoding: 367 8224 328
Width: 554
VWidth: 2048
Flags: W
HStem: 423 78<35 230 319 515>
VStem: 230 89<-169 423 501 700>
Fore
230 -169 m 1
 230 423 l 1
 35 423 l 1
 35 501 l 1
 230 501 l 1
 230 700 l 1
 319 700 l 1
 319 501 l 1
 515 501 l 1
 515 423 l 1
 319 423 l 1
 319 -169 l 1
 230 -169 l 1
EndSplineSet
EndChar
StartChar: daggerdbl
Encoding: 368 8225 329
Width: 554
VWidth: 2048
Flags: W
HStem: 12 78<35 231 320 517> 445 78<35 231 320 517>
VStem: 231 89<-169 12 90 445 523 707>
Fore
231 -169 m 1
 231 12 l 1
 35 12 l 1
 35 90 l 1
 231 90 l 1
 231 445 l 1
 35 445 l 1
 35 523 l 1
 231 523 l 1
 231 707 l 1
 320 707 l 1
 320 523 l 1
 517 523 l 1
 517 445 l 1
 320 445 l 1
 320 90 l 1
 517 90 l 1
 517 12 l 1
 320 12 l 1
 320 -169 l 1
 231 -169 l 1
EndSplineSet
EndChar
StartChar: perthousand
Encoding: 369 8240 330
Width: 999
VWidth: 2048
Flags: W
HStem: -26 60<455.2 572.2 785.2 902.2> 288 61<454.5 571.5 783.2 900.2> 346 62<98.6 216.9> 662 60<99.2 217.5>
VStem: 18 72<423.8 644.8> 225 74<423.8 644.8> 372 74<52.4 270.8> 581 72<51.8 272.8> 702 72<52.4 270.8> 910 73<51.8 272.8>
Fore
156 -26 m 1x9fc0
 449 728 l 1
 513 728 l 1
 221 -26 l 1
 156 -26 l 1x9fc0
18 536 m 0
 18 661 64 722 158 722 c 0
 251 722 299 661 299 540 c 0
 299 411 251 346 159 346 c 0xbfc0
 64 346 18 409 18 536 c 0
90 533 m 0
 90 449 113 408 161 408 c 0
 204 408 225 449 225 533 c 0
 225 619 204 662 159 662 c 0
 113 662 90 619 90 533 c 0
372 164 m 0
 372 288 418 349 512 349 c 0xdfc0
 607 349 653 288 653 166 c 0
 653 38 607 -26 513 -26 c 0
 420 -26 372 37 372 164 c 0
446 159 m 0
 446 77 469 34 515 34 c 0
 559 34 581 77 581 161 c 0
 581 247 558 288 513 288 c 0
 468 288 446 245 446 159 c 0
702 164 m 0
 702 288 748 349 842 349 c 0
 937 349 983 288 983 166 c 0
 983 38 937 -26 843 -26 c 0
 750 -26 702 37 702 164 c 0
774 159 m 0
 774 77 799 34 845 34 c 0
 889 34 910 77 910 161 c 0
 910 247 887 288 843 288 c 0
 797 288 774 245 774 159 c 0
EndSplineSet
EndChar
StartChar: guilsinglleft
Encoding: 370 8249 331
Width: 332
VWidth: 2048
Flags: W
HStem: 35 445<199 271>
VStem: 44 227<35 258>
Fore
143 258 m 1
 271 35 l 1
 199 35 l 1
 44 258 l 1
 199 480 l 1
 271 480 l 1
 143 258 l 1
EndSplineSet
EndChar
StartChar: guilsinglright
Encoding: 371 8250 332
Width: 332
VWidth: 2048
Flags: W
HStem: 35 445<63 135>
VStem: 63 221<262 480>
Fore
192 259 m 1
 63 480 l 1
 135 480 l 1
 284 262 l 1
 135 35 l 1
 63 35 l 1
 192 259 l 1
EndSplineSet
EndChar
StartChar: trademark
Encoding: 372 8482 333
Width: 999
VWidth: 2048
Flags: MW
HStem: 658 58<110 239 305 435>
VStem: 239 66<319 658> 480 61<319 658> 811 60<319 651>
Fore
239 319 m 1
 239 658 l 1
 110 658 l 1
 110 716 l 1
 435 716 l 1
 435 658 l 1
 305 658 l 1
 305 319 l 1
 239 319 l 1
480 319 m 1
 480 716 l 1
 576 716 l 1
 677 399 l 1
 776 716 l 1
 871 716 l 1
 871 319 l 1
 811 319 l 1
 811 651 l 1
 708 319 l 1
 647 319 l 1
 541 658 l 1
 541 319 l 1
 480 319 l 1
EndSplineSet
EndChar
StartChar: uniF71D
Encoding: 376 63261 335
Width: 340
VWidth: 2048
Flags: W
HStem: -138 135<18 87 248 322> -87 84<87 248>
VStem: 18 69<-138 -87> 248 74<-138 -87>
Fore
18 -138 m 1xb0
 18 -3 l 1
 322 -3 l 1
 322 -138 l 1
 248 -138 l 1xb0
 248 -87 l 1
 87 -87 l 1x70
 87 -138 l 1
 18 -138 l 1xb0
EndSplineSet
EndChar
StartChar: uni0E10.descless
Encoding: 128 63232 337
Width: 530
Flags: W
HStem: -3 61<278.4 364.2> 158 49<134.4 204.972> 299 50<134.4 216.3> 506 55<347.7 450.4> 530 59<156 321.7>
VStem: 77 52<223.1 282.9> 208 69<77.1 164> 222 55<223.1 282.9> 359 69<84.8492 382.4>
Fore
245 589 m 0xee80
 304 589 363 561 414 561 c 0
 442 561 466 575 468 575 c 1
 486 521 l 1
 484 521 454 506 426 506 c 0xf680
 357 506 317 530 247 530 c 0
 177 530 150 497 150 497 c 1
 152 497 284 489 371 429 c 0
 405 405 428 368 428 320 c 2
 428 95 l 2
 428 37 380 -3 314 -3 c 0
 254 -3 208 35 208 89 c 2
 208 164 l 1xee80
 208 164 193 158 171 158 c 0
 121 158 77 194 77 253 c 0
 77 314 123 349 176 349 c 0
 250 349 277 299 277 247 c 2xed80
 277 107 l 2
 277 84 288 58 320 58 c 0
 354 58 359 86 359 109 c 2
 359 313 l 2
 359 371 308 407 236 426 c 0
 150 449 80 455 40 455 c 1
 72 516 121 589 245 589 c 0xee80
176 207 m 0
 207 207 222 230 222 253 c 0xe580
 222 276 207 299 176 299 c 0
 144 299 129 276 129 253 c 0
 129 230 144 207 176 207 c 0
EndSplineSet
EndChar
StartChar: dottedcircle
Encoding: 221 9676 339
Width: 643
Flags: HW
HStem: 5 36<325 327> 41 39<176 182> 52 38<454 456> 133 37<77 79> 146 36<536 538> 276 37<572 574> 411 37<536 538> 500 38<441 443> 507 37<185 187> 543 36<323 327>
VStem: 21 37<300 302> 58 37<152 154> 66 37<435 437> 156 39<61 63> 167 38<526 528> 307 36<23 25 561 566> 423 38<518 520> 435 37<71 73> 518 37<164 170 429 435> 553 39<294 300>
Fore
84 454 m 0
 95 454 103 445 103 435 c 0
 103 425 95 415 84 415 c 0
 74 415 66 425 66 435 c 0
 66 445 74 454 84 454 c 0
185 544 m 0
 196 544 205 536 205 526 c 0
 205 517 196 507 185 507 c 0
 176 507 167 517 167 526 c 0
 167 536 176 544 185 544 c 0
176 80 m 0
 185 80 195 71 195 61 c 0
 195 51 185 41 176 41 c 0
 166 41 156 51 156 61 c 0
 156 71 166 80 176 80 c 0
77 170 m 0
 87 170 95 162 95 152 c 0
 95 141 87 133 77 133 c 0
 66 133 58 141 58 152 c 0
 58 162 66 170 77 170 c 0
454 90 m 0
 464 90 472 81 472 71 c 0
 472 61 464 52 454 52 c 0
 445 52 435 61 435 71 c 0
 435 81 445 90 454 90 c 0
536 182 m 0
 547 182 555 175 555 164 c 0
 555 153 547 146 536 146 c 0
 526 146 518 153 518 164 c 0
 518 175 526 182 536 182 c 0
536 448 m 0
 547 448 555 440 555 429 c 0
 555 418 547 411 536 411 c 0
 526 411 518 418 518 429 c 0
 518 440 526 448 536 448 c 0
441 538 m 0
 452 538 461 529 461 518 c 0
 461 509 452 500 441 500 c 0
 432 500 423 509 423 518 c 0
 423 529 432 538 441 538 c 0
572 313 m 0
 582 313 592 305 592 294 c 0
 592 284 582 276 572 276 c 0
 563 276 553 284 553 294 c 0
 553 305 563 313 572 313 c 0
40 319 m 0
 51 319 58 311 58 300 c 0
 58 291 51 282 40 282 c 0
 29 282 21 291 21 300 c 0
 21 311 29 319 40 319 c 0
325 41 m 0
 336 41 343 34 343 23 c 0
 343 12 336 5 325 5 c 0
 316 5 307 12 307 23 c 0
 307 34 316 41 325 41 c 0
323 579 m 0
 334 579 342 570 342 561 c 0
 342 550 334 543 323 543 c 0
 314 543 305 550 305 561 c 0
 305 570 314 579 323 579 c 0
EndSplineSet
EndChar
